P3
64 64
255
43	37	23
43	37	23
53	44	39
43	37	23
53	44	39
53	44	39
43	37	23
53	44	39
53	44	39
53	44	39
50	42	31
53	44	39
35	29	33
35	29	33
53	44	39
53	44	39
43	37	23
43	37	23
53	44	39
53	44	39
43	37	23
53	44	39
43	37	23
53	44	39
35	29	33
35	29	33
43	37	23
35	29	33
43	37	23
43	37	23
43	37	23
35	29	33
43	37	23
43	37	23
53	44	39
50	42	31
50	42	31
53	44	39
53	44	39
53	44	39
53	44	39
43	37	23
53	44	39
53	44	39
35	29	33
53	44	39
43	37	23
43	37	23
43	37	23
35	29	33
43	37	23
43	37	23
43	37	23
53	44	39
35	29	33
35	29	33
35	29	33
43	37	23
35	29	33
35	29	33
43	37	23
53	44	39
43	37	23
35	29	33
43	37	23
53	44	39
72	58	45
72	58	45
72	58	45
53	44	39
53	44	39
53	44	39
66	55	51
72	58	45
66	55	51
66	55	51
66	55	51
53	44	39
53	44	39
66	55	51
43	37	23
53	44	39
53	44	39
53	44	39
53	44	39
53	44	39
53	44	39
53	44	39
43	37	23
43	37	23
43	37	23
43	37	23
53	44	39
50	42	31
66	55	51
53	44	39
43	37	23
66	55	51
66	55	51
66	55	51
66	55	51
66	55	51
66	55	51
66	55	51
53	44	39
66	55	51
66	55	51
66	55	51
66	55	51
66	55	51
53	44	39
53	44	39
43	37	23
43	37	23
53	44	39
53	44	39
53	44	39
53	44	39
53	44	39
53	44	39
53	44	39
43	37	23
53	44	39
43	37	23
53	44	39
53	44	39
50	42	31
53	44	39
35	29	33
43	37	23
43	37	23
50	42	31
43	37	23
50	42	31
50	42	31
50	42	31
35	29	33
43	37	23
35	29	33
35	29	33
35	29	33
50	42	31
50	42	31
35	29	33
43	37	23
66	55	51
43	37	23
50	42	31
50	42	31
50	42	31
35	29	33
35	29	33
35	29	33
35	29	33
16	21	17
35	29	33
43	37	23
35	29	33
43	37	23
16	21	17
43	37	23
53	44	39
43	37	23
43	37	23
35	29	33
50	42	31
35	29	33
50	42	31
35	29	33
50	42	31
50	42	31
50	42	31
50	42	31
50	42	31
35	29	33
35	29	33
43	37	23
53	44	39
35	29	33
50	42	31
50	42	31
50	42	31
35	29	33
35	29	33
16	21	17
35	29	33
43	37	23
35	29	33
53	44	39
53	44	39
66	55	51
50	42	31
43	37	23
43	37	23
50	42	31
50	42	31
43	37	23
35	29	33
50	42	31
50	42	31
43	37	23
43	37	23
35	29	33
50	42	31
50	42	31
50	42	31
35	29	33
35	29	33
43	37	23
72	58	45
50	42	31
50	42	31
35	29	33
50	42	31
35	29	33
35	29	33
35	29	33
35	29	33
16	21	17
35	29	33
35	29	33
50	42	31
43	37	23
16	21	17
43	37	23
53	44	39
50	42	31
53	44	39
35	29	33
50	42	31
50	42	31
50	42	31
43	37	23
50	42	31
53	44	39
50	42	31
50	42	31
50	42	31
35	29	33
35	29	33
43	37	23
53	44	39
50	42	31
50	42	31
50	42	31
43	37	23
35	29	33
35	29	33
35	29	33
35	29	33
50	42	31
43	37	23
53	44	39
50	42	31
66	55	51
50	42	31
35	29	33
53	44	39
50	42	31
43	37	23
43	37	23
35	29	33
50	42	31
43	37	23
43	37	23
35	29	33
50	42	31
66	55	51
50	42	31
50	42	31
35	29	33
43	37	23
53	44	39
72	58	45
35	29	33
50	42	31
35	29	33
35	29	33
35	29	33
35	29	33
16	21	17
35	29	33
35	29	33
35	29	33
35	29	33
53	44	39
50	42	31
16	21	17
43	37	23
53	44	39
53	44	39
53	44	39
50	42	31
50	42	31
50	42	31
50	42	31
43	37	23
43	37	23
35	29	33
50	42	31
35	29	33
50	42	31
35	29	33
35	29	33
43	37	23
50	42	31
35	29	33
50	42	31
50	42	31
50	42	31
43	37	23
35	29	33
35	29	33
35	29	33
35	29	33
35	29	33
50	42	31
50	42	31
50	42	31
43	37	23
35	29	33
43	37	23
35	29	33
35	29	33
35	29	33
35	29	33
43	37	23
43	37	23
35	29	33
35	29	33
50	42	31
53	44	39
50	42	31
35	29	33
35	29	33
43	37	23
35	29	33
53	44	39
50	42	31
50	42	31
50	42	31
50	42	31
43	37	23
35	29	33
16	21	17
16	21	17
16	21	17
16	21	17
53	44	39
43	37	23
50	42	31
16	21	17
43	37	23
53	44	39
50	42	31
35	29	33
50	42	31
35	29	33
50	42	31
43	37	23
43	37	23
43	37	23
43	37	23
50	42	31
35	29	33
50	42	31
50	42	31
35	29	33
43	37	23
50	42	31
35	29	33
35	29	33
35	29	33
50	42	31
43	37	23
43	37	23
35	29	33
35	29	33
43	37	23
53	44	39
53	44	39
50	42	31
35	29	33
35	29	33
53	44	39
53	44	39
35	29	33
43	37	23
43	37	23
50	42	31
53	44	39
53	44	39
50	42	31
50	42	31
66	55	51
66	55	51
53	44	39
53	44	39
35	29	33
43	37	23
35	29	33
53	44	39
35	29	33
35	29	33
35	29	33
35	29	33
35	29	33
35	29	33
43	37	23
43	37	23
35	29	33
43	37	23
35	29	33
50	42	31
35	29	33
16	21	17
43	37	23
53	44	39
53	44	39
53	44	39
53	44	39
50	42	31
50	42	31
43	37	23
43	37	23
43	37	23
50	42	31
35	29	33
43	37	23
43	37	23
35	29	33
35	29	33
43	37	23
53	44	39
35	29	33
35	29	33
35	29	33
50	42	31
43	37	23
35	29	33
35	29	33
43	37	23
50	42	31
50	42	31
50	42	31
50	42	31
53	44	39
35	29	33
43	37	23
16	21	17
16	21	17
16	21	17
16	21	17
16	21	17
35	29	33
43	37	23
35	29	33
35	29	33
43	37	23
35	29	33
43	37	23
35	29	33
35	29	33
35	29	33
35	29	33
19	13	15
16	21	17
16	21	17
3	14	0
3	14	0
3	14	0
3	14	0
35	29	33
35	29	33
16	21	17
19	13	15
16	21	17
16	21	17
19	13	15
19	13	15
35	29	33
16	21	17
16	21	17
16	21	17
35	29	33
16	21	17
16	21	17
16	21	17
16	21	17
16	21	17
35	29	33
35	29	33
35	29	33
35	29	33
35	29	33
35	29	33
43	37	23
35	29	33
16	21	17
16	21	17
16	21	17
16	21	17
16	21	17
16	21	17
16	21	17
16	21	17
43	37	23
43	37	23
35	29	33
16	21	17
16	21	17
16	21	17
43	37	23
43	37	23
50	42	31
53	44	39
53	44	39
53	44	39
53	44	39
50	42	31
53	44	39
53	44	39
53	44	39
50	42	31
50	42	31
50	42	31
35	29	33
43	37	23
43	37	23
50	42	31
43	37	23
43	37	23
43	37	23
35	29	33
43	37	23
53	44	39
53	44	39
53	44	39
43	37	23
53	44	39
53	44	39
53	44	39
43	37	23
43	37	23
43	37	23
43	37	23
50	42	31
53	44	39
43	37	23
43	37	23
35	29	33
53	44	39
53	44	39
53	44	39
43	37	23
43	37	23
43	37	23
50	42	31
43	37	23
53	44	39
43	37	23
43	37	23
43	37	23
43	37	23
43	37	23
43	37	23
43	37	23
35	29	33
35	29	33
35	29	33
35	29	33
35	29	33
50	42	31
50	42	31
43	37	23
43	37	23
50	42	31
43	37	23
66	55	51
66	55	51
66	55	51
66	55	51
66	55	51
66	55	51
53	44	39
66	55	51
53	44	39
66	55	51
66	55	51
53	44	39
43	37	23
50	42	31
53	44	39
53	44	39
53	44	39
50	42	31
53	44	39
53	44	39
53	44	39
66	55	51
53	44	39
66	55	51
53	44	39
72	58	45
66	55	51
72	58	45
66	55	51
66	55	51
53	44	39
66	55	51
66	55	51
66	55	51
66	55	51
53	44	39
53	44	39
66	55	51
53	44	39
66	55	51
66	55	51
72	58	45
66	55	51
72	58	45
66	55	51
66	55	51
66	55	51
72	58	45
66	55	51
53	44	39
66	55	51
50	42	31
53	44	39
53	44	39
53	44	39
50	42	31
66	55	51
72	58	45
66	55	51
66	55	51
53	44	39
66	55	51
35	29	33
35	29	33
35	29	33
35	29	33
35	29	33
35	29	33
35	29	33
16	21	17
43	37	23
66	55	51
35	29	33
16	21	17
35	29	33
35	29	33
43	37	23
43	37	23
35	29	33
35	29	33
43	37	23
43	37	23
50	42	31
43	37	23
43	37	23
35	29	33
53	44	39
66	55	51
35	29	33
50	42	31
50	42	31
50	42	31
43	37	23
43	37	23
35	29	33
43	37	23
35	29	33
35	29	33
35	29	33
35	29	33
43	37	23
43	37	23
53	44	39
72	58	45
43	37	23
43	37	23
53	44	39
43	37	23
43	37	23
53	44	39
35	29	33
35	29	33
35	29	33
43	37	23
35	29	33
35	29	33
53	44	39
43	37	23
53	44	39
50	42	31
35	29	33
35	29	33
43	37	23
43	37	23
35	29	33
50	42	31
43	37	23
43	37	23
35	29	33
35	29	33
43	37	23
35	29	33
35	29	33
16	21	17
35	29	33
66	55	51
43	37	23
43	37	23
35	29	33
43	37	23
35	29	33
43	37	23
35	29	33
35	29	33
50	42	31
43	37	23
35	29	33
43	37	23
43	37	23
35	29	33
43	37	23
66	55	51
35	29	33
43	37	23
43	37	23
50	42	31
35	29	33
43	37	23
35	29	33
43	37	23
43	37	23
35	29	33
35	29	33
35	29	33
35	29	33
35	29	33
50	42	31
66	55	51
35	29	33
43	37	23
43	37	23
43	37	23
43	37	23
43	37	23
35	29	33
35	29	33
35	29	33
43	37	23
35	29	33
35	29	33
35	29	33
35	29	33
53	44	39
50	42	31
35	29	33
35	29	33
43	37	23
35	29	33
43	37	23
35	29	33
50	42	31
35	29	33
43	37	23
43	37	23
35	29	33
43	37	23
50	42	31
43	37	23
53	44	39
66	55	51
50	42	31
66	55	51
50	42	31
66	55	51
50	42	31
53	44	39
66	55	51
66	55	51
53	44	39
50	42	31
50	42	31
50	42	31
50	42	31
50	42	31
53	44	39
72	58	45
53	44	39
50	42	31
53	44	39
53	44	39
50	42	31
50	42	31
53	44	39
53	44	39
35	29	33
53	44	39
35	29	33
43	37	23
16	21	17
16	21	17
43	37	23
66	55	51
43	37	23
35	29	33
43	37	23
35	29	33
35	29	33
35	29	33
43	37	23
50	42	31
35	29	33
35	29	33
43	37	23
35	29	33
35	29	33
43	37	23
53	44	39
50	42	31
43	37	23
43	37	23
43	37	23
35	29	33
43	37	23
50	42	31
50	42	31
50	42	31
43	37	23
35	29	33
35	29	33
43	37	23
43	37	23
35	29	33
53	44	39
66	55	51
50	42	31
66	55	51
66	55	51
50	42	31
53	44	39
50	42	31
66	55	51
66	55	51
50	42	31
66	55	51
66	55	51
66	55	51
50	42	31
50	42	31
53	44	39
80	68	52
66	55	51
50	42	31
66	55	51
66	55	51
50	42	31
50	42	31
53	44	39
66	55	51
53	44	39
53	44	39
50	42	31
43	37	23
16	21	17
35	29	33
50	42	31
66	55	51
35	29	33
50	42	31
50	42	31
35	29	33
35	29	33
35	29	33
50	42	31
53	44	39
50	42	31
50	42	31
35	29	33
35	29	33
50	42	31
43	37	23
53	44	39
50	42	31
35	29	33
43	37	23
35	29	33
50	42	31
35	29	33
50	42	31
35	29	33
50	42	31
35	29	33
35	29	33
50	42	31
50	42	31
35	29	33
43	37	23
53	44	39
66	55	51
53	44	39
53	44	39
53	44	39
43	37	23
35	29	33
35	29	33
43	37	23
43	37	23
35	29	33
53	44	39
53	44	39
50	42	31
50	42	31
50	42	31
53	44	39
72	58	45
66	55	51
66	55	51
66	55	51
50	42	31
66	55	51
50	42	31
66	55	51
66	55	51
66	55	51
53	44	39
53	44	39
53	44	39
43	37	23
35	29	33
43	37	23
53	44	39
35	29	33
35	29	33
35	29	33
16	21	17
35	29	33
43	37	23
53	44	39
66	55	51
66	55	51
66	55	51
53	44	39
53	44	39
50	42	31
43	37	23
53	44	39
50	42	31
50	42	31
50	42	31
50	42	31
66	55	51
53	44	39
50	42	31
16	21	17
35	29	33
16	21	17
16	21	17
35	29	33
16	21	17
35	29	33
35	29	33
50	42	31
35	29	33
35	29	33
43	37	23
16	21	17
16	21	17
35	29	33
16	21	17
35	29	33
35	29	33
16	21	17
35	29	33
43	37	23
43	37	23
43	37	23
43	37	23
53	44	39
50	42	31
35	29	33
50	42	31
35	29	33
35	29	33
50	42	31
50	42	31
35	29	33
35	29	33
16	21	17
16	21	17
16	21	17
16	21	17
16	21	17
16	21	17
43	37	23
16	21	17
16	21	17
16	21	17
16	21	17
3	14	0
16	21	17
16	21	17
43	37	23
35	29	33
35	29	33
35	29	33
43	37	23
43	37	23
16	21	17
16	21	17
43	37	23
50	42	31
35	29	33
50	42	31
35	29	33
50	42	31
43	37	23
43	37	23
53	44	39
53	44	39
43	37	23
50	42	31
53	44	39
43	37	23
53	44	39
50	42	31
53	44	39
53	44	39
35	29	33
35	29	33
53	44	39
53	44	39
43	37	23
43	37	23
43	37	23
43	37	23
53	44	39
43	37	23
50	42	31
50	42	31
53	44	39
53	44	39
53	44	39
50	42	31
53	44	39
53	44	39
53	44	39
53	44	39
53	44	39
53	44	39
53	44	39
53	44	39
53	44	39
43	37	23
43	37	23
43	37	23
35	29	33
43	37	23
43	37	23
35	29	33
35	29	33
35	29	33
43	37	23
43	37	23
43	37	23
43	37	23
53	44	39
50	42	31
50	42	31
50	42	31
50	42	31
53	44	39
43	37	23
50	42	31
50	42	31
50	42	31
50	42	31
53	44	39
53	44	39
53	44	39
53	44	39
53	44	39
53	44	39
72	58	45
53	44	39
53	44	39
72	58	45
66	55	51
80	68	52
80	68	52
72	58	45
72	58	45
66	55	51
72	58	45
72	58	45
66	55	51
66	55	51
43	37	23
43	37	23
80	68	52
72	58	45
72	58	45
72	58	45
72	58	45
72	58	45
72	58	45
66	55	51
80	68	52
72	58	45
66	55	51
66	55	51
66	55	51
53	44	39
53	44	39
50	42	31
50	42	31
53	44	39
53	44	39
53	44	39
53	44	39
53	44	39
53	44	39
53	44	39
66	55	51
66	55	51
53	44	39
53	44	39
50	42	31
53	44	39
50	42	31
50	42	31
66	55	51
66	55	51
66	55	51
66	55	51
66	55	51
66	55	51
66	55	51
66	55	51
66	55	51
53	44	39
66	55	51
66	55	51
66	55	51
53	44	39
53	44	39
53	44	39
53	44	39
43	37	23
43	37	23
53	44	39
53	44	39
35	29	33
50	42	31
53	44	39
43	37	23
43	37	23
43	37	23
53	44	39
53	44	39
50	42	31
43	37	23
53	44	39
72	58	45
43	37	23
50	42	31
35	29	33
43	37	23
50	42	31
35	29	33
53	44	39
53	44	39
53	44	39
53	44	39
53	44	39
50	42	31
50	42	31
35	29	33
50	42	31
50	42	31
35	29	33
35	29	33
35	29	33
43	37	23
35	29	33
43	37	23
43	37	23
43	37	23
35	29	33
35	29	33
35	29	33
35	29	33
35	29	33
35	29	33
53	44	39
66	55	51
66	55	51
66	55	51
66	55	51
53	44	39
66	55	51
53	44	39
53	44	39
53	44	39
43	37	23
43	37	23
66	55	51
53	44	39
35	29	33
43	37	23
53	44	39
66	55	51
50	42	31
43	37	23
53	44	39
53	44	39
50	42	31
50	42	31
43	37	23
43	37	23
35	29	33
43	37	23
53	44	39
53	44	39
53	44	39
43	37	23
53	44	39
66	55	51
53	44	39
35	29	33
35	29	33
43	37	23
35	29	33
35	29	33
53	44	39
50	42	31
35	29	33
50	42	31
43	37	23
43	37	23
50	42	31
35	29	33
43	37	23
53	44	39
35	29	33
43	37	23
50	42	31
35	29	33
35	29	33
35	29	33
35	29	33
43	37	23
35	29	33
50	42	31
43	37	23
43	37	23
35	29	33
16	21	17
53	44	39
66	55	51
50	42	31
50	42	31
53	44	39
50	42	31
53	44	39
50	42	31
53	44	39
50	42	31
35	29	33
35	29	33
53	44	39
53	44	39
35	29	33
43	37	23
43	37	23
53	44	39
35	29	33
43	37	23
35	29	33
35	29	33
43	37	23
35	29	33
35	29	33
16	21	17
35	29	33
35	29	33
43	37	23
53	44	39
53	44	39
43	37	23
53	44	39
66	55	51
50	42	31
43	37	23
35	29	33
43	37	23
35	29	33
35	29	33
43	37	23
35	29	33
43	37	23
43	37	23
43	37	23
43	37	23
53	44	39
35	29	33
35	29	33
66	55	51
43	37	23
35	29	33
35	29	33
35	29	33
35	29	33
43	37	23
35	29	33
43	37	23
53	44	39
50	42	31
35	29	33
35	29	33
43	37	23
16	21	17
43	37	23
53	44	39
50	42	31
43	37	23
50	42	31
35	29	33
50	42	31
35	29	33
50	42	31
53	44	39
50	42	31
50	42	31
66	55	51
50	42	31
53	44	39
50	42	31
43	37	23
53	44	39
43	37	23
43	37	23
35	29	33
16	21	17
35	29	33
35	29	33
35	29	33
16	21	17
43	37	23
43	37	23
43	37	23
53	44	39
53	44	39
35	29	33
50	42	31
66	55	51
50	42	31
50	42	31
50	42	31
35	29	33
35	29	33
35	29	33
35	29	33
35	29	33
35	29	33
35	29	33
35	29	33
35	29	33
53	44	39
35	29	33
35	29	33
66	55	51
35	29	33
35	29	33
35	29	33
35	29	33
43	37	23
35	29	33
35	29	33
43	37	23
53	44	39
35	29	33
43	37	23
35	29	33
35	29	33
16	21	17
43	37	23
50	42	31
50	42	31
50	42	31
43	37	23
35	29	33
35	29	33
43	37	23
50	42	31
35	29	33
50	42	31
50	42	31
53	44	39
53	44	39
50	42	31
43	37	23
43	37	23
53	44	39
35	29	33
35	29	33
35	29	33
16	21	17
16	21	17
35	29	33
43	37	23
35	29	33
43	37	23
43	37	23
43	37	23
35	29	33
35	29	33
35	29	33
50	42	31
53	44	39
43	37	23
50	42	31
50	42	31
50	42	31
50	42	31
50	42	31
50	42	31
50	42	31
50	42	31
53	44	39
53	44	39
53	44	39
50	42	31
35	29	33
53	44	39
66	55	51
43	37	23
43	37	23
35	29	33
35	29	33
16	21	17
16	21	17
35	29	33
43	37	23
35	29	33
50	42	31
35	29	33
43	37	23
35	29	33
16	21	17
35	29	33
43	37	23
35	29	33
35	29	33
35	29	33
35	29	33
35	29	33
35	29	33
35	29	33
35	29	33
35	29	33
35	29	33
35	29	33
35	29	33
35	29	33
35	29	33
53	44	39
16	21	17
16	21	17
16	21	17
16	21	17
16	21	17
35	29	33
16	21	17
16	21	17
35	29	33
35	29	33
35	29	33
35	29	33
35	29	33
35	29	33
16	21	17
50	42	31
43	37	23
35	29	33
35	29	33
35	29	33
35	29	33
35	29	33
35	29	33
35	29	33
35	29	33
35	29	33
35	29	33
35	29	33
35	29	33
35	29	33
35	29	33
53	44	39
43	37	23
16	21	17
35	29	33
16	21	17
16	21	17
3	14	0
3	14	0
16	21	17
19	13	15
16	21	17
16	21	17
19	13	15
19	13	15
3	14	0
19	13	15
35	29	33
35	29	33
35	29	33
16	21	17
16	21	17
16	21	17
3	14	0
3	14	0
16	21	17
3	14	0
3	14	0
3	14	0
3	14	0
3	14	0
16	21	17
16	21	17
43	37	23
43	37	23
50	42	31
53	44	39
50	42	31
50	42	31
53	44	39
53	44	39
43	37	23
43	37	23
53	44	39
53	44	39
53	44	39
53	44	39
53	44	39
50	42	31
50	42	31
53	44	39
53	44	39
53	44	39
53	44	39
53	44	39
53	44	39
53	44	39
35	29	33
53	44	39
43	37	23
53	44	39
43	37	23
53	44	39
43	37	23
43	37	23
43	37	23
43	37	23
43	37	23
43	37	23
53	44	39
43	37	23
35	29	33
35	29	33
43	37	23
35	29	33
43	37	23
43	37	23
50	42	31
43	37	23
43	37	23
43	37	23
43	37	23
53	44	39
53	44	39
53	44	39
53	44	39
53	44	39
66	55	51
53	44	39
53	44	39
66	55	51
66	55	51
66	55	51
50	42	31
53	44	39
50	42	31
50	42	31
53	44	39
53	44	39
66	55	51
72	58	45
80	68	52
66	55	51
66	55	51
66	55	51
50	42	31
53	44	39
53	44	39
53	44	39
66	55	51
53	44	39
53	44	39
53	44	39
66	55	51
72	58	45
66	55	51
66	55	51
53	44	39
66	55	51
72	58	45
66	55	51
53	44	39
72	58	45
66	55	51
72	58	45
72	58	45
66	55	51
66	55	51
53	44	39
53	44	39
53	44	39
66	55	51
66	55	51
72	58	45
66	55	51
53	44	39
66	55	51
43	37	23
66	55	51
66	55	51
66	55	51
53	44	39
66	55	51
66	55	51
66	55	51
72	58	45
72	58	45
80	68	52
72	58	45
72	58	45
66	55	51
66	55	51
66	55	51
53	44	39
80	68	52
80	68	52
80	68	52
80	68	52
72	58	45
66	55	51
72	58	45
50	42	31
35	29	33
35	29	33
50	42	31
50	42	31
43	37	23
43	37	23
35	29	33
43	37	23
53	44	39
50	42	31
43	37	23
35	29	33
43	37	23
35	29	33
35	29	33
43	37	23
43	37	23
43	37	23
35	29	33
35	29	33
50	42	31
43	37	23
43	37	23
53	44	39
66	55	51
43	37	23
43	37	23
43	37	23
43	37	23
35	29	33
43	37	23
43	37	23
35	29	33
35	29	33
43	37	23
35	29	33
43	37	23
43	37	23
35	29	33
43	37	23
66	55	51
35	29	33
35	29	33
43	37	23
43	37	23
43	37	23
35	29	33
50	42	31
66	55	51
72	58	45
66	55	51
50	42	31
35	29	33
35	29	33
35	29	33
53	44	39
66	55	51
50	42	31
50	42	31
50	42	31
50	42	31
50	42	31
53	44	39
50	42	31
43	37	23
50	42	31
35	29	33
50	42	31
35	29	33
35	29	33
43	37	23
35	29	33
53	44	39
43	37	23
50	42	31
35	29	33
35	29	33
35	29	33
35	29	33
50	42	31
43	37	23
43	37	23
50	42	31
50	42	31
50	42	31
43	37	23
35	29	33
43	37	23
53	44	39
35	29	33
35	29	33
43	37	23
43	37	23
43	37	23
53	44	39
43	37	23
53	44	39
53	44	39
53	44	39
43	37	23
43	37	23
43	37	23
35	29	33
53	44	39
53	44	39
35	29	33
35	29	33
43	37	23
35	29	33
35	29	33
43	37	23
50	42	31
66	55	51
66	55	51
66	55	51
53	44	39
35	29	33
35	29	33
35	29	33
43	37	23
66	55	51
50	42	31
53	44	39
50	42	31
50	42	31
50	42	31
50	42	31
35	29	33
35	29	33
53	44	39
53	44	39
35	29	33
35	29	33
43	37	23
35	29	33
50	42	31
50	42	31
43	37	23
43	37	23
35	29	33
35	29	33
35	29	33
53	44	39
43	37	23
43	37	23
50	42	31
53	44	39
53	44	39
53	44	39
53	44	39
35	29	33
43	37	23
66	55	51
35	29	33
35	29	33
35	29	33
43	37	23
35	29	33
43	37	23
35	29	33
43	37	23
43	37	23
43	37	23
35	29	33
50	42	31
53	44	39
43	37	23
50	42	31
53	44	39
35	29	33
43	37	23
35	29	33
50	42	31
50	42	31
35	29	33
53	44	39
66	55	51
72	58	45
66	55	51
53	44	39
35	29	33
43	37	23
35	29	33
43	37	23
66	55	51
35	29	33
50	42	31
35	29	33
35	29	33
43	37	23
35	29	33
43	37	23
35	29	33
53	44	39
53	44	39
43	37	23
43	37	23
43	37	23
35	29	33
43	37	23
53	44	39
43	37	23
43	37	23
35	29	33
35	29	33
35	29	33
43	37	23
53	44	39
53	44	39
50	42	31
53	44	39
66	55	51
66	55	51
53	44	39
35	29	33
53	44	39
53	44	39
43	37	23
43	37	23
43	37	23
43	37	23
43	37	23
43	37	23
35	29	33
43	37	23
50	42	31
43	37	23
35	29	33
50	42	31
35	29	33
43	37	23
50	42	31
53	44	39
50	42	31
35	29	33
43	37	23
50	42	31
50	42	31
43	37	23
53	44	39
66	55	51
72	58	45
66	55	51
53	44	39
35	29	33
50	42	31
35	29	33
43	37	23
53	44	39
50	42	31
43	37	23
35	29	33
53	44	39
35	29	33
35	29	33
43	37	23
50	42	31
50	42	31
43	37	23
35	29	33
50	42	31
35	29	33
43	37	23
43	37	23
53	44	39
35	29	33
43	37	23
43	37	23
35	29	33
35	29	33
35	29	33
35	29	33
43	37	23
53	44	39
53	44	39
66	55	51
53	44	39
50	42	31
35	29	33
43	37	23
66	55	51
43	37	23
43	37	23
43	37	23
35	29	33
43	37	23
35	29	33
35	29	33
35	29	33
35	29	33
35	29	33
35	29	33
35	29	33
50	42	31
35	29	33
50	42	31
66	55	51
53	44	39
50	42	31
35	29	33
50	42	31
50	42	31
43	37	23
66	55	51
66	55	51
66	55	51
66	55	51
43	37	23
35	29	33
43	37	23
35	29	33
43	37	23
53	44	39
35	29	33
53	44	39
53	44	39
50	42	31
50	42	31
53	44	39
16	21	17
16	21	17
16	21	17
16	21	17
35	29	33
16	21	17
16	21	17
35	29	33
43	37	23
16	21	17
19	13	15
19	13	15
19	13	15
19	13	15
16	21	17
16	21	17
16	21	17
16	21	17
35	29	33
16	21	17
35	29	33
16	21	17
16	21	17
16	21	17
43	37	23
35	29	33
35	29	33
35	29	33
35	29	33
35	29	33
35	29	33
16	21	17
16	21	17
16	21	17
16	21	17
16	21	17
16	21	17
16	21	17
16	21	17
16	21	17
43	37	23
16	21	17
19	13	15
3	14	0
16	21	17
16	21	17
16	21	17
16	21	17
16	21	17
35	29	33
16	21	17
16	21	17
16	21	17
16	21	17
16	21	17
16	21	17
43	37	23
16	21	17
16	21	17
16	21	17
16	21	17
16	21	17
16	21	17
16	21	17
53	44	39
53	44	39
53	44	39
53	44	39
53	44	39
53	44	39
53	44	39
53	44	39
50	42	31
50	42	31
53	44	39
50	42	31
50	42	31
53	44	39
50	42	31
50	42	31
43	37	23
43	37	23
43	37	23
43	37	23
43	37	23
43	37	23
43	37	23
43	37	23
43	37	23
43	37	23
50	42	31
50	42	31
53	44	39
53	44	39
53	44	39
50	42	31
53	44	39
53	44	39
53	44	39
53	44	39
43	37	23
43	37	23
43	37	23
43	37	23
43	37	23
43	37	23
43	37	23
43	37	23
35	29	33
35	29	33
43	37	23
43	37	23
35	29	33
35	29	33
35	29	33
35	29	33
43	37	23
43	37	23
43	37	23
43	37	23
43	37	23
43	37	23
43	37	23
43	37	23
43	37	23
43	37	23
53	44	39
53	44	39
50	42	31
66	55	51
66	55	51
66	55	51
66	55	51
66	55	51
66	55	51
66	55	51
66	55	51
66	55	51
66	55	51
66	55	51
66	55	51
72	58	45
53	44	39
66	55	51
43	37	23
72	58	45
53	44	39
53	44	39
53	44	39
53	44	39
53	44	39
50	42	31
53	44	39
53	44	39
66	55	51
53	44	39
66	55	51
66	55	51
66	55	51
35	29	33
50	42	31
66	55	51
66	55	51
66	55	51
66	55	51
66	55	51
66	55	51
66	55	51
72	58	45
66	55	51
66	55	51
66	55	51
53	44	39
50	42	31
43	37	23
16	21	17
43	37	23
43	37	23
43	37	23
43	37	23
50	42	31
50	42	31
53	44	39
50	42	31
50	42	31
50	42	31
53	44	39
66	55	51
72	58	45
66	55	51
66	55	51
53	44	39
53	44	39
72	58	45
66	55	51
53	44	39
66	55	51
53	44	39
66	55	51
72	58	45
43	37	23
50	42	31
53	44	39
50	42	31
50	42	31
50	42	31
53	44	39
50	42	31
43	37	23
66	55	51
35	29	33
35	29	33
16	21	17
16	21	17
35	29	33
50	42	31
53	44	39
53	44	39
50	42	31
50	42	31
50	42	31
53	44	39
50	42	31
35	29	33
50	42	31
53	44	39
50	42	31
50	42	31
43	37	23
43	37	23
50	42	31
35	29	33
43	37	23
35	29	33
50	42	31
35	29	33
35	29	33
35	29	33
35	29	33
16	21	17
35	29	33
35	29	33
35	29	33
35	29	33
43	37	23
43	37	23
35	29	33
35	29	33
16	21	17
16	21	17
43	37	23
50	42	31
43	37	23
35	29	33
35	29	33
16	21	17
53	44	39
66	55	51
53	44	39
53	44	39
66	55	51
53	44	39
66	55	51
66	55	51
43	37	23
43	37	23
50	42	31
50	42	31
50	42	31
50	42	31
53	44	39
50	42	31
43	37	23
53	44	39
35	29	33
35	29	33
16	21	17
16	21	17
35	29	33
50	42	31
50	42	31
50	42	31
53	44	39
50	42	31
43	37	23
53	44	39
43	37	23
35	29	33
53	44	39
53	44	39
35	29	33
50	42	31
43	37	23
43	37	23
50	42	31
35	29	33
43	37	23
35	29	33
35	29	33
35	29	33
35	29	33
35	29	33
35	29	33
16	21	17
35	29	33
43	37	23
43	37	23
50	42	31
50	42	31
43	37	23
35	29	33
35	29	33
35	29	33
43	37	23
53	44	39
66	55	51
50	42	31
43	37	23
35	29	33
16	21	17
53	44	39
53	44	39
50	42	31
53	44	39
66	55	51
53	44	39
66	55	51
66	55	51
50	42	31
50	42	31
53	44	39
53	44	39
66	55	51
50	42	31
53	44	39
43	37	23
43	37	23
53	44	39
35	29	33
35	29	33
35	29	33
35	29	33
50	42	31
50	42	31
53	44	39
53	44	39
50	42	31
35	29	33
35	29	33
50	42	31
53	44	39
43	37	23
53	44	39
66	55	51
50	42	31
35	29	33
35	29	33
50	42	31
35	29	33
16	21	17
43	37	23
16	21	17
43	37	23
50	42	31
35	29	33
35	29	33
43	37	23
16	21	17
35	29	33
66	55	51
50	42	31
50	42	31
50	42	31
50	42	31
50	42	31
50	42	31
50	42	31
66	55	51
53	44	39
53	44	39
53	44	39
53	44	39
66	55	51
50	42	31
50	42	31
66	55	51
50	42	31
50	42	31
50	42	31
53	44	39
66	55	51
53	44	39
43	37	23
50	42	31
53	44	39
53	44	39
50	42	31
50	42	31
53	44	39
50	42	31
35	29	33
53	44	39
16	21	17
35	29	33
35	29	33
35	29	33
35	29	33
35	29	33
53	44	39
50	42	31
43	37	23
35	29	33
35	29	33
50	42	31
50	42	31
43	37	23
53	44	39
66	55	51
50	42	31
50	42	31
50	42	31
35	29	33
43	37	23
16	21	17
35	29	33
16	21	17
43	37	23
50	42	31
35	29	33
50	42	31
50	42	31
16	21	17
35	29	33
66	55	51
53	44	39
50	42	31
50	42	31
50	42	31
53	44	39
50	42	31
50	42	31
53	44	39
50	42	31
53	44	39
53	44	39
53	44	39
66	55	51
35	29	33
66	55	51
66	55	51
66	55	51
66	55	51
72	58	45
66	55	51
66	55	51
66	55	51
66	55	51
53	44	39
66	55	51
50	42	31
50	42	31
66	55	51
53	44	39
35	29	33
43	37	23
53	44	39
16	21	17
35	29	33
35	29	33
35	29	33
43	37	23
43	37	23
50	42	31
50	42	31
53	44	39
53	44	39
35	29	33
35	29	33
50	42	31
35	29	33
53	44	39
66	55	51
53	44	39
53	44	39
53	44	39
43	37	23
16	21	17
16	21	17
35	29	33
16	21	17
43	37	23
43	37	23
16	21	17
35	29	33
35	29	33
16	21	17
43	37	23
53	44	39
35	29	33
43	37	23
50	42	31
53	44	39
50	42	31
50	42	31
35	29	33
43	37	23
43	37	23
43	37	23
35	29	33
43	37	23
43	37	23
35	29	33
53	44	39
35	29	33
35	29	33
35	29	33
35	29	33
35	29	33
35	29	33
35	29	33
16	21	17
16	21	17
35	29	33
35	29	33
35	29	33
35	29	33
35	29	33
43	37	23
43	37	23
16	21	17
19	13	15
19	13	15
16	21	17
16	21	17
19	13	15
16	21	17
43	37	23
43	37	23
43	37	23
43	37	23
35	29	33
16	21	17
16	21	17
16	21	17
53	44	39
35	29	33
43	37	23
43	37	23
35	29	33
35	29	33
16	21	17
19	13	15
3	14	0
3	14	0
16	21	17
16	21	17
16	21	17
16	21	17
16	21	17
16	21	17
43	37	23
16	21	17
16	21	17
16	21	17
16	21	17
35	29	33
35	29	33
35	29	33
35	29	33
35	29	33
16	21	17
16	21	17
3	14	0
3	14	0
16	21	17
35	29	33
53	44	39
53	44	39
53	44	39
43	37	23
35	29	33
43	37	23
53	44	39
53	44	39
43	37	23
35	29	33
43	37	23
43	37	23
43	37	23
53	44	39
50	42	31
43	37	23
43	37	23
43	37	23
43	37	23
43	37	23
43	37	23
43	37	23
43	37	23
43	37	23
53	44	39
53	44	39
53	44	39
53	44	39
53	44	39
53	44	39
53	44	39
53	44	39
53	44	39
53	44	39
50	42	31
53	44	39
53	44	39
43	37	23
43	37	23
43	37	23
43	37	23
43	37	23
53	44	39
43	37	23
43	37	23
50	42	31
50	42	31
53	44	39
50	42	31
53	44	39
43	37	23
43	37	23
43	37	23
43	37	23
43	37	23
35	29	33
43	37	23
43	37	23
43	37	23
43	37	23
43	37	23
43	37	23
53	44	39
53	44	39
53	44	39
53	44	39
66	55	51
72	58	45
72	58	45
72	58	45
66	55	51
53	44	39
43	37	23
72	58	45
53	44	39
66	55	51
66	55	51
53	44	39
53	44	39
53	44	39
50	42	31
66	55	51
53	44	39
53	44	39
53	44	39
50	42	31
53	44	39
53	44	39
53	44	39
72	58	45
66	55	51
66	55	51
66	55	51
66	55	51
66	55	51
66	55	51
66	55	51
66	55	51
66	55	51
53	44	39
66	55	51
66	55	51
53	44	39
50	42	31
53	44	39
53	44	39
53	44	39
53	44	39
66	55	51
66	55	51
66	55	51
66	55	51
53	44	39
72	58	45
66	55	51
53	44	39
66	55	51
50	42	31
53	44	39
50	42	31
43	37	23
53	44	39
53	44	39
66	55	51
53	44	39
53	44	39
66	55	51
66	55	51
35	29	33
43	37	23
35	29	33
35	29	33
43	37	23
35	29	33
35	29	33
35	29	33
43	37	23
53	44	39
16	21	17
35	29	33
35	29	33
35	29	33
43	37	23
43	37	23
35	29	33
35	29	33
35	29	33
35	29	33
35	29	33
43	37	23
35	29	33
16	21	17
43	37	23
53	44	39
53	44	39
53	44	39
53	44	39
43	37	23
53	44	39
53	44	39
43	37	23
43	37	23
35	29	33
43	37	23
43	37	23
35	29	33
35	29	33
35	29	33
53	44	39
53	44	39
53	44	39
50	42	31
50	42	31
53	44	39
50	42	31
35	29	33
43	37	23
35	29	33
16	21	17
16	21	17
16	21	17
35	29	33
35	29	33
16	21	17
35	29	33
43	37	23
16	21	17
16	21	17
16	21	17
16	21	17
16	21	17
16	21	17
35	29	33
43	37	23
35	29	33
43	37	23
35	29	33
43	37	23
43	37	23
35	29	33
43	37	23
53	44	39
35	29	33
35	29	33
43	37	23
43	37	23
50	42	31
43	37	23
43	37	23
35	29	33
35	29	33
35	29	33
43	37	23
35	29	33
35	29	33
16	21	17
35	29	33
66	55	51
35	29	33
43	37	23
43	37	23
43	37	23
43	37	23
43	37	23
43	37	23
43	37	23
43	37	23
43	37	23
35	29	33
35	29	33
43	37	23
35	29	33
43	37	23
53	44	39
50	42	31
43	37	23
35	29	33
43	37	23
50	42	31
35	29	33
35	29	33
35	29	33
35	29	33
35	29	33
16	21	17
35	29	33
35	29	33
16	21	17
35	29	33
53	44	39
35	29	33
43	37	23
16	21	17
16	21	17
43	37	23
43	37	23
35	29	33
43	37	23
35	29	33
35	29	33
35	29	33
35	29	33
16	21	17
16	21	17
50	42	31
66	55	51
35	29	33
35	29	33
35	29	33
16	21	17
50	42	31
50	42	31
53	44	39
50	42	31
50	42	31
53	44	39
50	42	31
66	55	51
50	42	31
16	21	17
53	44	39
72	58	45
35	29	33
35	29	33
35	29	33
35	29	33
43	37	23
43	37	23
43	37	23
43	37	23
43	37	23
43	37	23
35	29	33
43	37	23
43	37	23
35	29	33
43	37	23
53	44	39
50	42	31
50	42	31
35	29	33
43	37	23
50	42	31
43	37	23
50	42	31
53	44	39
53	44	39
53	44	39
53	44	39
50	42	31
53	44	39
35	29	33
53	44	39
66	55	51
50	42	31
53	44	39
50	42	31
50	42	31
53	44	39
53	44	39
43	37	23
35	29	33
35	29	33
35	29	33
35	29	33
35	29	33
35	29	33
16	21	17
35	29	33
66	55	51
43	37	23
16	21	17
16	21	17
16	21	17
43	37	23
53	44	39
53	44	39
53	44	39
50	42	31
50	42	31
50	42	31
66	55	51
43	37	23
16	21	17
53	44	39
66	55	51
50	42	31
43	37	23
35	29	33
35	29	33
43	37	23
43	37	23
50	42	31
43	37	23
50	42	31
43	37	23
50	42	31
43	37	23
43	37	23
35	29	33
43	37	23
43	37	23
35	29	33
35	29	33
50	42	31
43	37	23
50	42	31
43	37	23
50	42	31
50	42	31
66	55	51
53	44	39
66	55	51
50	42	31
50	42	31
35	29	33
53	44	39
72	58	45
66	55	51
66	55	51
66	55	51
66	55	51
53	44	39
53	44	39
35	29	33
35	29	33
35	29	33
43	37	23
43	37	23
43	37	23
53	44	39
43	37	23
53	44	39
72	58	45
43	37	23
16	21	17
16	21	17
16	21	17
53	44	39
53	44	39
66	55	51
53	44	39
43	37	23
50	42	31
50	42	31
35	29	33
43	37	23
16	21	17
50	42	31
66	55	51
50	42	31
53	44	39
43	37	23
35	29	33
35	29	33
35	29	33
35	29	33
43	37	23
53	44	39
50	42	31
53	44	39
53	44	39
35	29	33
35	29	33
43	37	23
53	44	39
43	37	23
50	42	31
53	44	39
50	42	31
50	42	31
50	42	31
53	44	39
53	44	39
35	29	33
43	37	23
50	42	31
50	42	31
53	44	39
35	29	33
53	44	39
80	68	52
66	55	51
66	55	51
50	42	31
66	55	51
35	29	33
35	29	33
16	21	17
35	29	33
35	29	33
16	21	17
16	21	17
16	21	17
35	29	33
35	29	33
50	42	31
50	42	31
50	42	31
50	42	31
35	29	33
35	29	33
35	29	33
35	29	33
35	29	33
43	37	23
35	29	33
35	29	33
35	29	33
35	29	33
16	21	17
16	21	17
50	42	31
35	29	33
35	29	33
35	29	33
19	13	15
16	21	17
16	21	17
3	14	0
16	21	17
16	21	17
35	29	33
35	29	33
35	29	33
43	37	23
35	29	33
16	21	17
43	37	23
16	21	17
16	21	17
16	21	17
35	29	33
16	21	17
16	21	17
35	29	33
16	21	17
35	29	33
35	29	33
16	21	17
16	21	17
16	21	17
16	21	17
16	21	17
53	44	39
35	29	33
50	42	31
50	42	31
35	29	33
50	42	31
43	37	23
35	29	33
53	44	39
53	44	39
43	37	23
43	37	23
53	44	39
53	44	39
53	44	39
50	42	31
50	42	31
50	42	31
35	29	33
35	29	33
35	29	33
35	29	33
35	29	33
35	29	33
43	37	23
35	29	33
43	37	23
43	37	23
43	37	23
43	37	23
43	37	23
43	37	23
35	29	33
43	37	23
43	37	23
53	44	39
43	37	23
43	37	23
35	29	33
35	29	33
43	37	23
43	37	23
43	37	23
43	37	23
53	44	39
50	42	31
43	37	23
35	29	33
53	44	39
35	29	33
35	29	33
53	44	39
50	42	31
43	37	23
35	29	33
35	29	33
35	29	33
35	29	33
53	44	39
53	44	39
43	37	23
35	29	33
53	44	39
43	37	23
43	37	23
43	37	23
43	37	23
53	44	39
43	37	23
53	44	39
43	37	23
53	44	39
43	37	23
72	58	45
53	44	39
66	55	51
66	55	51
72	58	45
80	68	52
66	55	51
66	55	51
80	68	52
66	55	51
80	68	52
90	72	58
80	68	52
66	55	51
35	29	33
35	29	33
53	44	39
66	55	51
53	44	39
53	44	39
53	44	39
53	44	39
53	44	39
53	44	39
53	44	39
53	44	39
53	44	39
50	42	31
43	37	23
35	29	33
35	29	33
43	37	23
66	55	51
53	44	39
53	44	39
53	44	39
66	55	51
53	44	39
53	44	39
53	44	39
53	44	39
66	55	51
72	58	45
72	58	45
66	55	51
53	44	39
43	37	23
43	37	23
53	44	39
53	44	39
53	44	39
53	44	39
53	44	39
72	58	45
53	44	39
53	44	39
53	44	39
53	44	39
66	55	51
66	55	51
72	58	45
72	58	45
53	44	39
43	37	23
53	44	39
35	29	33
43	37	23
35	29	33
35	29	33
35	29	33
35	29	33
53	44	39
35	29	33
35	29	33
35	29	33
53	44	39
50	42	31
35	29	33
16	21	17
43	37	23
66	55	51
43	37	23
35	29	33
35	29	33
43	37	23
50	42	31
35	29	33
35	29	33
50	42	31
43	37	23
43	37	23
50	42	31
43	37	23
35	29	33
16	21	17
43	37	23
66	55	51
50	42	31
35	29	33
43	37	23
43	37	23
35	29	33
35	29	33
35	29	33
43	37	23
50	42	31
50	42	31
35	29	33
50	42	31
43	37	23
16	21	17
53	44	39
66	55	51
35	29	33
43	37	23
43	37	23
43	37	23
53	44	39
53	44	39
53	44	39
53	44	39
43	37	23
43	37	23
50	42	31
35	29	33
35	29	33
35	29	33
50	42	31
66	55	51
50	42	31
35	29	33
50	42	31
53	44	39
50	42	31
50	42	31
43	37	23
35	29	33
50	42	31
50	42	31
53	44	39
43	37	23
35	29	33
16	21	17
43	37	23
50	42	31
50	42	31
35	29	33
35	29	33
43	37	23
43	37	23
35	29	33
35	29	33
35	29	33
35	29	33
43	37	23
43	37	23
43	37	23
16	21	17
16	21	17
43	37	23
66	55	51
35	29	33
43	37	23
35	29	33
43	37	23
35	29	33
35	29	33
35	29	33
35	29	33
35	29	33
50	42	31
35	29	33
35	29	33
53	44	39
35	29	33
53	44	39
66	55	51
43	37	23
35	29	33
35	29	33
43	37	23
43	37	23
53	44	39
35	29	33
53	44	39
53	44	39
53	44	39
35	29	33
35	29	33
43	37	23
35	29	33
43	37	23
43	37	23
35	29	33
35	29	33
43	37	23
35	29	33
43	37	23
43	37	23
35	29	33
35	29	33
43	37	23
43	37	23
43	37	23
35	29	33
35	29	33
19	13	15
35	29	33
72	58	45
50	42	31
35	29	33
35	29	33
53	44	39
35	29	33
43	37	23
43	37	23
35	29	33
35	29	33
35	29	33
35	29	33
35	29	33
35	29	33
35	29	33
43	37	23
72	58	45
35	29	33
50	42	31
35	29	33
35	29	33
35	29	33
35	29	33
35	29	33
50	42	31
53	44	39
50	42	31
50	42	31
50	42	31
53	44	39
50	42	31
53	44	39
80	68	52
50	42	31
50	42	31
53	44	39
50	42	31
50	42	31
50	42	31
50	42	31
50	42	31
35	29	33
50	42	31
35	29	33
50	42	31
43	37	23
35	29	33
43	37	23
43	37	23
35	29	33
35	29	33
35	29	33
35	29	33
35	29	33
35	29	33
43	37	23
43	37	23
43	37	23
43	37	23
35	29	33
43	37	23
35	29	33
16	21	17
35	29	33
53	44	39
43	37	23
43	37	23
35	29	33
35	29	33
43	37	23
43	37	23
43	37	23
35	29	33
35	29	33
35	29	33
35	29	33
35	29	33
35	29	33
16	21	17
43	37	23
72	58	45
35	29	33
43	37	23
43	37	23
43	37	23
35	29	33
35	29	33
50	42	31
53	44	39
66	55	51
53	44	39
53	44	39
53	44	39
50	42	31
50	42	31
66	55	51
80	68	52
50	42	31
50	42	31
66	55	51
53	44	39
66	55	51
66	55	51
66	55	51
50	42	31
53	44	39
50	42	31
50	42	31
43	37	23
43	37	23
35	29	33
43	37	23
53	44	39
35	29	33
35	29	33
35	29	33
35	29	33
43	37	23
43	37	23
53	44	39
53	44	39
53	44	39
53	44	39
43	37	23
43	37	23
35	29	33
16	21	17
43	37	23
43	37	23
35	29	33
35	29	33
35	29	33
35	29	33
35	29	33
35	29	33
35	29	33
35	29	33
35	29	33
35	29	33
43	37	23
50	42	31
50	42	31
35	29	33
53	44	39
66	55	51
53	44	39
50	42	31
35	29	33
35	29	33
53	44	39
50	42	31
53	44	39
53	44	39
50	42	31
53	44	39
50	42	31
43	37	23
35	29	33
35	29	33
43	37	23
53	44	39
35	29	33
43	37	23
43	37	23
43	37	23
43	37	23
43	37	23
43	37	23
35	29	33
35	29	33
35	29	33
35	29	33
43	37	23
35	29	33
35	29	33
53	44	39
35	29	33
3	14	0
16	21	17
35	29	33
35	29	33
35	29	33
35	29	33
35	29	33
35	29	33
43	37	23
43	37	23
16	21	17
16	21	17
16	21	17
16	21	17
43	37	23
16	21	17
16	21	17
16	21	17
16	21	17
16	21	17
16	21	17
16	21	17
3	14	0
16	21	17
16	21	17
13	20	13
35	29	33
35	29	33
35	29	33
35	29	33
53	44	39
35	29	33
35	29	33
35	29	33
16	21	17
16	21	17
35	29	33
35	29	33
50	42	31
35	29	33
35	29	33
35	29	33
43	37	23
16	21	17
43	37	23
35	29	33
53	44	39
43	37	23
35	29	33
16	21	17
16	21	17
16	21	17
43	37	23
43	37	23
35	29	33
16	21	17
35	29	33
35	29	33
35	29	33
35	29	33
16	21	17
35	29	33
53	44	39
35	29	33
50	42	31
50	42	31
66	55	51
53	44	39
53	44	39
66	55	51
53	44	39
53	44	39
53	44	39
53	44	39
66	55	51
53	44	39
50	42	31
53	44	39
53	44	39
53	44	39
53	44	39
53	44	39
53	44	39
53	44	39
35	29	33
35	29	33
43	37	23
43	37	23
43	37	23
50	42	31
43	37	23
43	37	23
53	44	39
53	44	39
50	42	31
53	44	39
53	44	39
53	44	39
53	44	39
53	44	39
53	44	39
53	44	39
53	44	39
53	44	39
53	44	39
53	44	39
43	37	23
43	37	23
53	44	39
53	44	39
53	44	39
53	44	39
53	44	39
53	44	39
53	44	39
53	44	39
50	42	31
53	44	39
43	37	23
35	29	33
53	44	39
66	55	51
50	42	31
53	44	39
53	44	39
35	29	33
53	44	39
53	44	39
66	55	51
66	55	51
66	55	51
66	55	51
80	68	52
66	55	51
53	44	39
66	55	51
66	55	51
66	55	51
66	55	51
66	55	51
66	55	51
80	68	52
80	68	52
72	58	45
72	58	45
72	58	45
72	58	45
53	44	39
53	44	39
53	44	39
35	29	33
53	44	39
53	44	39
53	44	39
66	55	51
50	42	31
66	55	51
66	55	51
66	55	51
53	44	39
72	58	45
72	58	45
66	55	51
72	58	45
80	68	52
80	68	52
53	44	39
53	44	39
72	58	45
72	58	45
72	58	45
66	55	51
66	55	51
72	58	45
53	44	39
72	58	45
53	44	39
72	58	45
66	55	51
66	55	51
72	58	45
66	55	51
43	37	23
53	44	39
66	55	51
66	55	51
66	55	51
66	55	51
72	58	45
53	44	39
43	37	23
50	42	31
35	29	33
35	29	33
43	37	23
35	29	33
50	42	31
43	37	23
53	44	39
66	55	51
43	37	23
43	37	23
43	37	23
43	37	23
43	37	23
50	42	31
50	42	31
35	29	33
16	21	17
16	21	17
35	29	33
35	29	33
43	37	23
43	37	23
53	44	39
53	44	39
43	37	23
43	37	23
43	37	23
43	37	23
50	42	31
50	42	31
66	55	51
50	42	31
50	42	31
53	44	39
53	44	39
53	44	39
53	44	39
50	42	31
50	42	31
53	44	39
50	42	31
35	29	33
43	37	23
35	29	33
43	37	23
43	37	23
43	37	23
43	37	23
35	29	33
53	44	39
53	44	39
53	44	39
50	42	31
50	42	31
53	44	39
80	68	52
53	44	39
53	44	39
53	44	39
50	42	31
43	37	23
35	29	33
35	29	33
43	37	23
35	29	33
43	37	23
50	42	31
53	44	39
53	44	39
50	42	31
50	42	31
66	55	51
50	42	31
66	55	51
50	42	31
50	42	31
35	29	33
50	42	31
50	42	31
35	29	33
16	21	17
16	21	17
35	29	33
50	42	31
43	37	23
35	29	33
50	42	31
53	44	39
35	29	33
43	37	23
43	37	23
43	37	23
53	44	39
53	44	39
50	42	31
50	42	31
66	55	51
53	44	39
53	44	39
53	44	39
53	44	39
50	42	31
53	44	39
53	44	39
35	29	33
35	29	33
53	44	39
53	44	39
35	29	33
50	42	31
35	29	33
35	29	33
35	29	33
35	29	33
53	44	39
53	44	39
50	42	31
50	42	31
53	44	39
80	68	52
53	44	39
53	44	39
35	29	33
35	29	33
35	29	33
35	29	33
35	29	33
35	29	33
43	37	23
43	37	23
53	44	39
53	44	39
53	44	39
53	44	39
53	44	39
66	55	51
35	29	33
35	29	33
35	29	33
43	37	23
53	44	39
53	44	39
50	42	31
35	29	33
16	21	17
16	21	17
35	29	33
43	37	23
43	37	23
35	29	33
43	37	23
53	44	39
35	29	33
35	29	33
43	37	23
43	37	23
35	29	33
43	37	23
50	42	31
35	29	33
43	37	23
35	29	33
53	44	39
53	44	39
53	44	39
43	37	23
66	55	51
80	68	52
53	44	39
50	42	31
53	44	39
53	44	39
35	29	33
43	37	23
50	42	31
53	44	39
53	44	39
53	44	39
53	44	39
53	44	39
53	44	39
43	37	23
43	37	23
66	55	51
35	29	33
50	42	31
43	37	23
43	37	23
35	29	33
43	37	23
16	21	17
35	29	33
35	29	33
43	37	23
53	44	39
53	44	39
53	44	39
50	42	31
53	44	39
80	68	52
35	29	33
35	29	33
43	37	23
35	29	33
35	29	33
53	44	39
53	44	39
35	29	33
16	21	17
16	21	17
43	37	23
43	37	23
50	42	31
16	21	17
35	29	33
53	44	39
35	29	33
35	29	33
43	37	23
43	37	23
43	37	23
43	37	23
35	29	33
50	42	31
50	42	31
35	29	33
50	42	31
53	44	39
53	44	39
43	37	23
53	44	39
80	68	52
66	55	51
50	42	31
53	44	39
53	44	39
35	29	33
50	42	31
35	29	33
43	37	23
53	44	39
53	44	39
53	44	39
53	44	39
50	42	31
43	37	23
53	44	39
53	44	39
50	42	31
35	29	33
43	37	23
35	29	33
43	37	23
35	29	33
35	29	33
35	29	33
50	42	31
35	29	33
50	42	31
35	29	33
35	29	33
35	29	33
53	44	39
72	58	45
43	37	23
43	37	23
35	29	33
35	29	33
35	29	33
43	37	23
35	29	33
35	29	33
16	21	17
16	21	17
35	29	33
35	29	33
35	29	33
16	21	17
35	29	33
43	37	23
35	29	33
35	29	33
16	21	17
43	37	23
35	29	33
35	29	33
35	29	33
35	29	33
16	21	17
35	29	33
16	21	17
43	37	23
35	29	33
35	29	33
43	37	23
53	44	39
35	29	33
35	29	33
43	37	23
43	37	23
35	29	33
35	29	33
43	37	23
43	37	23
43	37	23
43	37	23
35	29	33
35	29	33
43	37	23
43	37	23
43	37	23
53	44	39
53	44	39
43	37	23
53	44	39
50	42	31
50	42	31
66	55	51
16	21	17
16	21	17
16	21	17
16	21	17
35	29	33
16	21	17
35	29	33
35	29	33
50	42	31
43	37	23
35	29	33
35	29	33
16	21	17
16	21	17
16	21	17
35	29	33
16	21	17
16	21	17
16	21	17
16	21	17
16	21	17
16	21	17
16	21	17
16	21	17
16	21	17
16	21	17
16	21	17
16	21	17
16	21	17
16	21	17
16	21	17
16	21	17
16	21	17
16	21	17
16	21	17
16	21	17
16	21	17
16	21	17
16	21	17
16	21	17
35	29	33
16	21	17
16	21	17
16	21	17
35	29	33
35	29	33
16	21	17
16	21	17
16	21	17
16	21	17
16	21	17
16	21	17
35	29	33
35	29	33
35	29	33
35	29	33
50	42	31
16	21	17
16	21	17
16	21	17
16	21	17
16	21	17
35	29	33
35	29	33
