P3
64 64
255
50	42	31
82	39	46
82	39	46
50	42	31
82	39	46
82	39	46
50	42	31
82	39	46
66	55	51
66	55	51
50	42	31
50	42	31
50	42	31
50	42	31
66	55	51
66	55	51
82	39	46
82	39	46
82	39	46
50	42	31
53	44	39
72	58	45
53	44	39
72	58	45
50	42	31
50	42	31
82	39	46
50	42	31
82	39	46
82	39	46
82	39	46
50	42	31
82	39	46
82	39	46
93	46	56
82	39	46
82	39	46
72	58	45
72	58	45
66	55	51
72	58	45
82	39	46
66	55	51
66	55	51
53	44	39
66	55	51
82	39	46
82	39	46
53	44	39
53	44	39
53	44	39
53	44	39
53	44	39
72	58	45
53	44	39
53	44	39
53	44	39
53	44	39
53	44	39
50	42	31
50	42	31
82	39	46
82	39	46
50	42	31
50	42	31
72	58	45
106	55	62
106	55	62
106	55	62
72	60	48
72	58	45
72	58	45
72	58	45
80	68	52
72	58	45
72	58	45
80	68	52
72	58	45
72	58	45
90	72	58
53	44	39
72	60	48
72	58	45
72	58	45
72	58	45
72	58	45
72	58	45
72	58	45
53	44	39
82	39	46
82	39	46
82	39	46
72	60	48
66	55	51
80	68	52
66	55	51
82	39	46
80	68	52
80	68	52
72	58	45
106	55	62
106	55	62
90	72	58
90	72	58
72	58	45
72	58	45
90	72	58
90	72	58
72	58	45
72	58	45
72	58	45
72	58	45
53	44	39
53	44	39
66	55	51
72	58	45
72	60	48
72	58	45
72	58	45
72	58	45
72	58	45
53	44	39
72	58	45
82	39	46
72	58	45
72	58	45
82	39	46
66	55	51
53	44	39
53	44	39
82	39	46
82	39	46
82	39	46
72	58	45
82	39	46
72	58	45
53	44	39
53	44	39
53	44	39
53	44	39
53	44	39
72	58	45
82	39	46
50	42	31
53	44	39
93	46	56
53	44	39
72	58	45
72	58	45
82	39	46
50	42	31
50	42	31
53	44	39
53	44	39
35	29	33
53	44	39
82	39	46
53	44	39
53	44	39
35	29	33
53	44	39
72	58	45
53	44	39
53	44	39
53	44	39
72	58	45
53	44	39
72	58	45
53	44	39
72	58	45
72	58	45
72	58	45
72	58	45
72	58	45
53	44	39
53	44	39
53	44	39
72	58	45
53	44	39
82	39	46
82	39	46
72	58	45
53	44	39
53	44	39
34	31	24
53	44	39
53	44	39
53	44	39
72	60	48
72	60	48
72	58	45
72	58	45
43	37	23
82	39	46
53	44	39
53	44	39
53	44	39
50	42	31
82	39	46
82	39	46
82	39	46
82	39	46
53	44	39
53	44	39
50	42	31
53	44	39
50	42	31
50	42	31
82	39	46
80	68	52
82	39	46
82	39	46
50	42	31
82	39	46
50	42	31
50	42	31
50	42	31
53	44	39
35	29	33
50	42	31
50	42	31
72	58	45
53	44	39
35	29	33
53	44	39
72	58	45
82	39	46
66	55	51
50	42	31
82	39	46
82	39	46
82	39	46
82	39	46
72	58	45
72	58	45
82	39	46
72	58	45
82	39	46
50	42	31
53	44	39
82	39	46
93	46	56
72	58	45
82	39	46
82	39	46
53	44	39
53	44	39
50	42	31
50	42	31
53	44	39
72	58	45
53	44	39
66	55	51
82	39	46
93	46	56
72	58	45
43	37	23
82	39	46
50	42	31
50	42	31
50	42	31
50	42	31
82	39	46
82	39	46
82	39	46
53	44	39
72	58	45
66	55	51
50	42	31
53	44	39
50	42	31
82	39	46
66	55	51
80	68	52
50	42	31
82	39	46
50	42	31
50	42	31
50	42	31
50	42	31
34	31	24
50	42	31
50	42	31
50	42	31
53	44	39
72	58	45
72	58	45
34	31	24
53	44	39
93	46	56
93	46	56
72	60	48
82	39	46
82	39	46
82	39	46
82	39	46
82	39	46
53	44	39
53	44	39
82	39	46
53	44	39
82	39	46
50	42	31
50	42	31
82	39	46
82	39	46
50	42	31
82	39	46
82	39	46
82	39	46
82	39	46
50	42	31
50	42	31
50	42	31
53	44	39
50	42	31
82	39	46
82	39	46
82	39	46
82	39	46
43	37	23
82	39	46
50	42	31
53	44	39
50	42	31
50	42	31
82	39	46
82	39	46
50	42	31
53	44	39
72	58	45
72	58	45
82	39	46
50	42	31
50	42	31
82	39	46
50	42	31
72	60	48
82	39	46
82	39	46
82	39	46
82	39	46
82	39	46
50	42	31
34	31	24
43	37	23
35	29	33
35	29	33
72	58	45
53	44	39
72	58	45
34	31	24
82	39	46
93	46	56
82	39	46
50	42	31
82	39	46
50	42	31
82	39	46
82	39	46
82	39	46
53	44	39
53	44	39
82	39	46
50	42	31
82	39	46
82	39	46
50	42	31
82	39	46
82	39	46
50	42	31
50	42	31
50	42	31
82	39	46
82	39	46
82	39	46
50	42	31
50	42	31
53	44	39
72	60	48
72	60	48
82	39	46
50	42	31
50	42	31
50	42	31
82	39	46
50	42	31
50	42	31
50	42	31
82	39	46
66	55	51
66	55	51
82	39	46
82	39	46
72	58	45
66	55	51
66	55	51
66	55	51
50	42	31
82	39	46
50	42	31
66	55	51
50	42	31
50	42	31
50	42	31
50	42	31
50	42	31
50	42	31
82	39	46
82	39	46
53	44	39
53	44	39
53	44	39
72	58	45
53	44	39
43	37	23
53	44	39
66	55	51
93	46	56
72	60	48
93	46	56
82	39	46
82	39	46
82	39	46
82	39	46
53	44	39
72	58	45
50	42	31
82	39	46
82	39	46
50	42	31
50	42	31
82	39	46
66	55	51
50	42	31
50	42	31
50	42	31
82	39	46
82	39	46
50	42	31
50	42	31
82	39	46
82	39	46
82	39	46
82	39	46
82	39	46
93	46	56
50	42	31
50	42	31
34	31	24
34	31	24
34	31	24
34	31	24
34	31	24
50	42	31
82	39	46
50	42	31
53	44	39
53	44	39
50	42	31
82	39	46
50	42	31
50	42	31
50	42	31
50	42	31
26	26	26
34	31	24
34	31	24
26	26	26
26	26	26
26	26	26
26	26	26
50	42	31
50	42	31
34	31	24
26	26	26
34	31	24
34	31	24
26	26	26
26	26	26
50	42	31
34	31	24
50	42	31
82	39	46
43	37	23
34	31	24
34	31	24
43	37	23
34	31	24
34	31	24
43	37	23
50	42	31
50	42	31
50	42	31
50	42	31
50	42	31
82	39	46
43	37	23
26	26	26
26	26	26
34	31	24
34	31	24
43	37	23
43	37	23
43	37	23
43	37	23
43	37	23
43	37	23
43	37	23
34	31	24
34	31	24
34	31	24
53	44	39
53	44	39
72	58	45
72	58	45
72	58	45
72	58	45
72	60	48
82	39	46
72	60	48
72	58	45
72	58	45
82	39	46
82	39	46
72	58	45
53	44	39
82	39	46
82	39	46
82	39	46
53	44	39
53	44	39
82	39	46
50	42	31
82	39	46
72	60	48
72	60	48
72	60	48
82	39	46
72	58	45
72	58	45
66	55	51
82	39	46
82	39	46
53	44	39
82	39	46
82	39	46
72	60	48
53	44	39
82	39	46
53	44	39
72	58	45
72	58	45
66	55	51
82	39	46
82	39	46
82	39	46
82	39	46
53	44	39
66	55	51
82	39	46
82	39	46
82	39	46
82	39	46
82	39	46
53	44	39
82	39	46
50	42	31
50	42	31
50	42	31
53	44	39
50	42	31
53	44	39
82	39	46
82	39	46
53	44	39
72	58	45
53	44	39
90	72	58
72	58	45
90	72	58
72	58	45
90	72	58
72	58	45
72	58	45
90	72	58
72	58	45
80	68	52
72	58	45
72	58	45
53	44	39
72	58	45
72	60	48
72	58	45
72	60	48
82	39	46
66	55	51
72	60	48
72	60	48
72	58	45
72	60	48
106	55	62
72	60	48
119	65	63
80	68	52
119	65	63
80	68	52
72	58	45
72	60	48
80	68	52
106	55	62
90	72	58
90	72	58
72	60	48
72	60	48
72	58	45
72	58	45
90	72	58
72	58	45
90	72	58
72	60	48
72	58	45
72	58	45
72	60	48
72	60	48
72	58	45
90	72	58
72	60	48
80	68	52
82	39	46
72	60	48
72	60	48
72	58	45
72	58	45
72	58	45
80	68	52
106	55	62
106	55	62
72	58	45
72	58	45
53	44	39
53	44	39
53	44	39
53	44	39
53	44	39
53	44	39
53	44	39
35	29	33
53	44	39
80	68	52
50	42	31
34	31	24
53	44	39
50	42	31
53	44	39
82	39	46
53	44	39
53	44	39
53	44	39
53	44	39
82	39	46
53	44	39
82	39	46
53	44	39
72	58	45
72	58	45
53	44	39
72	58	45
72	58	45
72	58	45
53	44	39
53	44	39
53	44	39
53	44	39
53	44	39
53	44	39
53	44	39
50	42	31
53	44	39
53	44	39
72	58	45
72	58	45
82	39	46
82	39	46
66	55	51
53	44	39
82	39	46
72	58	45
50	42	31
53	44	39
53	44	39
82	39	46
50	42	31
53	44	39
72	58	45
82	39	46
93	46	56
72	58	45
53	44	39
50	42	31
82	39	46
53	44	39
53	44	39
53	44	39
53	44	39
82	39	46
50	42	31
50	42	31
53	44	39
53	44	39
50	42	31
43	37	23
50	42	31
93	46	56
53	44	39
82	39	46
50	42	31
82	39	46
53	44	39
82	39	46
50	42	31
50	42	31
82	39	46
82	39	46
50	42	31
82	39	46
82	39	46
50	42	31
82	39	46
106	55	62
50	42	31
53	44	39
82	39	46
72	58	45
53	44	39
53	44	39
53	44	39
53	44	39
82	39	46
53	44	39
53	44	39
53	44	39
53	44	39
53	44	39
72	58	45
66	55	51
50	42	31
82	39	46
53	44	39
53	44	39
82	39	46
82	39	46
50	42	31
53	44	39
50	42	31
82	39	46
50	42	31
53	44	39
53	44	39
50	42	31
66	55	51
82	39	46
50	42	31
50	42	31
82	39	46
53	44	39
53	44	39
53	44	39
50	42	31
50	42	31
82	39	46
82	39	46
53	44	39
53	44	39
72	58	45
82	39	46
72	58	45
72	60	48
82	39	46
93	46	56
82	39	46
72	58	45
72	58	45
93	46	56
80	68	52
72	58	45
72	60	48
82	39	46
82	39	46
82	39	46
72	58	45
72	58	45
93	46	56
80	68	52
93	46	56
82	39	46
93	46	56
72	58	45
82	39	46
82	39	46
72	58	45
72	60	48
50	42	31
72	58	45
53	44	39
53	44	39
35	29	33
35	29	33
53	44	39
72	58	45
53	44	39
50	42	31
82	39	46
53	44	39
53	44	39
53	44	39
53	44	39
53	44	39
50	42	31
50	42	31
82	39	46
50	42	31
50	42	31
53	44	39
66	55	51
82	39	46
82	39	46
50	42	31
53	44	39
53	44	39
53	44	39
53	44	39
50	42	31
72	58	45
82	39	46
50	42	31
50	42	31
53	44	39
53	44	39
53	44	39
72	58	45
72	60	48
82	39	46
93	46	56
93	46	56
72	58	45
72	58	45
82	39	46
93	46	56
80	68	52
82	39	46
72	58	45
93	46	56
72	58	45
72	58	45
72	58	45
72	58	45
84	75	60
72	58	45
82	39	46
72	58	45
72	58	45
82	39	46
82	39	46
72	58	45
80	68	52
72	58	45
72	58	45
72	58	45
53	44	39
35	29	33
50	42	31
72	58	45
72	58	45
53	44	39
82	39	46
82	39	46
53	44	39
53	44	39
50	42	31
50	42	31
72	58	45
82	39	46
82	39	46
50	42	31
50	42	31
66	55	51
53	44	39
66	55	51
53	44	39
50	42	31
53	44	39
53	44	39
72	58	45
53	44	39
53	44	39
50	42	31
82	39	46
50	42	31
50	42	31
82	39	46
82	39	46
53	44	39
82	39	46
72	58	45
72	58	45
93	46	56
72	58	45
72	58	45
53	44	39
53	44	39
50	42	31
82	39	46
53	44	39
53	44	39
72	58	45
93	46	56
82	39	46
72	58	45
72	58	45
72	58	45
80	68	52
93	46	56
93	46	56
93	46	56
82	39	46
72	58	45
82	39	46
93	46	56
90	72	58
93	46	56
72	58	45
72	58	45
72	58	45
53	44	39
50	42	31
53	44	39
72	58	45
53	44	39
53	44	39
50	42	31
35	29	33
53	44	39
53	44	39
66	55	51
50	42	31
72	60	48
66	55	51
66	55	51
66	55	51
53	44	39
50	42	31
66	55	51
53	44	39
50	42	31
53	44	39
53	44	39
72	58	45
72	58	45
53	44	39
34	31	24
50	42	31
34	31	24
34	31	24
50	42	31
34	31	24
50	42	31
50	42	31
82	39	46
50	42	31
50	42	31
82	39	46
34	31	24
34	31	24
50	42	31
34	31	24
50	42	31
50	42	31
34	31	24
50	42	31
82	39	46
82	39	46
82	39	46
82	39	46
66	55	51
82	39	46
50	42	31
82	39	46
50	42	31
50	42	31
82	39	46
82	39	46
50	42	31
50	42	31
82	39	46
43	37	23
43	37	23
34	31	24
34	31	24
34	31	24
43	37	23
26	26	26
34	31	24
34	31	24
34	31	24
26	26	26
35	29	33
34	31	24
82	39	46
50	42	31
50	42	31
50	42	31
82	39	46
82	39	46
50	42	31
34	31	24
82	39	46
82	39	46
50	42	31
82	39	46
50	42	31
82	39	46
82	39	46
50	42	31
82	39	46
66	55	51
82	39	46
82	39	46
66	55	51
82	39	46
72	60	48
82	39	46
66	55	51
66	55	51
50	42	31
50	42	31
66	55	51
66	55	51
82	39	46
82	39	46
82	39	46
82	39	46
66	55	51
82	39	46
82	39	46
82	39	46
72	60	48
72	60	48
72	60	48
82	39	46
72	58	45
72	60	48
72	58	45
72	60	48
72	60	48
72	60	48
72	60	48
72	60	48
66	55	51
82	39	46
82	39	46
82	39	46
50	42	31
82	39	46
82	39	46
50	42	31
53	44	39
53	44	39
53	44	39
53	44	39
53	44	39
53	44	39
72	60	48
72	58	45
66	55	51
66	55	51
66	55	51
72	60	48
82	39	46
66	55	51
93	46	56
119	65	63
106	55	62
72	60	48
72	60	48
72	60	48
66	55	51
66	55	51
82	39	46
90	72	58
72	58	45
72	60	48
119	65	63
72	60	48
119	65	63
106	55	62
72	58	45
90	72	58
72	58	45
90	72	58
119	65	63
72	58	45
72	58	45
53	44	39
82	39	46
134	80	70
119	65	63
119	65	63
90	72	58
90	72	58
119	65	63
119	65	63
90	72	58
119	65	63
90	72	58
106	55	62
106	55	62
90	72	58
72	58	45
72	60	48
66	55	51
72	60	48
72	60	48
72	60	48
72	60	48
72	60	48
72	58	45
72	58	45
72	58	45
80	68	52
82	39	46
82	39	46
72	58	45
72	58	45
72	58	45
53	44	39
66	55	51
106	55	62
80	68	52
80	68	52
80	68	52
106	55	62
106	55	62
106	55	62
90	72	58
106	55	62
72	60	48
106	55	62
106	55	62
106	55	62
72	60	48
72	60	48
72	58	45
93	46	56
82	39	46
53	44	39
72	58	45
72	58	45
50	42	31
82	39	46
66	55	51
53	44	39
53	44	39
53	44	39
72	58	45
72	58	45
72	58	45
53	44	39
72	58	45
90	72	58
53	44	39
72	58	45
53	44	39
53	44	39
72	58	45
50	42	31
72	58	45
90	72	58
72	58	45
90	72	58
90	72	58
72	58	45
72	58	45
53	44	39
72	58	45
82	39	46
50	42	31
50	42	31
53	44	39
82	39	46
50	42	31
53	44	39
53	44	39
82	39	46
53	44	39
53	44	39
53	44	39
53	44	39
53	44	39
43	37	23
72	58	45
90	72	58
72	58	45
72	58	45
72	58	45
72	58	45
72	58	45
72	60	48
72	58	45
72	60	48
53	44	39
53	44	39
72	58	45
72	58	45
53	44	39
53	44	39
50	42	31
66	55	51
82	39	46
82	39	46
66	55	51
66	55	51
82	39	46
82	39	46
82	39	46
53	44	39
53	44	39
53	44	39
72	58	45
66	55	51
66	55	51
82	39	46
93	46	56
72	58	45
72	58	45
53	44	39
53	44	39
53	44	39
53	44	39
50	42	31
72	60	48
72	58	45
53	44	39
72	58	45
53	44	39
53	44	39
72	58	45
50	42	31
53	44	39
66	55	51
50	42	31
82	39	46
72	58	45
53	44	39
53	44	39
50	42	31
53	44	39
82	39	46
53	44	39
72	58	45
53	44	39
53	44	39
50	42	31
43	37	23
72	60	48
106	55	62
106	55	62
106	55	62
72	60	48
72	60	48
72	58	45
82	39	46
72	60	48
66	55	51
53	44	39
50	42	31
72	60	48
72	60	48
50	42	31
53	44	39
43	37	23
66	55	51
50	42	31
82	39	46
50	42	31
50	42	31
82	39	46
50	42	31
50	42	31
35	29	33
53	44	39
53	44	39
53	44	39
66	55	51
66	55	51
82	39	46
66	55	51
72	58	45
82	39	46
82	39	46
50	42	31
82	39	46
50	42	31
50	42	31
82	39	46
53	44	39
53	44	39
53	44	39
53	44	39
53	44	39
72	58	45
50	42	31
53	44	39
72	58	45
53	44	39
53	44	39
53	44	39
50	42	31
50	42	31
82	39	46
50	42	31
82	39	46
72	58	45
72	58	45
53	44	39
50	42	31
82	39	46
43	37	23
82	39	46
72	60	48
82	39	46
82	39	46
72	58	45
50	42	31
72	58	45
50	42	31
82	39	46
72	60	48
72	58	45
72	60	48
72	58	45
82	39	46
72	58	45
72	58	45
43	37	23
82	39	46
82	39	46
82	39	46
50	42	31
35	29	33
50	42	31
50	42	31
50	42	31
35	29	33
53	44	39
53	44	39
53	44	39
66	55	51
66	55	51
53	44	39
82	39	46
80	68	52
82	39	46
82	39	46
82	39	46
53	44	39
50	42	31
50	42	31
53	44	39
53	44	39
53	44	39
53	44	39
53	44	39
53	44	39
72	58	45
50	42	31
53	44	39
72	58	45
50	42	31
50	42	31
53	44	39
50	42	31
53	44	39
50	42	31
50	42	31
82	39	46
72	60	48
50	42	31
82	39	46
50	42	31
50	42	31
34	31	24
82	39	46
82	39	46
82	39	46
82	39	46
82	39	46
50	42	31
50	42	31
82	39	46
72	58	45
53	44	39
72	58	45
72	58	45
72	58	45
93	46	56
82	39	46
53	44	39
43	37	23
66	55	51
50	42	31
50	42	31
50	42	31
34	31	24
43	37	23
50	42	31
82	39	46
53	44	39
53	44	39
82	39	46
82	39	46
50	42	31
50	42	31
50	42	31
82	39	46
93	46	56
82	39	46
82	39	46
82	39	46
82	39	46
82	39	46
82	39	46
82	39	46
82	39	46
72	58	45
72	58	45
72	58	45
72	58	45
72	58	45
50	42	31
66	55	51
72	60	48
53	44	39
53	44	39
53	44	39
53	44	39
43	37	23
82	39	46
53	44	39
53	44	39
53	44	39
82	39	46
50	42	31
82	39	46
50	42	31
34	31	24
50	42	31
53	44	39
53	44	39
50	42	31
53	44	39
53	44	39
53	44	39
50	42	31
50	42	31
53	44	39
53	44	39
50	42	31
50	42	31
50	42	31
50	42	31
50	42	31
50	42	31
34	31	24
34	31	24
34	31	24
34	31	24
34	31	24
50	42	31
43	37	23
34	31	24
50	42	31
50	42	31
50	42	31
50	42	31
50	42	31
50	42	31
34	31	24
82	39	46
82	39	46
50	42	31
50	42	31
50	42	31
50	42	31
50	42	31
50	42	31
50	42	31
50	42	31
50	42	31
50	42	31
50	42	31
50	42	31
50	42	31
50	42	31
66	55	51
82	39	46
43	37	23
50	42	31
34	31	24
34	31	24
26	26	26
26	26	26
35	29	33
35	29	33
34	31	24
34	31	24
26	26	26
26	26	26
26	26	26
26	26	26
50	42	31
50	42	31
50	42	31
43	37	23
43	37	23
43	37	23
26	26	26
26	26	26
34	31	24
16	21	17
26	26	26
26	26	26
26	26	26
26	26	26
34	31	24
34	31	24
82	39	46
82	39	46
50	42	31
66	55	51
106	55	62
72	60	48
72	58	45
72	60	48
82	39	46
82	39	46
72	58	45
66	55	51
72	60	48
72	60	48
72	60	48
82	39	46
82	39	46
72	60	48
72	58	45
72	58	45
72	58	45
66	55	51
72	58	45
72	58	45
50	42	31
66	55	51
82	39	46
66	55	51
82	39	46
66	55	51
82	39	46
82	39	46
82	39	46
82	39	46
82	39	46
82	39	46
66	55	51
82	39	46
50	42	31
53	44	39
82	39	46
50	42	31
82	39	46
82	39	46
82	39	46
53	44	39
82	39	46
82	39	46
82	39	46
66	55	51
66	55	51
66	55	51
72	60	48
72	60	48
93	46	56
72	60	48
72	60	48
80	68	52
93	46	56
66	55	51
82	39	46
66	55	51
82	39	46
82	39	46
82	39	46
72	58	45
106	55	62
119	65	63
119	65	63
119	65	63
106	87	80
106	55	62
50	42	31
72	60	48
72	60	48
72	60	48
106	55	62
72	60	48
72	60	48
72	60	48
72	58	45
119	65	63
106	55	62
72	58	45
72	60	48
106	55	62
90	72	58
106	55	62
66	55	51
119	65	63
106	55	62
90	72	58
119	65	63
90	72	58
80	68	52
72	58	45
72	58	45
82	39	46
72	58	45
106	55	62
119	65	63
106	55	62
72	58	45
72	60	48
82	39	46
72	58	45
106	55	62
80	68	52
72	58	45
72	58	45
82	39	46
80	68	52
72	58	45
90	72	58
106	55	62
80	68	52
119	65	63
80	68	52
90	72	58
80	68	52
72	60	48
119	65	63
84	75	60
90	72	58
84	75	60
72	58	45
72	58	45
72	58	45
82	39	46
50	42	31
53	44	39
72	58	45
72	58	45
53	44	39
53	44	39
53	44	39
53	44	39
72	58	45
72	58	45
82	39	46
53	44	39
53	44	39
50	42	31
50	42	31
53	44	39
82	39	46
53	44	39
53	44	39
50	42	31
72	58	45
82	39	46
53	44	39
72	58	45
80	68	52
53	44	39
53	44	39
53	44	39
82	39	46
53	44	39
53	44	39
53	44	39
53	44	39
53	44	39
53	44	39
53	44	39
53	44	39
53	44	39
50	42	31
53	44	39
72	58	45
50	42	31
53	44	39
53	44	39
82	39	46
53	44	39
50	42	31
72	58	45
80	68	52
72	58	45
72	58	45
72	58	45
53	44	39
53	44	39
53	44	39
72	58	45
72	58	45
72	58	45
72	58	45
72	58	45
82	39	46
72	58	45
72	58	45
50	42	31
53	44	39
72	58	45
50	42	31
82	39	46
50	42	31
53	44	39
82	39	46
50	42	31
66	55	51
82	39	46
82	39	46
50	42	31
50	42	31
50	42	31
50	42	31
66	55	51
82	39	46
82	39	46
53	44	39
53	44	39
82	39	46
53	44	39
53	44	39
53	44	39
72	58	45
53	44	39
53	44	39
82	39	46
53	44	39
53	44	39
72	58	45
82	39	46
66	55	51
66	55	51
72	58	45
53	44	39
82	39	46
82	39	46
50	42	31
66	55	51
80	68	52
53	44	39
53	44	39
82	39	46
50	42	31
53	44	39
82	39	46
82	39	46
80	68	52
106	55	62
80	68	52
93	46	56
50	42	31
50	42	31
50	42	31
53	44	39
72	60	48
82	39	46
66	55	51
82	39	46
82	39	46
82	39	46
72	58	45
50	42	31
50	42	31
66	55	51
66	55	51
50	42	31
50	42	31
82	39	46
50	42	31
82	39	46
72	58	45
82	39	46
53	44	39
50	42	31
50	42	31
53	44	39
72	58	45
82	39	46
82	39	46
72	58	45
72	58	45
72	60	48
72	60	48
66	55	51
53	44	39
53	44	39
72	58	45
53	44	39
53	44	39
53	44	39
53	44	39
53	44	39
82	39	46
53	44	39
82	39	46
82	39	46
53	44	39
53	44	39
72	58	45
72	58	45
82	39	46
72	58	45
72	58	45
53	44	39
53	44	39
53	44	39
82	39	46
72	58	45
50	42	31
72	58	45
93	46	56
106	55	62
106	55	62
93	46	56
50	42	31
82	39	46
50	42	31
53	44	39
72	60	48
50	42	31
82	39	46
50	42	31
50	42	31
82	39	46
53	44	39
50	42	31
50	42	31
66	55	51
66	55	51
82	39	46
82	39	46
82	39	46
50	42	31
82	39	46
72	58	45
53	44	39
53	44	39
53	44	39
53	44	39
53	44	39
82	39	46
66	55	51
72	58	45
72	58	45
72	58	45
72	58	45
53	44	39
66	55	51
53	44	39
72	58	45
72	58	45
53	44	39
53	44	39
53	44	39
53	44	39
53	44	39
82	39	46
53	44	39
82	39	46
72	58	45
53	44	39
50	42	31
82	39	46
53	44	39
82	39	46
72	60	48
72	58	45
82	39	46
53	44	39
82	39	46
82	39	46
72	58	45
72	58	45
82	39	46
93	46	56
80	68	52
106	55	62
72	58	45
50	42	31
82	39	46
50	42	31
82	39	46
66	55	51
50	42	31
53	44	39
50	42	31
66	55	51
53	44	39
53	44	39
53	44	39
82	39	46
82	39	46
82	39	46
50	42	31
82	39	46
53	44	39
53	44	39
82	39	46
93	46	56
53	44	39
53	44	39
53	44	39
53	44	39
53	44	39
50	42	31
53	44	39
82	39	46
72	58	45
72	58	45
72	58	45
93	46	56
82	39	46
50	42	31
82	39	46
66	55	51
82	39	46
82	39	46
82	39	46
50	42	31
53	44	39
50	42	31
50	42	31
50	42	31
50	42	31
50	42	31
50	42	31
50	42	31
82	39	46
50	42	31
82	39	46
93	46	56
93	46	56
82	39	46
50	42	31
82	39	46
72	58	45
72	58	45
53	44	39
66	55	51
66	55	51
66	55	51
82	39	46
50	42	31
82	39	46
53	44	39
50	42	31
66	55	51
50	42	31
66	55	51
72	58	45
50	42	31
50	42	31
72	58	45
35	29	33
34	31	24
34	31	24
34	31	24
50	42	31
34	31	24
34	31	24
50	42	31
82	39	46
34	31	24
26	26	26
26	26	26
26	26	26
26	26	26
34	31	24
35	29	33
34	31	24
34	31	24
53	44	39
35	29	33
50	42	31
34	31	24
34	31	24
34	31	24
82	39	46
50	42	31
50	42	31
50	42	31
50	42	31
50	42	31
50	42	31
35	29	33
43	37	23
43	37	23
43	37	23
43	37	23
43	37	23
43	37	23
43	37	23
43	37	23
82	39	46
43	37	23
26	26	26
26	26	26
34	31	24
34	31	24
34	31	24
34	31	24
43	37	23
82	39	46
43	37	23
43	37	23
34	31	24
34	31	24
34	31	24
43	37	23
82	39	46
34	31	24
34	31	24
34	31	24
34	31	24
34	31	24
34	31	24
35	29	33
66	55	51
66	55	51
66	55	51
93	46	56
93	46	56
93	46	56
72	60	48
72	60	48
82	39	46
82	39	46
72	60	48
82	39	46
82	39	46
72	60	48
82	39	46
82	39	46
53	44	39
53	44	39
53	44	39
53	44	39
82	39	46
82	39	46
82	39	46
82	39	46
82	39	46
82	39	46
72	58	45
82	39	46
72	60	48
72	60	48
72	60	48
72	58	45
72	60	48
72	60	48
72	60	48
72	60	48
82	39	46
82	39	46
82	39	46
82	39	46
82	39	46
82	39	46
53	44	39
82	39	46
53	44	39
50	42	31
53	44	39
82	39	46
50	42	31
50	42	31
50	42	31
53	44	39
82	39	46
53	44	39
53	44	39
53	44	39
53	44	39
82	39	46
53	44	39
53	44	39
82	39	46
82	39	46
72	58	45
72	58	45
72	58	45
90	72	58
106	55	62
80	68	52
106	55	62
106	55	62
106	55	62
106	55	62
72	58	45
80	68	52
90	72	58
106	55	62
106	55	62
90	72	58
72	58	45
72	58	45
53	44	39
90	72	58
72	58	45
72	58	45
72	58	45
72	58	45
72	58	45
66	55	51
72	58	45
72	58	45
72	58	45
72	60	48
106	55	62
106	55	62
106	55	62
50	42	31
72	60	48
106	55	62
106	55	62
106	55	62
80	68	52
80	68	52
72	60	48
106	55	62
90	72	58
106	55	62
72	58	45
80	68	52
72	58	45
80	68	52
80	68	52
58	47	45
53	44	39
53	44	39
82	39	46
82	39	46
66	55	51
72	58	45
72	58	45
72	58	45
72	58	45
72	58	45
72	60	48
80	68	52
119	65	63
72	58	45
72	58	45
72	58	45
72	58	45
72	58	45
66	55	51
93	46	56
93	46	56
93	46	56
72	58	45
80	68	52
82	39	46
82	39	46
72	58	45
82	39	46
72	58	45
72	58	45
72	58	45
72	58	45
82	39	46
72	58	45
53	44	39
53	44	39
35	29	33
35	29	33
53	44	39
82	39	46
72	58	45
72	58	45
72	58	45
72	58	45
82	39	46
72	58	45
82	39	46
53	44	39
53	44	39
72	58	45
72	58	45
82	39	46
53	44	39
53	44	39
72	58	45
50	42	31
50	42	31
53	44	39
72	58	45
50	42	31
50	42	31
50	42	31
43	37	23
43	37	23
53	44	39
50	42	31
53	44	39
53	44	39
53	44	39
53	44	39
53	44	39
50	42	31
35	29	33
35	29	33
35	29	33
53	44	39
53	44	39
53	44	39
53	44	39
34	31	24
50	42	31
66	55	51
66	55	51
66	55	51
66	55	51
66	55	51
66	55	51
72	60	48
82	39	46
82	39	46
82	39	46
82	39	46
82	39	46
82	39	46
72	58	45
82	39	46
82	39	46
93	46	56
50	42	31
50	42	31
34	31	24
35	29	33
50	42	31
82	39	46
82	39	46
72	58	45
72	58	45
82	39	46
82	39	46
72	60	48
82	39	46
53	44	39
72	58	45
72	58	45
50	42	31
72	58	45
53	44	39
53	44	39
72	58	45
50	42	31
50	42	31
50	42	31
53	44	39
50	42	31
50	42	31
53	44	39
53	44	39
35	29	33
53	44	39
53	44	39
50	42	31
50	42	31
53	44	39
50	42	31
50	42	31
50	42	31
50	42	31
53	44	39
53	44	39
53	44	39
35	29	33
35	29	33
53	44	39
35	29	33
50	42	31
72	58	45
82	39	46
66	55	51
66	55	51
66	55	51
66	55	51
66	55	51
82	39	46
82	39	46
72	58	45
93	46	56
80	68	52
82	39	46
72	60	48
82	39	46
82	39	46
72	60	48
50	42	31
50	42	31
50	42	31
50	42	31
82	39	46
82	39	46
72	60	48
72	60	48
72	58	45
50	42	31
50	42	31
82	39	46
72	60	48
82	39	46
72	60	48
80	68	52
82	39	46
50	42	31
53	44	39
72	58	45
53	44	39
43	37	23
43	37	23
43	37	23
53	44	39
82	39	46
53	44	39
50	42	31
53	44	39
35	29	33
72	58	45
80	68	52
72	58	45
72	58	45
82	39	46
72	58	45
72	58	45
66	55	51
66	55	51
72	58	45
72	58	45
72	58	45
53	44	39
53	44	39
72	58	45
82	39	46
50	42	31
66	55	51
82	39	46
82	39	46
82	39	46
66	55	51
66	55	51
72	60	48
82	39	46
82	39	46
72	60	48
72	60	48
82	39	46
82	39	46
72	60	48
82	39	46
50	42	31
66	55	51
34	31	24
50	42	31
50	42	31
50	42	31
50	42	31
50	42	31
72	60	48
66	55	51
82	39	46
50	42	31
50	42	31
82	39	46
82	39	46
82	39	46
72	60	48
80	68	52
82	39	46
82	39	46
82	39	46
53	44	39
82	39	46
43	37	23
34	31	24
35	29	33
53	44	39
82	39	46
82	39	46
72	58	45
72	58	45
35	29	33
82	39	46
80	68	52
72	60	48
82	39	46
82	39	46
72	58	45
72	60	48
66	55	51
66	55	51
72	58	45
72	58	45
72	58	45
72	58	45
72	60	48
80	68	52
50	42	31
72	60	48
72	60	48
53	44	39
72	60	48
82	39	46
72	60	48
72	60	48
72	60	48
80	68	52
72	60	48
90	72	58
82	39	46
82	39	46
72	58	45
72	58	45
50	42	31
82	39	46
72	58	45
35	29	33
50	42	31
50	42	31
50	42	31
82	39	46
82	39	46
82	39	46
66	55	51
72	58	45
72	60	48
50	42	31
53	44	39
82	39	46
82	39	46
72	60	48
106	55	62
72	60	48
72	60	48
72	60	48
82	39	46
50	42	31
34	31	24
34	31	24
35	29	33
53	44	39
53	44	39
43	37	23
53	44	39
53	44	39
43	37	23
82	39	46
72	60	48
50	42	31
82	39	46
82	39	46
72	60	48
72	58	45
82	39	46
50	42	31
53	44	39
53	44	39
82	39	46
50	42	31
82	39	46
53	44	39
50	42	31
50	42	31
50	42	31
50	42	31
50	42	31
82	39	46
50	42	31
50	42	31
50	42	31
34	31	24
34	31	24
50	42	31
50	42	31
50	42	31
50	42	31
50	42	31
82	39	46
82	39	46
34	31	24
26	26	26
26	26	26
34	31	24
34	31	24
26	26	26
34	31	24
82	39	46
53	44	39
82	39	46
82	39	46
50	42	31
50	42	31
82	39	46
34	31	24
72	60	48
50	42	31
82	39	46
82	39	46
50	42	31
50	42	31
34	31	24
26	26	26
26	26	26
16	21	17
35	29	33
34	31	24
43	37	23
34	31	24
43	37	23
43	37	23
82	39	46
34	31	24
34	31	24
43	37	23
43	37	23
50	42	31
50	42	31
50	42	31
50	42	31
53	44	39
34	31	24
34	31	24
26	26	26
26	26	26
34	31	24
50	42	31
82	39	46
66	55	51
66	55	51
82	39	46
50	42	31
82	39	46
66	55	51
66	55	51
53	44	39
53	44	39
82	39	46
82	39	46
82	39	46
66	55	51
82	39	46
82	39	46
82	39	46
53	44	39
82	39	46
53	44	39
53	44	39
53	44	39
53	44	39
53	44	39
72	58	45
72	58	45
72	58	45
72	60	48
72	60	48
72	60	48
72	60	48
72	60	48
72	60	48
72	60	48
82	39	46
72	60	48
72	58	45
53	44	39
53	44	39
82	39	46
53	44	39
53	44	39
72	60	48
82	39	46
82	39	46
72	58	45
82	39	46
72	58	45
72	58	45
72	58	45
53	44	39
53	44	39
53	44	39
53	44	39
53	44	39
53	44	39
53	44	39
53	44	39
82	39	46
82	39	46
82	39	46
53	44	39
66	55	51
66	55	51
66	55	51
72	60	48
106	55	62
106	55	62
106	55	62
119	65	63
106	55	62
72	60	48
50	42	31
80	68	52
72	60	48
80	68	52
80	68	52
72	60	48
72	58	45
66	55	51
72	58	45
80	68	52
72	58	45
72	58	45
72	58	45
82	39	46
72	58	45
58	47	45
72	58	45
90	72	58
106	55	62
90	72	58
80	68	52
80	68	52
106	55	62
106	55	62
90	72	58
106	55	62
106	55	62
72	60	48
80	68	52
72	58	45
72	58	45
66	55	51
72	60	48
66	55	51
72	58	45
72	60	48
72	58	45
72	58	45
80	68	52
80	68	52
72	58	45
90	72	58
72	58	45
72	58	45
72	58	45
72	58	45
72	58	45
72	58	45
53	44	39
72	58	45
72	58	45
80	68	52
72	60	48
66	55	51
80	68	52
72	58	45
50	42	31
82	39	46
50	42	31
53	44	39
53	44	39
50	42	31
53	44	39
53	44	39
82	39	46
72	58	45
35	29	33
53	44	39
53	44	39
53	44	39
53	44	39
53	44	39
53	44	39
53	44	39
53	44	39
53	44	39
53	44	39
53	44	39
53	44	39
35	29	33
53	44	39
72	58	45
66	55	51
72	58	45
72	58	45
53	44	39
66	55	51
72	58	45
82	39	46
53	44	39
53	44	39
53	44	39
53	44	39
53	44	39
50	42	31
53	44	39
66	55	51
72	58	45
72	58	45
72	58	45
72	58	45
72	58	45
72	58	45
50	42	31
53	44	39
53	44	39
35	29	33
35	29	33
35	29	33
53	44	39
53	44	39
35	29	33
50	42	31
53	44	39
35	29	33
35	29	33
35	29	33
35	29	33
35	29	33
43	37	23
50	42	31
82	39	46
53	44	39
82	39	46
50	42	31
82	39	46
82	39	46
50	42	31
82	39	46
93	46	56
50	42	31
50	42	31
82	39	46
82	39	46
82	39	46
82	39	46
82	39	46
53	44	39
53	44	39
53	44	39
82	39	46
53	44	39
53	44	39
34	31	24
50	42	31
80	68	52
50	42	31
82	39	46
82	39	46
82	39	46
53	44	39
82	39	46
82	39	46
53	44	39
53	44	39
53	44	39
53	44	39
53	44	39
82	39	46
50	42	31
53	44	39
72	58	45
72	58	45
53	44	39
53	44	39
53	44	39
72	58	45
50	42	31
53	44	39
53	44	39
53	44	39
53	44	39
35	29	33
53	44	39
53	44	39
43	37	23
50	42	31
72	58	45
35	29	33
35	29	33
35	29	33
53	44	39
82	39	46
82	39	46
50	42	31
53	44	39
50	42	31
50	42	31
50	42	31
50	42	31
34	31	24
43	37	23
82	39	46
80	68	52
50	42	31
50	42	31
50	42	31
34	31	24
82	39	46
82	39	46
72	60	48
72	58	45
72	58	45
72	58	45
82	39	46
66	55	51
82	39	46
34	31	24
72	60	48
80	68	52
50	42	31
50	42	31
50	42	31
50	42	31
82	39	46
82	39	46
82	39	46
82	39	46
53	44	39
53	44	39
50	42	31
82	39	46
53	44	39
53	44	39
82	39	46
66	55	51
82	39	46
82	39	46
53	44	39
53	44	39
82	39	46
82	39	46
82	39	46
72	60	48
72	58	45
72	60	48
72	60	48
82	39	46
72	60	48
50	42	31
93	46	56
106	55	62
53	44	39
53	44	39
82	39	46
82	39	46
72	60	48
66	55	51
50	42	31
50	42	31
50	42	31
50	42	31
50	42	31
50	42	31
50	42	31
43	37	23
50	42	31
93	46	56
43	37	23
34	31	24
50	42	31
34	31	24
82	39	46
66	55	51
66	55	51
72	58	45
72	58	45
82	39	46
82	39	46
66	55	51
82	39	46
34	31	24
72	60	48
80	68	52
82	39	46
53	44	39
50	42	31
50	42	31
82	39	46
82	39	46
82	39	46
82	39	46
72	58	45
82	39	46
82	39	46
82	39	46
53	44	39
53	44	39
53	44	39
82	39	46
50	42	31
50	42	31
82	39	46
82	39	46
82	39	46
82	39	46
72	58	45
82	39	46
72	58	45
72	60	48
80	68	52
82	39	46
82	39	46
50	42	31
72	60	48
80	68	52
80	68	52
80	68	52
80	68	52
80	68	52
72	60	48
66	55	51
50	42	31
50	42	31
50	42	31
82	39	46
82	39	46
82	39	46
66	55	51
82	39	46
66	55	51
80	68	52
72	60	48
72	60	48
82	39	46
82	39	46
66	55	51
66	55	51
72	60	48
72	58	45
82	39	46
82	39	46
72	58	45
50	42	31
50	42	31
34	31	24
82	39	46
93	46	56
82	39	46
66	55	51
82	39	46
50	42	31
50	42	31
50	42	31
50	42	31
82	39	46
72	58	45
82	39	46
72	60	48
66	55	51
50	42	31
53	44	39
82	39	46
72	58	45
82	39	46
53	44	39
66	55	51
82	39	46
82	39	46
82	39	46
72	60	48
72	58	45
50	42	31
82	39	46
82	39	46
82	39	46
93	46	56
50	42	31
66	55	51
84	75	60
72	60	48
72	60	48
82	39	46
66	55	51
50	42	31
50	42	31
34	31	24
53	44	39
50	42	31
34	31	24
34	31	24
43	37	23
50	42	31
50	42	31
82	39	46
82	39	46
82	39	46
82	39	46
50	42	31
50	42	31
50	42	31
50	42	31
53	44	39
82	39	46
50	42	31
50	42	31
50	42	31
50	42	31
34	31	24
34	31	24
82	39	46
50	42	31
50	42	31
50	42	31
26	26	26
43	37	23
34	31	24
26	26	26
34	31	24
34	31	24
50	42	31
50	42	31
50	42	31
82	39	46
50	42	31
34	31	24
82	39	46
34	31	24
34	31	24
34	31	24
50	42	31
43	37	23
43	37	23
50	42	31
43	37	23
53	44	39
50	42	31
43	37	23
43	37	23
43	37	23
43	37	23
43	37	23
50	42	31
50	42	31
82	39	46
82	39	46
50	42	31
50	42	31
50	42	31
50	42	31
82	39	46
82	39	46
82	39	46
82	39	46
93	46	56
93	46	56
93	46	56
82	39	46
82	39	46
82	39	46
50	42	31
50	42	31
50	42	31
50	42	31
50	42	31
50	42	31
82	39	46
50	42	31
82	39	46
82	39	46
82	39	46
53	44	39
53	44	39
53	44	39
53	44	39
53	44	39
53	44	39
53	44	39
53	44	39
53	44	39
50	42	31
50	42	31
53	44	39
82	39	46
82	39	46
82	39	46
72	60	48
82	39	46
82	39	46
50	42	31
82	39	46
50	42	31
50	42	31
66	55	51
82	39	46
82	39	46
50	42	31
50	42	31
53	44	39
53	44	39
66	55	51
66	55	51
82	39	46
50	42	31
66	55	51
82	39	46
53	44	39
53	44	39
82	39	46
66	55	51
82	39	46
66	55	51
82	39	46
82	39	46
50	42	31
90	72	58
72	60	48
80	68	52
106	55	62
119	65	63
106	55	62
106	55	62
90	72	58
119	65	63
106	55	62
106	55	62
94	92	69
84	75	60
106	55	62
50	42	31
50	42	31
72	60	48
72	58	45
72	58	45
72	58	45
72	58	45
72	58	45
72	58	45
90	72	58
90	72	58
72	58	45
72	58	45
82	39	46
53	44	39
50	42	31
50	42	31
82	39	46
72	58	45
66	55	51
66	55	51
72	60	48
80	68	52
72	60	48
72	60	48
72	58	45
72	58	45
80	68	52
119	65	63
119	65	63
80	68	52
72	60	48
82	39	46
53	44	39
72	58	45
72	58	45
66	55	51
66	55	51
72	60	48
119	65	63
72	60	48
72	58	45
72	58	45
72	60	48
72	60	48
72	60	48
119	65	63
119	65	63
72	58	45
53	44	39
66	55	51
53	44	39
82	39	46
50	42	31
53	44	39
50	42	31
50	42	31
72	58	45
50	42	31
50	42	31
50	42	31
72	58	45
72	58	45
53	44	39
35	29	33
53	44	39
80	68	52
53	44	39
53	44	39
53	44	39
53	44	39
72	58	45
53	44	39
72	58	45
72	58	45
72	58	45
53	44	39
82	39	46
53	44	39
53	44	39
35	29	33
53	44	39
72	58	45
72	58	45
53	44	39
53	44	39
53	44	39
53	44	39
53	44	39
53	44	39
53	44	39
72	58	45
72	58	45
53	44	39
72	58	45
53	44	39
35	29	33
72	58	45
72	58	45
53	44	39
53	44	39
53	44	39
53	44	39
72	58	45
72	58	45
72	58	45
72	60	48
53	44	39
53	44	39
72	58	45
53	44	39
53	44	39
53	44	39
50	42	31
72	58	45
82	39	46
50	42	31
82	39	46
66	55	51
82	39	46
53	44	39
53	44	39
50	42	31
72	58	45
82	39	46
66	55	51
82	39	46
50	42	31
34	31	24
82	39	46
82	39	46
82	39	46
53	44	39
50	42	31
82	39	46
53	44	39
50	42	31
53	44	39
53	44	39
53	44	39
53	44	39
82	39	46
82	39	46
43	37	23
43	37	23
82	39	46
93	46	56
50	42	31
82	39	46
50	42	31
82	39	46
50	42	31
50	42	31
50	42	31
53	44	39
53	44	39
72	58	45
50	42	31
50	42	31
66	55	51
50	42	31
66	55	51
66	55	51
53	44	39
53	44	39
50	42	31
82	39	46
82	39	46
66	55	51
50	42	31
72	60	48
72	58	45
66	55	51
50	42	31
50	42	31
82	39	46
50	42	31
43	37	23
53	44	39
50	42	31
50	42	31
82	39	46
50	42	31
82	39	46
82	39	46
50	42	31
50	42	31
82	39	46
82	39	46
82	39	46
50	42	31
50	42	31
26	26	26
50	42	31
80	68	52
82	39	46
53	44	39
50	42	31
66	55	51
53	44	39
82	39	46
53	44	39
53	44	39
53	44	39
50	42	31
50	42	31
50	42	31
50	42	31
50	42	31
82	39	46
72	58	45
50	42	31
82	39	46
50	42	31
50	42	31
50	42	31
50	42	31
50	42	31
82	39	46
72	58	45
82	39	46
82	39	46
82	39	46
72	60	48
82	39	46
72	60	48
84	75	60
82	39	46
82	39	46
72	60	48
82	39	46
82	39	46
82	39	46
82	39	46
82	39	46
53	44	39
82	39	46
50	42	31
82	39	46
82	39	46
50	42	31
43	37	23
53	44	39
50	42	31
50	42	31
50	42	31
50	42	31
50	42	31
50	42	31
82	39	46
82	39	46
82	39	46
82	39	46
50	42	31
82	39	46
50	42	31
34	31	24
50	42	31
66	55	51
82	39	46
53	44	39
50	42	31
50	42	31
82	39	46
50	42	31
53	44	39
53	44	39
53	44	39
50	42	31
34	31	24
34	31	24
50	42	31
34	31	24
82	39	46
80	68	52
50	42	31
82	39	46
82	39	46
82	39	46
50	42	31
50	42	31
82	39	46
72	60	48
72	58	45
72	60	48
72	60	48
93	46	56
82	39	46
82	39	46
72	60	48
84	75	60
82	39	46
82	39	46
72	60	48
72	60	48
66	55	51
72	60	48
72	60	48
72	58	45
72	58	45
82	39	46
82	39	46
82	39	46
82	39	46
50	42	31
43	37	23
50	42	31
50	42	31
50	42	31
50	42	31
50	42	31
82	39	46
82	39	46
72	60	48
72	60	48
66	55	51
66	55	51
82	39	46
82	39	46
50	42	31
43	37	23
82	39	46
50	42	31
50	42	31
50	42	31
50	42	31
50	42	31
50	42	31
50	42	31
50	42	31
53	44	39
53	44	39
53	44	39
82	39	46
50	42	31
66	55	51
82	39	46
66	55	51
72	58	45
66	55	51
82	39	46
53	44	39
50	42	31
72	58	45
82	39	46
93	46	56
72	58	45
72	58	45
66	55	51
82	39	46
82	39	46
50	42	31
50	42	31
82	39	46
66	55	51
50	42	31
82	39	46
82	39	46
82	39	46
82	39	46
82	39	46
82	39	46
53	44	39
53	44	39
50	42	31
50	42	31
82	39	46
50	42	31
50	42	31
82	39	46
50	42	31
26	26	26
43	37	23
50	42	31
50	42	31
50	42	31
50	42	31
50	42	31
53	44	39
82	39	46
82	39	46
34	31	24
43	37	23
34	31	24
34	31	24
50	42	31
43	37	23
34	31	24
43	37	23
34	31	24
34	31	24
34	31	24
34	31	24
26	26	26
34	31	24
34	31	24
34	31	24
50	42	31
53	44	39
50	42	31
82	39	46
66	55	51
82	39	46
50	42	31
50	42	31
34	31	24
34	31	24
50	42	31
50	42	31
82	39	46
50	42	31
50	42	31
50	42	31
82	39	46
34	31	24
82	39	46
50	42	31
66	55	51
82	39	46
50	42	31
34	31	24
34	31	24
34	31	24
82	39	46
82	39	46
50	42	31
34	31	24
50	42	31
50	42	31
50	42	31
50	42	31
34	31	24
50	42	31
82	39	46
50	42	31
82	39	46
82	39	46
72	60	48
66	55	51
66	55	51
93	46	56
93	46	56
72	58	45
93	46	56
93	46	56
93	46	56
93	46	56
82	39	46
66	55	51
66	55	51
66	55	51
82	39	46
82	39	46
82	39	46
82	39	46
50	42	31
50	42	31
82	39	46
82	39	46
82	39	46
82	39	46
82	39	46
53	44	39
72	58	45
66	55	51
82	39	46
66	55	51
66	55	51
72	58	45
72	60	48
72	60	48
72	58	45
66	55	51
72	58	45
93	46	56
66	55	51
93	46	56
82	39	46
82	39	46
66	55	51
66	55	51
66	55	51
66	55	51
66	55	51
66	55	51
93	46	56
93	46	56
82	39	46
93	46	56
82	39	46
50	42	31
93	46	56
72	58	45
72	58	45
93	46	56
72	60	48
50	42	31
50	42	31
93	46	56
72	58	45
93	46	56
93	46	56
106	55	62
106	55	62
106	55	62
72	60	48
106	55	62
90	72	58
80	68	52
106	55	62
80	68	52
90	72	58
84	75	60
88	82	68
72	58	45
80	68	52
72	58	45
72	58	45
72	58	45
72	58	45
72	58	45
53	44	39
72	58	45
72	58	45
72	58	45
72	58	45
72	58	45
90	72	58
72	58	45
72	58	45
72	58	45
90	72	58
90	72	58
90	72	58
119	65	63
90	72	58
106	87	80
72	58	45
72	58	45
90	72	58
119	65	63
119	65	63
80	68	52
90	72	58
90	72	58
72	58	45
90	72	58
72	58	45
90	72	58
90	72	58
90	72	58
119	65	63
90	72	58
53	44	39
72	58	45
90	72	58
90	72	58
90	72	58
106	55	62
119	65	63
72	58	45
50	42	31
72	58	45
53	44	39
53	44	39
53	44	39
53	44	39
72	58	45
82	39	46
72	58	45
72	58	45
53	44	39
53	44	39
53	44	39
53	44	39
82	39	46
82	39	46
72	58	45
50	42	31
35	29	33
35	29	33
53	44	39
53	44	39
53	44	39
53	44	39
72	58	45
72	58	45
53	44	39
53	44	39
53	44	39
53	44	39
72	58	45
53	44	39
72	58	45
72	58	45
72	58	45
72	58	45
72	58	45
72	58	45
72	58	45
72	58	45
72	58	45
72	58	45
72	58	45
53	44	39
53	44	39
50	42	31
53	44	39
53	44	39
53	44	39
53	44	39
53	44	39
72	58	45
72	58	45
72	58	45
72	58	45
72	58	45
72	58	45
90	72	58
72	58	45
72	58	45
72	60	48
72	58	45
82	39	46
53	44	39
50	42	31
82	39	46
53	44	39
53	44	39
82	39	46
66	55	51
66	55	51
82	39	46
82	39	46
72	60	48
82	39	46
72	58	45
72	58	45
82	39	46
50	42	31
82	39	46
82	39	46
53	44	39
35	29	33
43	37	23
50	42	31
82	39	46
82	39	46
50	42	31
82	39	46
82	39	46
50	42	31
82	39	46
53	44	39
53	44	39
66	55	51
66	55	51
82	39	46
82	39	46
72	58	45
72	60	48
66	55	51
72	58	45
72	58	45
72	58	45
66	55	51
93	46	56
53	44	39
50	42	31
72	58	45
72	60	48
50	42	31
72	58	45
53	44	39
50	42	31
53	44	39
50	42	31
66	55	51
66	55	51
82	39	46
82	39	46
72	60	48
84	75	60
66	55	51
93	46	56
50	42	31
50	42	31
50	42	31
50	42	31
53	44	39
53	44	39
82	39	46
82	39	46
66	55	51
66	55	51
66	55	51
66	55	51
66	55	51
72	60	48
50	42	31
53	44	39
53	44	39
82	39	46
66	55	51
66	55	51
82	39	46
50	42	31
35	29	33
43	37	23
50	42	31
82	39	46
82	39	46
50	42	31
82	39	46
82	39	46
50	42	31
50	42	31
53	44	39
53	44	39
50	42	31
82	39	46
82	39	46
50	42	31
53	44	39
50	42	31
66	55	51
66	55	51
66	55	51
82	39	46
72	60	48
84	75	60
72	60	48
82	39	46
72	60	48
72	60	48
50	42	31
82	39	46
82	39	46
72	60	48
72	60	48
93	46	56
72	60	48
72	60	48
72	60	48
82	39	46
82	39	46
72	60	48
50	42	31
82	39	46
82	39	46
82	39	46
50	42	31
82	39	46
35	29	33
53	44	39
53	44	39
82	39	46
66	55	51
66	55	51
66	55	51
53	44	39
66	55	51
84	75	60
50	42	31
50	42	31
50	42	31
50	42	31
50	42	31
66	55	51
93	46	56
53	44	39
35	29	33
43	37	23
82	39	46
82	39	46
82	39	46
26	26	26
50	42	31
82	39	46
50	42	31
50	42	31
82	39	46
53	44	39
82	39	46
82	39	46
50	42	31
72	58	45
72	58	45
50	42	31
82	39	46
66	55	51
72	60	48
82	39	46
72	60	48
84	75	60
80	68	52
82	39	46
72	60	48
72	60	48
50	42	31
82	39	46
50	42	31
82	39	46
72	58	45
93	46	56
93	46	56
93	46	56
82	39	46
82	39	46
66	55	51
66	55	51
82	39	46
50	42	31
82	39	46
50	42	31
82	39	46
50	42	31
50	42	31
53	44	39
72	58	45
50	42	31
50	42	31
50	42	31
50	42	31
50	42	31
66	55	51
80	68	52
82	39	46
82	39	46
50	42	31
50	42	31
50	42	31
82	39	46
50	42	31
53	44	39
35	29	33
35	29	33
50	42	31
50	42	31
34	31	24
26	26	26
53	44	39
82	39	46
50	42	31
50	42	31
34	31	24
82	39	46
50	42	31
50	42	31
50	42	31
50	42	31
35	29	33
50	42	31
34	31	24
82	39	46
50	42	31
50	42	31
82	39	46
66	55	51
50	42	31
50	42	31
82	39	46
82	39	46
50	42	31
50	42	31
82	39	46
53	44	39
53	44	39
82	39	46
50	42	31
53	44	39
82	39	46
82	39	46
82	39	46
82	39	46
72	58	45
82	39	46
72	58	45
82	39	46
82	39	46
66	55	51
26	26	26
16	21	17
16	21	17
26	26	26
34	31	24
26	26	26
34	31	24
34	31	24
82	39	46
50	42	31
34	31	24
34	31	24
26	26	26
26	26	26
26	26	26
34	31	24
16	21	17
16	21	17
16	21	17
26	26	26
26	26	26
26	26	26
26	26	26
26	26	26
34	31	24
26	26	26
26	26	26
26	26	26
34	31	24
34	31	24
34	31	24
34	31	24
34	31	24
35	29	33
35	29	33
35	29	33
34	31	24
34	31	24
34	31	24
34	31	24
50	42	31
34	31	24
34	31	24
26	26	26
43	37	23
43	37	23
34	31	24
34	31	24
34	31	24
34	31	24
35	29	33
34	31	24
50	42	31
50	42	31
50	42	31
50	42	31
82	39	46
35	29	33
34	31	24
34	31	24
34	31	24
34	31	24
50	42	31
50	42	31
