P3
64 64
255
27	28	10
13	20	13
26	26	26
34	31	24
48	28	19
27	17	5
35	29	33
35	29	33
26	26	26
32	35	16
43	37	23
48	28	19
43	37	23
32	35	16
35	29	33
35	29	33
35	29	33
35	29	33
13	20	13
32	35	16
27	28	10
27	28	10
26	26	26
34	31	24
26	26	26
26	26	26
13	20	13
27	28	10
48	28	19
26	26	26
34	31	24
35	29	33
22	5	11
27	17	5
34	31	24
27	28	10
34	31	24
48	28	19
32	35	16
48	28	19
34	31	24
32	35	16
32	35	16
34	31	24
27	17	5
27	28	10
27	28	10
27	28	10
32	35	16
34	31	24
26	26	26
27	28	10
24	15	8
27	28	10
27	28	10
34	31	24
48	28	19
26	26	26
27	17	5
26	26	26
24	15	8
27	17	5
24	15	8
24	15	8
48	28	19
34	31	24
48	28	19
48	28	19
66	35	33
66	35	33
48	28	19
43	37	23
50	42	31
50	42	31
58	47	45
48	28	19
48	28	19
66	35	33
66	35	33
66	35	33
32	35	16
43	37	23
53	44	39
53	44	39
53	44	39
48	28	19
58	47	45
66	55	51
41	39	27
48	28	19
43	37	23
41	39	27
41	39	27
55	47	34
41	39	27
48	28	19
27	28	10
59	43	18
55	47	34
66	54	42
41	39	27
50	42	31
66	35	33
55	47	34
66	54	42
66	54	42
55	47	34
47	43	32
51	34	14
47	43	32
78	57	52
55	47	34
47	43	32
66	54	42
51	34	14
66	54	42
50	42	31
47	43	32
72	47	25
78	57	52
66	35	33
41	39	27
51	34	14
47	43	32
47	43	32
47	43	32
27	28	10
26	26	26
48	28	19
35	29	33
43	37	23
43	37	23
34	31	24
35	29	33
43	37	23
48	28	19
48	28	19
66	35	33
50	42	31
43	37	23
43	37	23
48	28	19
41	39	27
41	39	27
43	37	23
34	31	24
34	31	24
41	39	27
34	31	24
48	28	19
48	28	19
66	35	33
48	28	19
35	29	33
34	31	24
48	28	19
51	34	14
50	42	31
43	37	23
43	37	23
26	26	26
66	35	33
50	42	31
47	43	32
48	28	19
43	37	23
43	37	23
66	35	33
47	43	32
47	43	32
47	43	32
43	37	23
50	42	31
66	35	33
72	47	25
48	28	19
47	43	32
51	34	14
41	39	27
66	35	33
48	28	19
32	35	16
66	54	42
66	54	42
43	37	23
35	29	33
43	37	23
41	39	27
47	43	32
51	34	14
32	35	16
22	5	11
48	28	19
35	29	33
43	37	23
43	37	23
34	31	24
35	29	33
43	37	23
48	28	19
53	44	39
53	44	39
50	42	31
43	37	23
48	28	19
43	37	23
48	28	19
35	29	33
43	37	23
35	29	33
48	28	19
50	42	31
43	37	23
48	28	19
34	31	24
66	35	33
35	29	33
43	37	23
48	28	19
48	28	19
51	34	14
41	39	27
41	39	27
50	42	31
27	28	10
43	37	23
35	29	33
51	34	14
43	37	23
43	37	23
58	47	45
58	47	45
50	42	31
55	47	34
41	39	27
34	31	24
48	28	19
41	39	27
47	43	32
41	39	27
41	39	27
48	28	19
66	35	33
55	47	34
34	31	24
43	37	23
47	43	32
41	39	27
43	37	23
43	37	23
48	28	19
41	39	27
41	39	27
51	34	14
32	35	16
27	28	10
48	28	19
35	29	33
43	37	23
82	39	46
43	37	23
34	31	24
66	35	33
50	42	31
43	37	23
58	47	45
53	44	39
43	37	23
53	44	39
48	28	19
66	35	33
48	28	19
66	35	33
48	28	19
43	37	23
66	35	33
48	28	19
48	28	19
48	28	19
41	39	27
43	37	23
34	31	24
34	31	24
58	47	45
41	39	27
48	28	19
55	47	34
50	42	31
26	26	26
48	28	19
43	37	23
82	39	46
43	37	23
43	37	23
50	42	31
66	35	33
58	47	45
58	47	45
43	37	23
43	37	23
43	37	23
55	47	34
58	47	45
48	28	19
43	37	23
48	28	19
58	47	45
51	34	14
43	37	23
48	28	19
50	42	31
32	35	16
43	37	23
34	31	24
66	35	33
66	35	33
43	37	23
34	31	24
32	35	16
27	17	5
66	35	33
35	29	33
43	37	23
43	37	23
43	37	23
34	31	24
43	37	23
53	44	39
43	37	23
53	44	39
53	44	39
48	28	19
43	37	23
43	37	23
50	42	31
41	39	27
43	37	23
48	28	19
41	39	27
41	39	27
48	28	19
34	31	24
43	37	23
48	28	19
35	29	33
35	29	33
50	42	31
58	47	45
41	39	27
34	31	24
53	44	39
41	39	27
34	31	24
66	35	33
43	37	23
48	28	19
41	39	27
35	29	33
50	42	31
50	42	31
41	39	27
58	47	45
66	35	33
43	37	23
43	37	23
58	47	45
53	44	39
48	28	19
43	37	23
48	28	19
43	37	23
55	47	34
35	29	33
34	31	24
43	37	23
48	28	19
48	28	19
34	31	24
66	35	33
48	28	19
48	28	19
34	31	24
48	28	19
27	28	10
48	28	19
35	29	33
43	37	23
26	26	26
26	26	26
27	17	5
43	37	23
51	34	14
43	37	23
43	37	23
66	35	33
41	39	27
50	42	31
53	44	39
53	44	39
53	44	39
53	44	39
43	37	23
43	37	23
55	47	34
34	31	24
34	31	24
43	37	23
48	28	19
48	28	19
48	28	19
48	28	19
34	31	24
34	31	24
66	35	33
66	35	33
48	28	19
34	31	24
66	35	33
50	42	31
34	31	24
48	28	19
35	29	33
53	44	39
41	39	27
43	37	23
50	42	31
58	47	45
43	37	23
43	37	23
43	37	23
50	42	31
43	37	23
43	37	23
48	28	19
43	37	23
50	42	31
48	28	19
43	37	23
43	37	23
41	39	27
48	28	19
43	37	23
43	37	23
35	29	33
27	17	5
27	17	5
35	29	33
34	31	24
43	37	23
34	31	24
48	28	19
43	37	23
34	31	24
53	44	39
43	37	23
66	35	33
43	37	23
66	35	33
50	42	31
43	37	23
48	28	19
88	50	31
53	44	39
43	37	23
41	39	27
43	37	23
35	29	33
48	28	19
48	28	19
34	31	24
43	37	23
51	34	14
48	28	19
66	35	33
50	42	31
41	39	27
41	39	27
41	39	27
66	35	33
43	37	23
48	28	19
66	35	33
43	37	23
50	42	31
66	35	33
53	44	39
53	44	39
58	47	45
53	44	39
82	39	46
58	47	45
43	37	23
48	28	19
53	44	39
53	44	39
43	37	23
50	42	31
48	28	19
48	28	19
41	39	27
43	37	23
34	31	24
43	37	23
47	43	32
34	31	24
43	37	23
66	35	33
34	31	24
27	28	10
34	31	24
35	29	33
32	35	16
48	28	19
26	26	26
34	31	24
48	28	19
34	31	24
32	35	16
43	37	23
43	37	23
48	28	19
50	42	31
66	35	33
43	37	23
48	28	19
43	37	23
58	47	45
43	37	23
66	35	33
48	28	19
43	37	23
43	37	23
50	42	31
32	35	16
41	39	27
47	43	32
53	44	39
51	34	14
47	43	32
41	39	27
66	35	33
66	35	33
43	37	23
43	37	23
27	28	10
53	44	39
43	37	23
50	42	31
53	44	39
53	44	39
53	44	39
58	47	45
53	44	39
58	47	45
82	39	46
66	35	33
48	28	19
50	42	31
58	47	45
43	37	23
50	42	31
43	37	23
48	28	19
51	34	14
48	28	19
35	29	33
66	35	33
58	47	45
53	44	39
43	37	23
43	37	23
34	31	24
34	31	24
48	28	19
51	34	14
32	35	16
41	39	27
26	26	26
48	28	19
43	37	23
43	37	23
34	31	24
43	37	23
43	37	23
43	37	23
43	37	23
66	35	33
48	28	19
48	28	19
55	47	34
66	35	33
43	37	23
43	37	23
34	31	24
35	29	33
48	28	19
35	29	33
35	29	33
48	28	19
66	35	33
43	37	23
48	28	19
66	35	33
43	37	23
43	37	23
50	42	31
53	44	39
48	28	19
34	31	24
66	35	33
43	37	23
43	37	23
53	44	39
53	44	39
58	47	45
58	47	45
43	37	23
72	47	25
66	54	42
48	28	19
48	28	19
51	34	14
58	47	45
50	42	31
82	39	46
48	28	19
43	37	23
66	35	33
35	29	33
48	28	19
43	37	23
41	39	27
48	28	19
43	37	23
43	37	23
51	34	14
34	31	24
34	31	24
35	29	33
26	26	26
48	28	19
35	29	33
48	28	19
43	37	23
34	31	24
34	31	24
48	28	19
35	29	33
35	29	33
50	42	31
43	37	23
43	37	23
48	28	19
43	37	23
43	37	23
34	31	24
43	37	23
35	29	33
43	37	23
48	28	19
43	37	23
34	31	24
48	28	19
43	37	23
48	28	19
43	37	23
50	42	31
48	28	19
50	42	31
50	42	31
53	44	39
50	42	31
34	31	24
57	59	48
53	44	39
53	44	39
53	44	39
43	37	23
53	44	39
88	50	31
43	37	23
55	47	34
66	35	33
53	44	39
43	37	23
50	42	31
66	35	33
50	42	31
66	35	33
43	37	23
43	37	23
51	34	14
34	31	24
34	31	24
43	37	23
41	39	27
34	31	24
48	28	19
43	37	23
48	28	19
48	28	19
43	37	23
48	28	19
27	17	5
43	37	23
35	29	33
43	37	23
43	37	23
43	37	23
48	28	19
66	35	33
66	35	33
48	28	19
43	37	23
66	35	33
43	37	23
34	31	24
43	37	23
43	37	23
43	37	23
43	37	23
48	28	19
35	29	33
66	35	33
34	31	24
34	31	24
50	42	31
41	39	27
50	42	31
43	37	23
43	37	23
43	37	23
66	35	33
50	42	31
41	39	27
43	37	23
41	39	27
53	44	39
43	37	23
53	44	39
50	42	31
53	44	39
53	44	39
58	47	45
32	35	16
43	37	23
55	47	34
48	28	19
48	28	19
43	37	23
41	39	27
41	39	27
50	42	31
66	35	33
43	37	23
41	39	27
35	29	33
48	28	19
66	35	33
41	39	27
34	31	24
41	39	27
43	37	23
66	35	33
41	39	27
41	39	27
48	28	19
13	20	13
48	28	19
35	29	33
48	28	19
43	37	23
43	37	23
43	37	23
53	44	39
43	37	23
53	44	39
43	37	23
43	37	23
43	37	23
48	28	19
43	37	23
48	28	19
34	31	24
43	37	23
35	29	33
32	35	16
35	29	33
34	31	24
35	29	33
43	37	23
41	39	27
48	28	19
43	37	23
43	37	23
66	35	33
43	37	23
66	35	33
66	35	33
50	42	31
53	44	39
53	44	39
50	42	31
66	35	33
66	35	33
53	44	39
58	47	45
58	47	45
66	35	33
43	37	23
88	50	31
66	35	33
50	42	31
58	47	45
66	35	33
66	35	33
50	42	31
35	29	33
43	37	23
53	44	39
43	37	23
32	35	16
43	37	23
48	28	19
43	37	23
43	37	23
48	28	19
48	28	19
48	28	19
43	37	23
48	28	19
27	17	5
48	28	19
34	31	24
48	28	19
43	37	23
43	37	23
48	28	19
43	37	23
53	44	39
53	44	39
43	37	23
66	35	33
53	44	39
43	37	23
50	42	31
53	44	39
48	28	19
43	37	23
35	29	33
35	29	33
35	29	33
26	26	26
34	31	24
43	37	23
35	29	33
35	29	33
66	35	33
43	37	23
43	37	23
50	42	31
43	37	23
55	47	34
48	28	19
32	35	16
57	59	48
41	39	27
53	44	39
53	44	39
43	37	23
53	44	39
58	47	45
50	42	31
53	44	39
55	47	34
53	44	39
50	42	31
50	42	31
66	35	33
41	39	27
50	42	31
50	42	31
48	28	19
53	44	39
34	31	24
34	31	24
48	28	19
47	43	32
34	31	24
43	37	23
43	37	23
34	31	24
43	37	23
48	28	19
32	35	16
27	28	10
48	28	19
35	29	33
34	31	24
43	37	23
48	28	19
48	28	19
43	37	23
66	35	33
53	44	39
53	44	39
41	39	27
43	37	23
48	28	19
53	44	39
50	42	31
48	28	19
35	29	33
43	37	23
43	37	23
34	31	24
26	26	26
26	26	26
41	39	27
66	35	33
34	31	24
43	37	23
66	35	33
66	35	33
43	37	23
41	39	27
50	42	31
43	37	23
34	31	24
53	44	39
47	43	32
66	35	33
43	37	23
43	37	23
53	44	39
88	50	31
53	44	39
53	44	39
88	50	31
43	37	23
53	44	39
72	58	45
66	35	33
66	35	33
48	28	19
53	44	39
48	28	19
43	37	23
43	37	23
48	28	19
43	37	23
41	39	27
43	37	23
43	37	23
43	37	23
48	28	19
48	28	19
41	39	27
35	29	33
13	20	13
50	42	31
34	31	24
43	37	23
43	37	23
48	28	19
66	35	33
43	37	23
66	35	33
53	44	39
53	44	39
53	44	39
50	42	31
43	37	23
57	59	48
43	37	23
66	35	33
32	35	16
35	29	33
35	29	33
35	29	33
26	26	26
35	29	33
43	37	23
41	39	27
48	28	19
48	28	19
34	31	24
43	37	23
43	37	23
43	37	23
43	37	23
48	28	19
34	31	24
53	44	39
66	35	33
50	42	31
41	39	27
43	37	23
66	35	33
50	42	31
66	35	33
58	47	45
53	44	39
41	39	27
66	35	33
72	58	45
53	44	39
50	42	31
43	37	23
66	35	33
43	37	23
53	44	39
48	28	19
43	37	23
43	37	23
51	34	14
41	39	27
48	28	19
35	29	33
43	37	23
48	28	19
43	37	23
43	37	23
32	35	16
48	28	19
26	26	26
48	28	19
43	37	23
48	28	19
43	37	23
50	42	31
66	35	33
55	47	34
66	35	33
43	37	23
66	35	33
66	35	33
53	44	39
66	35	33
50	42	31
48	28	19
48	28	19
26	26	26
35	29	33
34	31	24
35	29	33
48	28	19
58	47	45
43	37	23
51	34	14
34	31	24
35	29	33
43	37	23
43	37	23
48	28	19
43	37	23
34	31	24
43	37	23
43	37	23
66	35	33
48	28	19
41	39	27
66	35	33
66	55	51
66	35	33
66	35	33
43	37	23
43	37	23
43	37	23
72	47	25
41	39	27
66	35	33
43	37	23
66	35	33
48	28	19
66	35	33
48	28	19
48	28	19
53	44	39
50	42	31
43	37	23
43	37	23
35	29	33
34	31	24
43	37	23
41	39	27
48	28	19
26	26	26
50	42	31
34	31	24
35	29	33
50	42	31
35	29	33
43	37	23
43	37	23
43	37	23
58	47	45
66	35	33
50	42	31
43	37	23
50	42	31
53	44	39
66	35	33
66	35	33
51	34	14
43	37	23
34	31	24
48	28	19
35	29	33
34	31	24
32	35	16
43	37	23
35	29	33
43	37	23
43	37	23
34	31	24
48	28	19
35	29	33
43	37	23
43	37	23
34	31	24
66	35	33
43	37	23
66	35	33
48	28	19
48	28	19
53	44	39
50	42	31
66	35	33
82	39	46
43	37	23
48	28	19
66	35	33
58	47	45
43	37	23
41	39	27
50	42	31
48	28	19
48	28	19
51	34	14
48	28	19
43	37	23
43	37	23
58	47	45
48	28	19
82	39	46
53	44	39
43	37	23
48	28	19
43	37	23
35	29	33
27	28	10
48	28	19
48	28	19
43	37	23
43	37	23
43	37	23
35	29	33
35	29	33
50	42	31
66	35	33
58	47	45
66	35	33
43	37	23
53	44	39
58	47	45
66	35	33
66	35	33
48	28	19
66	35	33
53	44	39
34	31	24
34	31	24
34	31	24
43	37	23
41	39	27
34	31	24
43	37	23
35	29	33
32	35	16
48	28	19
53	44	39
43	37	23
43	37	23
26	26	26
58	47	45
66	35	33
53	44	39
41	39	27
48	28	19
48	28	19
53	44	39
53	44	39
66	35	33
43	37	23
48	28	19
53	44	39
66	35	33
41	39	27
41	39	27
43	37	23
58	47	45
43	37	23
47	43	32
48	28	19
34	31	24
53	44	39
66	35	33
48	28	19
66	35	33
53	44	39
43	37	23
48	28	19
48	28	19
35	29	33
27	28	10
51	34	14
35	29	33
41	39	27
48	28	19
34	31	24
48	28	19
50	42	31
50	42	31
50	42	31
53	44	39
50	42	31
66	35	33
50	42	31
53	44	39
66	54	42
66	35	33
51	34	14
43	37	23
43	37	23
66	35	33
43	37	23
34	31	24
48	28	19
41	39	27
48	28	19
66	35	33
41	39	27
43	37	23
48	28	19
50	42	31
41	39	27
35	29	33
34	31	24
66	35	33
66	35	33
53	44	39
48	28	19
41	39	27
48	28	19
47	43	32
66	35	33
41	39	27
41	39	27
43	37	23
48	28	19
66	35	33
58	47	45
48	28	19
47	43	32
50	42	31
43	37	23
50	42	31
66	35	33
66	35	33
47	43	32
43	37	23
53	44	39
53	44	39
43	37	23
43	37	23
48	28	19
41	39	27
34	31	24
27	17	5
48	28	19
43	37	23
35	29	33
43	37	23
32	35	16
48	28	19
34	31	24
53	44	39
66	35	33
53	44	39
66	35	33
43	37	23
41	39	27
55	47	34
50	42	31
58	47	45
43	37	23
43	37	23
48	28	19
43	37	23
48	28	19
48	28	19
43	37	23
48	28	19
34	31	24
48	28	19
53	44	39
48	28	19
48	28	19
35	29	33
34	31	24
43	37	23
26	26	26
41	39	27
48	28	19
43	37	23
48	28	19
34	31	24
48	28	19
58	47	45
43	37	23
53	44	39
50	42	31
43	37	23
43	37	23
66	35	33
58	47	45
66	35	33
66	35	33
53	44	39
48	28	19
58	47	45
43	37	23
43	37	23
88	50	31
66	35	33
53	44	39
43	37	23
66	35	33
43	37	23
48	28	19
51	34	14
32	35	16
26	26	26
66	35	33
48	28	19
43	37	23
35	29	33
43	37	23
48	28	19
48	28	19
48	28	19
43	37	23
48	28	19
66	35	33
43	37	23
53	44	39
53	44	39
53	44	39
43	37	23
50	42	31
50	42	31
53	44	39
43	37	23
34	31	24
35	29	33
43	37	23
66	35	33
34	31	24
43	37	23
43	37	23
43	37	23
41	39	27
41	39	27
43	37	23
43	37	23
48	28	19
50	42	31
53	44	39
35	29	33
34	31	24
48	28	19
34	31	24
47	43	32
43	37	23
66	35	33
43	37	23
43	37	23
48	28	19
43	37	23
43	37	23
43	37	23
72	47	25
43	37	23
48	28	19
41	39	27
48	28	19
53	44	39
66	35	33
66	35	33
66	35	33
66	35	33
43	37	23
41	39	27
48	28	19
43	37	23
35	29	33
32	35	16
41	39	27
50	42	31
32	35	16
43	37	23
32	35	16
34	31	24
48	28	19
66	35	33
50	42	31
58	47	45
53	44	39
53	44	39
43	37	23
50	42	31
66	35	33
53	44	39
66	35	33
53	44	39
43	37	23
48	28	19
48	28	19
34	31	24
35	29	33
43	37	23
34	31	24
66	35	33
53	44	39
43	37	23
43	37	23
58	47	45
50	42	31
43	37	23
48	28	19
66	35	33
43	37	23
43	37	23
32	35	16
34	31	24
34	31	24
50	42	31
66	35	33
41	39	27
43	37	23
34	31	24
34	31	24
66	35	33
41	39	27
43	37	23
88	50	31
50	42	31
43	37	23
66	35	33
50	42	31
66	35	33
53	44	39
55	47	34
53	44	39
55	47	34
50	42	31
55	47	34
51	34	14
48	28	19
34	31	24
35	29	33
48	28	19
43	37	23
48	28	19
48	28	19
35	29	33
35	29	33
34	31	24
43	37	23
66	35	33
66	35	33
55	47	34
53	44	39
53	44	39
50	42	31
43	37	23
66	35	33
43	37	23
43	37	23
43	37	23
66	35	33
48	28	19
48	28	19
48	28	19
43	37	23
53	44	39
43	37	23
48	28	19
43	37	23
53	44	39
43	37	23
41	39	27
53	44	39
34	31	24
43	37	23
43	37	23
48	28	19
43	37	23
48	28	19
34	31	24
32	35	16
51	34	14
66	35	33
48	28	19
48	28	19
48	28	19
66	35	33
41	39	27
41	39	27
88	50	31
50	42	31
66	35	33
88	50	31
43	37	23
43	37	23
53	44	39
58	47	45
66	35	33
41	39	27
43	37	23
58	47	45
55	47	34
66	35	33
34	31	24
27	28	10
48	28	19
43	37	23
48	28	19
43	37	23
26	26	26
35	29	33
43	37	23
66	35	33
53	44	39
53	44	39
50	42	31
66	35	33
43	37	23
50	42	31
53	44	39
66	35	33
43	37	23
43	37	23
53	44	39
66	35	33
43	37	23
48	28	19
50	42	31
66	35	33
48	28	19
43	37	23
43	37	23
41	39	27
43	37	23
53	44	39
43	37	23
43	37	23
35	29	33
53	44	39
43	37	23
43	37	23
48	28	19
34	31	24
48	28	19
41	39	27
48	28	19
55	47	34
35	29	33
34	31	24
34	31	24
43	37	23
58	47	45
66	35	33
66	35	33
43	37	23
66	35	33
55	47	34
48	28	19
43	37	23
50	42	31
55	47	34
43	37	23
66	35	33
58	47	45
51	34	14
43	37	23
58	47	45
48	28	19
34	31	24
41	39	27
43	37	23
66	35	33
35	29	33
43	37	23
26	26	26
26	26	26
48	28	19
50	42	31
66	35	33
43	37	23
43	37	23
66	35	33
53	44	39
66	35	33
58	47	45
43	37	23
53	44	39
43	37	23
53	44	39
50	42	31
43	37	23
35	29	33
66	35	33
43	37	23
43	37	23
43	37	23
43	37	23
66	35	33
66	35	33
53	44	39
53	44	39
32	35	16
58	47	45
53	44	39
53	44	39
43	37	23
32	35	16
34	31	24
41	39	27
43	37	23
41	39	27
48	28	19
34	31	24
35	29	33
66	35	33
66	35	33
43	37	23
88	50	31
66	35	33
43	37	23
58	47	45
48	28	19
41	39	27
43	37	23
66	35	33
48	28	19
58	47	45
41	39	27
48	28	19
48	28	19
51	34	14
43	37	23
24	15	8
48	28	19
48	28	19
43	37	23
43	37	23
43	37	23
34	31	24
35	29	33
35	29	33
43	37	23
43	37	23
43	37	23
43	37	23
53	44	39
43	37	23
53	44	39
53	44	39
48	28	19
43	37	23
53	44	39
43	37	23
35	29	33
48	28	19
48	28	19
48	28	19
35	29	33
66	35	33
53	44	39
43	37	23
35	29	33
66	35	33
53	44	39
50	42	31
35	29	33
53	44	39
66	35	33
43	37	23
43	37	23
48	28	19
34	31	24
32	35	16
41	39	27
41	39	27
35	29	33
48	28	19
48	28	19
53	44	39
58	47	45
53	44	39
66	35	33
48	28	19
43	37	23
58	47	45
41	39	27
43	37	23
66	35	33
66	35	33
48	28	19
58	47	45
53	44	39
43	37	23
48	28	19
66	35	33
32	35	16
27	28	10
48	28	19
48	28	19
34	31	24
43	37	23
35	29	33
34	31	24
48	28	19
43	37	23
48	28	19
43	37	23
43	37	23
32	35	16
34	31	24
43	37	23
43	37	23
43	37	23
53	44	39
43	37	23
34	31	24
48	28	19
43	37	23
35	29	33
41	39	27
43	37	23
34	31	24
43	37	23
35	29	33
34	31	24
43	37	23
50	42	31
66	35	33
43	37	23
34	31	24
72	58	45
66	35	33
53	44	39
43	37	23
35	29	33
43	37	23
35	29	33
41	39	27
47	43	32
43	37	23
48	28	19
35	29	33
53	44	39
50	42	31
43	37	23
50	42	31
66	35	33
43	37	23
51	34	14
43	37	23
48	28	19
58	47	45
53	44	39
48	28	19
66	35	33
43	37	23
48	28	19
43	37	23
58	47	45
48	28	19
48	28	19
66	35	33
43	37	23
35	29	33
66	35	33
43	37	23
26	26	26
35	29	33
48	28	19
48	28	19
48	28	19
48	28	19
35	29	33
35	29	33
35	29	33
53	44	39
48	28	19
43	37	23
34	31	24
48	28	19
43	37	23
34	31	24
35	29	33
48	28	19
48	28	19
34	31	24
48	28	19
43	37	23
58	47	45
43	37	23
34	31	24
48	28	19
43	37	23
35	29	33
72	58	45
43	37	23
66	35	33
43	37	23
35	29	33
35	29	33
53	44	39
48	28	19
66	35	33
35	29	33
34	31	24
48	28	19
41	39	27
53	44	39
43	37	23
50	42	31
35	29	33
48	28	19
41	39	27
48	28	19
48	28	19
43	37	23
41	39	27
41	39	27
43	37	23
43	37	23
66	35	33
43	37	23
32	35	16
34	31	24
34	31	24
66	35	33
35	29	33
32	35	16
34	31	24
48	28	19
26	26	26
48	28	19
43	37	23
43	37	23
41	39	27
43	37	23
34	31	24
43	37	23
43	37	23
43	37	23
41	39	27
43	37	23
34	31	24
48	28	19
48	28	19
43	37	23
35	29	33
48	28	19
51	34	14
48	28	19
48	28	19
35	29	33
48	28	19
43	37	23
34	31	24
41	39	27
35	29	33
26	26	26
57	59	48
43	37	23
48	28	19
66	35	33
32	35	16
34	31	24
35	29	33
35	29	33
41	39	27
35	29	33
32	35	16
34	31	24
43	37	23
41	39	27
43	37	23
43	37	23
43	37	23
43	37	23
41	39	27
34	31	24
34	31	24
48	28	19
51	34	14
53	44	39
43	37	23
50	42	31
43	37	23
43	37	23
27	17	5
34	31	24
26	26	26
48	28	19
26	26	26
48	28	19
13	20	13
26	26	26
24	15	8
34	31	24
43	37	23
43	37	23
43	37	23
43	37	23
48	28	19
43	37	23
41	39	27
43	37	23
35	29	33
43	37	23
53	44	39
43	37	23
43	37	23
48	28	19
35	29	33
34	31	24
51	34	14
34	31	24
34	31	24
35	29	33
27	17	5
35	29	33
27	17	5
48	28	19
43	37	23
26	26	26
41	39	27
53	44	39
35	29	33
26	26	26
34	31	24
32	35	16
43	37	23
35	29	33
41	39	27
35	29	33
35	29	33
34	31	24
41	39	27
41	39	27
35	29	33
43	37	23
48	28	19
35	29	33
51	34	14
43	37	23
26	26	26
48	28	19
51	34	14
48	28	19
48	28	19
35	29	33
34	31	24
13	20	13
26	26	26
27	28	10
13	20	13
26	26	26
26	26	26
26	26	26
34	31	24
34	31	24
34	31	24
26	26	26
34	31	24
48	28	19
34	31	24
34	31	24
34	31	24
48	28	19
34	31	24
43	37	23
43	37	23
35	29	33
35	29	33
48	28	19
26	26	26
35	29	33
26	26	26
34	31	24
34	31	24
26	26	26
34	31	24
34	31	24
26	26	26
48	28	19
43	37	23
43	37	23
48	28	19
34	31	24
32	35	16
32	35	16
50	42	31
35	29	33
34	31	24
32	35	16
34	31	24
41	39	27
66	35	33
35	29	33
34	31	24
34	31	24
51	34	14
35	29	33
41	39	27
43	37	23
34	31	24
35	29	33
51	34	14
35	29	33
48	28	19
48	28	19
34	31	24
27	28	10
48	28	19
35	29	33
34	31	24
34	31	24
32	35	16
27	28	10
27	28	10
27	17	5
26	26	26
27	28	10
27	28	10
27	28	10
27	28	10
34	31	24
34	31	24
34	31	24
34	31	24
32	35	16
32	35	16
32	35	16
43	37	23
34	31	24
48	28	19
32	35	16
32	35	16
26	26	26
27	28	10
27	28	10
32	35	16
32	35	16
27	28	10
26	26	26
26	26	26
27	28	10
27	28	10
32	35	16
27	28	10
27	28	10
32	35	16
48	28	19
32	35	16
32	35	16
34	31	24
32	35	16
26	26	26
32	35	16
26	26	26
27	28	10
26	26	26
26	26	26
32	35	16
32	35	16
34	31	24
26	26	26
26	26	26
48	28	19
34	31	24
34	31	24
48	28	19
34	31	24
48	28	19
48	28	19
34	31	24
48	28	19
48	28	19
34	31	24
34	31	24
32	35	16
34	31	24
27	17	5
3	14	0
37	31	5
34	31	24
35	29	33
53	44	39
35	29	33
48	28	19
66	35	33
51	39	17
43	37	23
34	31	24
34	31	24
35	29	33
43	37	23
41	39	27
66	35	33
41	39	27
32	35	16
59	43	18
55	47	34
32	35	16
32	35	16
41	39	27
41	39	27
41	39	27
59	43	18
66	35	33
55	47	34
32	35	16
41	39	27
51	34	14
51	34	14
41	39	27
41	39	27
51	34	14
51	34	14
66	35	33
51	34	14
51	34	14
72	47	25
100	55	32
55	47	34
51	34	14
51	34	14
51	34	14
51	34	14
41	39	27
59	43	18
43	37	23
34	31	24
53	44	39
53	44	39
35	29	33
35	29	33
35	29	33
35	29	33
53	44	39
35	29	33
35	29	33
48	28	19
66	35	33
34	31	24
34	31	24
51	39	17
48	28	19
48	28	19
34	31	24
48	28	19
48	28	19
35	29	33
34	31	24
66	35	33
66	35	33
34	31	24
34	31	24
34	31	24
43	37	23
66	35	33
48	28	19
48	28	19
32	35	16
26	26	26
66	35	33
35	29	33
43	37	23
34	31	24
34	31	24
50	42	31
51	34	14
35	29	33
51	34	14
51	34	14
35	29	33
35	29	33
26	26	26
41	39	27
24	15	8
26	26	26
27	17	5
34	31	24
41	39	27
26	26	26
26	26	26
66	35	33
88	50	31
43	37	23
35	29	33
26	26	26
48	28	19
48	28	19
35	29	33
35	29	33
34	31	24
26	26	26
53	44	39
48	28	19
48	28	19
32	35	16
32	35	16
48	28	19
66	35	33
48	28	19
66	35	33
66	35	33
41	39	27
48	28	19
48	28	19
66	35	33
66	35	33
43	37	23
43	37	23
43	37	23
43	37	23
48	28	19
48	28	19
41	39	27
50	42	31
34	31	24
34	31	24
48	28	19
34	31	24
66	35	33
43	37	23
41	39	27
48	28	19
27	28	10
66	35	33
34	31	24
43	37	23
34	31	24
35	29	33
50	42	31
51	34	14
50	42	31
66	35	33
41	39	27
26	26	26
26	26	26
35	29	33
35	29	33
27	17	5
27	17	5
26	26	26
48	28	19
55	47	34
34	31	24
35	29	33
50	42	31
58	47	45
35	29	33
53	44	39
35	29	33
43	37	23
43	37	23
43	37	23
51	34	14
53	44	39
34	31	24
53	44	39
48	28	19
43	37	23
32	35	16
32	35	16
50	42	31
66	35	33
43	37	23
58	47	45
50	42	31
41	39	27
48	28	19
66	35	33
58	47	45
41	39	27
43	37	23
34	31	24
66	35	33
50	42	31
43	37	23
43	37	23
43	37	23
48	28	19
43	37	23
43	37	23
43	37	23
43	37	23
66	35	33
43	37	23
34	31	24
48	28	19
26	26	26
66	35	33
53	44	39
66	35	33
43	37	23
34	31	24
35	29	33
51	34	14
43	37	23
41	39	27
66	35	33
34	31	24
26	26	26
51	34	14
43	37	23
27	17	5
35	29	33
26	26	26
48	28	19
48	28	19
26	26	26
32	35	16
50	42	31
58	47	45
53	44	39
35	29	33
48	28	19
43	37	23
58	47	45
66	35	33
34	31	24
34	31	24
34	31	24
53	44	39
48	28	19
51	39	17
88	50	31
43	37	23
34	31	24
66	35	33
58	47	45
82	39	46
48	28	19
43	37	23
43	37	23
58	47	45
41	39	27
43	37	23
66	35	33
43	37	23
43	37	23
43	37	23
41	39	27
26	26	26
48	28	19
43	37	23
51	34	14
43	37	23
43	37	23
43	37	23
43	37	23
43	37	23
34	31	24
48	28	19
26	26	26
43	37	23
53	44	39
48	28	19
43	37	23
34	31	24
43	37	23
41	39	27
48	28	19
48	28	19
41	39	27
34	31	24
32	35	16
51	34	14
43	37	23
27	17	5
50	42	31
32	35	16
48	28	19
51	34	14
34	31	24
34	31	24
48	28	19
51	34	14
35	29	33
32	35	16
48	28	19
48	28	19
43	37	23
43	37	23
34	31	24
34	31	24
53	44	39
72	58	45
48	28	19
66	35	33
43	37	23
66	35	33
34	31	24
66	35	33
50	42	31
43	37	23
43	37	23
48	28	19
41	39	27
58	47	45
43	37	23
48	28	19
43	37	23
34	31	24
48	28	19
66	35	33
43	37	23
43	37	23
43	37	23
48	28	19
43	37	23
43	37	23
43	37	23
43	37	23
35	29	33
26	26	26
34	31	24
43	37	23
35	29	33
48	28	19
43	37	23
26	26	26
34	31	24
34	31	24
43	37	23
41	39	27
47	43	32
51	34	14
50	42	31
35	29	33
32	35	16
35	29	33
35	29	33
24	15	8
35	29	33
34	31	24
34	31	24
66	35	33
34	31	24
34	31	24
43	37	23
51	34	14
35	29	33
43	37	23
66	35	33
48	28	19
34	31	24
35	29	33
35	29	33
43	37	23
35	29	33
58	47	45
66	35	33
66	35	33
34	31	24
34	31	24
35	29	33
66	35	33
34	31	24
43	37	23
58	47	45
43	37	23
43	37	23
66	35	33
66	35	33
66	35	33
66	35	33
34	31	24
34	31	24
48	28	19
43	37	23
43	37	23
43	37	23
43	37	23
35	29	33
43	37	23
43	37	23
66	35	33
66	35	33
50	42	31
43	37	23
35	29	33
35	29	33
48	28	19
43	37	23
43	37	23
35	29	33
34	31	24
53	44	39
50	42	31
41	39	27
66	35	33
48	28	19
32	35	16
34	31	24
35	29	33
35	29	33
24	15	8
50	42	31
34	31	24
34	31	24
66	35	33
34	31	24
35	29	33
43	37	23
66	35	33
34	31	24
66	35	33
53	44	39
53	44	39
58	47	45
88	50	31
72	58	45
53	44	39
66	35	33
72	58	45
53	44	39
48	28	19
41	39	27
34	31	24
48	28	19
66	35	33
66	35	33
66	35	33
58	47	45
66	35	33
43	37	23
43	37	23
58	47	45
43	37	23
66	35	33
43	37	23
34	31	24
66	35	33
35	29	33
43	37	23
66	35	33
50	42	31
35	29	33
43	37	23
43	37	23
53	44	39
41	39	27
43	37	23
58	47	45
43	37	23
26	26	26
43	37	23
43	37	23
43	37	23
34	31	24
35	29	33
43	37	23
53	44	39
53	44	39
41	39	27
43	37	23
34	31	24
34	31	24
41	39	27
43	37	23
27	28	10
26	26	26
34	31	24
34	31	24
41	39	27
34	31	24
32	35	16
43	37	23
66	35	33
50	42	31
35	29	33
50	42	31
53	44	39
43	37	23
43	37	23
50	42	31
43	37	23
41	39	27
82	39	46
53	44	39
53	44	39
43	37	23
41	39	27
34	31	24
66	35	33
43	37	23
82	39	46
58	47	45
55	47	34
43	37	23
66	35	33
50	42	31
48	28	19
66	35	33
37	31	5
43	37	23
43	37	23
34	31	24
35	29	33
34	31	24
43	37	23
34	31	24
43	37	23
41	39	27
66	35	33
43	37	23
66	35	33
50	42	31
26	26	26
35	29	33
43	37	23
43	37	23
43	37	23
35	29	33
48	28	19
53	44	39
66	35	33
66	35	33
41	39	27
41	39	27
34	31	24
34	31	24
51	34	14
53	44	39
27	28	10
53	44	39
34	31	24
48	28	19
66	35	33
34	31	24
34	31	24
41	39	27
53	44	39
35	29	33
66	35	33
41	39	27
48	28	19
43	37	23
66	35	33
82	39	46
35	29	33
43	37	23
53	44	39
43	37	23
50	42	31
43	37	23
53	44	39
58	47	45
66	35	33
66	35	33
58	47	45
58	47	45
43	37	23
48	28	19
66	35	33
58	47	45
34	31	24
66	35	33
43	37	23
50	42	31
43	37	23
43	37	23
35	29	33
43	37	23
34	31	24
34	31	24
66	35	33
43	37	23
43	37	23
43	37	23
48	28	19
43	37	23
26	26	26
26	26	26
43	37	23
43	37	23
50	42	31
34	31	24
43	37	23
66	35	33
53	44	39
34	31	24
51	34	14
41	39	27
34	31	24
34	31	24
35	29	33
53	44	39
27	28	10
35	29	33
34	31	24
48	28	19
48	28	19
34	31	24
34	31	24
66	35	33
66	35	33
35	29	33
53	44	39
53	44	39
53	44	39
66	35	33
43	37	23
72	58	45
43	37	23
35	29	33
72	58	45
43	37	23
41	39	27
66	35	33
43	37	23
58	47	45
58	47	45
43	37	23
58	47	45
66	35	33
48	28	19
48	28	19
66	35	33
43	37	23
48	28	19
48	28	19
43	37	23
43	37	23
43	37	23
48	28	19
35	29	33
43	37	23
43	37	23
48	28	19
43	37	23
41	39	27
66	35	33
41	39	27
43	37	23
66	35	33
34	31	24
26	26	26
66	35	33
53	44	39
43	37	23
35	29	33
41	39	27
58	47	45
50	42	31
41	39	27
41	39	27
41	39	27
34	31	24
32	35	16
50	42	31
35	29	33
27	28	10
51	34	14
34	31	24
34	31	24
41	39	27
43	37	23
34	31	24
66	35	33
41	39	27
34	31	24
53	44	39
53	44	39
53	44	39
43	37	23
50	42	31
72	58	45
43	37	23
53	44	39
72	58	45
50	42	31
50	42	31
43	37	23
43	37	23
58	47	45
58	47	45
43	37	23
66	35	33
50	42	31
43	37	23
48	28	19
50	42	31
41	39	27
43	37	23
58	47	45
48	28	19
43	37	23
43	37	23
43	37	23
43	37	23
43	37	23
43	37	23
35	29	33
48	28	19
48	28	19
43	37	23
43	37	23
41	39	27
66	35	33
48	28	19
35	29	33
53	44	39
66	35	33
53	44	39
35	29	33
48	28	19
50	42	31
50	42	31
50	42	31
43	37	23
41	39	27
34	31	24
34	31	24
43	37	23
35	29	33
27	28	10
53	44	39
34	31	24
34	31	24
72	58	45
43	37	23
35	29	33
43	37	23
41	39	27
43	37	23
43	37	23
57	59	48
43	37	23
43	37	23
53	44	39
58	47	45
50	42	31
43	37	23
72	58	45
66	35	33
35	29	33
43	37	23
43	37	23
53	44	39
58	47	45
50	42	31
66	35	33
58	47	45
43	37	23
34	31	24
66	35	33
43	37	23
41	39	27
41	39	27
53	44	39
48	28	19
53	44	39
43	37	23
34	31	24
43	37	23
43	37	23
34	31	24
43	37	23
66	35	33
43	37	23
43	37	23
66	35	33
66	35	33
50	42	31
35	29	33
66	35	33
41	39	27
35	29	33
34	31	24
41	39	27
50	42	31
50	42	31
43	37	23
43	37	23
48	28	19
34	31	24
34	31	24
50	42	31
53	44	39
26	26	26
34	31	24
35	29	33
34	31	24
58	47	45
34	31	24
34	31	24
66	35	33
50	42	31
53	44	39
58	47	45
53	44	39
53	44	39
53	44	39
66	35	33
88	50	31
41	39	27
48	28	19
72	58	45
53	44	39
66	35	33
43	37	23
50	42	31
53	44	39
50	42	31
43	37	23
41	39	27
41	39	27
43	37	23
48	28	19
66	35	33
66	35	33
34	31	24
66	35	33
66	35	33
48	28	19
66	35	33
48	28	19
43	37	23
43	37	23
43	37	23
43	37	23
43	37	23
66	35	33
48	28	19
43	37	23
53	44	39
66	35	33
34	31	24
35	29	33
58	47	45
51	34	14
43	37	23
43	37	23
34	31	24
50	42	31
66	35	33
53	44	39
43	37	23
48	28	19
34	31	24
34	31	24
53	44	39
58	47	45
26	26	26
32	35	16
53	44	39
34	31	24
41	39	27
34	31	24
34	31	24
66	35	33
66	35	33
43	37	23
43	37	23
53	44	39
53	44	39
43	37	23
53	44	39
53	44	39
50	42	31
53	44	39
72	60	48
66	35	33
53	44	39
66	35	33
43	37	23
66	35	33
43	37	23
48	28	19
43	37	23
34	31	24
48	28	19
48	28	19
48	28	19
50	42	31
48	28	19
43	37	23
82	39	46
43	37	23
66	35	33
48	28	19
53	44	39
66	35	33
43	37	23
34	31	24
43	37	23
43	37	23
48	28	19
34	31	24
50	42	31
50	42	31
50	42	31
35	29	33
41	39	27
43	37	23
43	37	23
34	31	24
43	37	23
53	44	39
58	47	45
41	39	27
66	35	33
43	37	23
35	29	33
34	31	24
43	37	23
53	44	39
34	31	24
35	29	33
53	44	39
35	29	33
43	37	23
34	31	24
34	31	24
66	35	33
41	39	27
35	29	33
53	44	39
57	59	48
48	28	19
43	37	23
53	44	39
72	58	45
58	47	45
66	35	33
72	58	45
66	35	33
48	28	19
43	37	23
48	28	19
43	37	23
41	39	27
41	39	27
66	35	33
34	31	24
34	31	24
43	37	23
43	37	23
43	37	23
66	35	33
50	42	31
58	47	45
43	37	23
66	35	33
43	37	23
51	34	14
66	35	33
43	37	23
43	37	23
43	37	23
34	31	24
43	37	23
43	37	23
43	37	23
66	35	33
43	37	23
35	29	33
66	35	33
41	39	27
35	29	33
34	31	24
34	31	24
53	44	39
72	58	45
66	35	33
53	44	39
43	37	23
26	26	26
34	31	24
51	34	14
41	39	27
34	31	24
32	35	16
43	37	23
34	31	24
53	44	39
34	31	24
35	29	33
43	37	23
41	39	27
34	31	24
66	35	33
53	44	39
48	28	19
43	37	23
53	44	39
88	50	31
53	44	39
34	31	24
62	44	24
43	37	23
66	35	33
41	39	27
48	28	19
43	37	23
50	42	31
58	47	45
48	28	19
34	31	24
43	37	23
43	37	23
66	35	33
50	42	31
66	35	33
66	35	33
43	37	23
66	35	33
66	35	33
48	28	19
66	35	33
43	37	23
50	42	31
34	31	24
66	35	33
43	37	23
48	28	19
48	28	19
43	37	23
34	31	24
43	37	23
35	29	33
66	35	33
43	37	23
35	29	33
34	31	24
35	29	33
53	44	39
53	44	39
66	35	33
66	35	33
43	37	23
35	29	33
26	26	26
35	29	33
35	29	33
48	28	19
26	26	26
43	37	23
35	29	33
41	39	27
35	29	33
35	29	33
41	39	27
35	29	33
34	31	24
48	28	19
35	29	33
48	28	19
50	42	31
66	35	33
43	37	23
66	35	33
32	35	16
62	44	24
66	35	33
43	37	23
41	39	27
34	31	24
48	28	19
66	35	33
50	42	31
50	42	31
66	35	33
43	37	23
43	37	23
43	37	23
66	35	33
58	47	45
66	35	33
66	35	33
43	37	23
50	42	31
48	28	19
48	28	19
48	28	19
43	37	23
43	37	23
66	35	33
43	37	23
48	28	19
43	37	23
34	31	24
32	35	16
48	28	19
35	29	33
41	39	27
43	37	23
48	28	19
32	35	16
34	31	24
43	37	23
53	44	39
66	35	33
41	39	27
43	37	23
35	29	33
34	31	24
43	37	23
35	29	33
48	28	19
27	17	5
43	37	23
34	31	24
41	39	27
35	29	33
35	29	33
35	29	33
48	28	19
34	31	24
41	39	27
43	37	23
48	28	19
43	37	23
66	35	33
50	42	31
66	35	33
34	31	24
50	42	31
66	35	33
41	39	27
34	31	24
34	31	24
48	28	19
43	37	23
43	37	23
66	35	33
41	39	27
66	35	33
34	31	24
50	42	31
43	37	23
41	39	27
43	37	23
58	47	45
43	37	23
43	37	23
48	28	19
48	28	19
43	37	23
43	37	23
66	35	33
58	47	45
41	39	27
43	37	23
48	28	19
43	37	23
50	42	31
41	39	27
32	35	16
43	37	23
48	28	19
35	29	33
34	31	24
34	31	24
66	35	33
50	42	31
43	37	23
58	47	45
48	28	19
35	29	33
34	31	24
43	37	23
41	39	27
34	31	24
26	26	26
43	37	23
50	42	31
51	34	14
34	31	24
34	31	24
43	37	23
43	37	23
35	29	33
50	42	31
35	29	33
41	39	27
66	35	33
50	42	31
41	39	27
66	35	33
34	31	24
53	44	39
43	37	23
34	31	24
34	31	24
34	31	24
34	31	24
43	37	23
43	37	23
66	35	33
41	39	27
43	37	23
43	37	23
50	42	31
66	35	33
43	37	23
50	42	31
43	37	23
48	28	19
43	37	23
48	28	19
48	28	19
43	37	23
66	35	33
48	28	19
43	37	23
43	37	23
48	28	19
43	37	23
34	31	24
43	37	23
34	31	24
35	29	33
41	39	27
43	37	23
50	42	31
35	29	33
34	31	24
34	31	24
82	39	46
43	37	23
43	37	23
48	28	19
35	29	33
32	35	16
51	34	14
41	39	27
48	28	19
32	35	16
43	37	23
32	35	16
58	47	45
34	31	24
34	31	24
66	35	33
50	42	31
34	31	24
43	37	23
43	37	23
35	29	33
41	39	27
47	43	32
41	39	27
34	31	24
32	35	16
53	44	39
48	28	19
34	31	24
34	31	24
34	31	24
34	31	24
50	42	31
43	37	23
66	35	33
50	42	31
58	47	45
66	35	33
53	44	39
58	47	45
43	37	23
58	47	45
43	37	23
48	28	19
43	37	23
34	31	24
34	31	24
43	37	23
43	37	23
41	39	27
66	35	33
43	37	23
43	37	23
43	37	23
43	37	23
35	29	33
48	28	19
35	29	33
66	35	33
53	44	39
43	37	23
34	31	24
43	37	23
34	31	24
66	35	33
66	35	33
41	39	27
48	28	19
34	31	24
34	31	24
53	44	39
35	29	33
48	28	19
34	31	24
43	37	23
32	35	16
41	39	27
34	31	24
34	31	24
66	35	33
66	35	33
43	37	23
66	35	33
34	31	24
34	31	24
43	37	23
43	37	23
43	37	23
43	37	23
43	37	23
43	37	23
48	28	19
34	31	24
34	31	24
35	29	33
43	37	23
66	35	33
66	35	33
50	42	31
72	58	45
55	47	34
41	39	27
58	47	45
50	42	31
43	37	23
58	47	45
48	28	19
34	31	24
43	37	23
34	31	24
43	37	23
41	39	27
51	34	14
51	34	14
58	47	45
58	47	45
50	42	31
50	42	31
43	37	23
43	37	23
43	37	23
26	26	26
66	35	33
43	37	23
43	37	23
34	31	24
34	31	24
43	37	23
72	47	25
43	37	23
41	39	27
43	37	23
34	31	24
34	31	24
43	37	23
26	26	26
35	29	33
34	31	24
35	29	33
26	26	26
41	39	27
34	31	24
34	31	24
43	37	23
66	35	33
34	31	24
66	35	33
53	44	39
43	37	23
48	28	19
41	39	27
34	31	24
43	37	23
32	35	16
53	44	39
34	31	24
32	35	16
34	31	24
34	31	24
43	37	23
50	42	31
50	42	31
58	47	45
53	44	39
43	37	23
43	37	23
58	47	45
53	44	39
50	42	31
66	55	51
53	44	39
43	37	23
66	35	33
43	37	23
48	28	19
66	35	33
66	35	33
66	35	33
88	50	31
66	35	33
50	42	31
82	39	46
50	42	31
43	37	23
41	39	27
34	31	24
48	28	19
41	39	27
43	37	23
43	37	23
34	31	24
43	37	23
53	44	39
41	39	27
41	39	27
48	28	19
35	29	33
34	31	24
53	44	39
51	34	14
48	28	19
34	31	24
43	37	23
43	37	23
66	35	33
34	31	24
34	31	24
48	28	19
88	50	31
34	31	24
41	39	27
50	42	31
35	29	33
43	37	23
41	39	27
48	28	19
66	35	33
35	29	33
66	35	33
43	37	23
48	28	19
32	35	16
48	28	19
48	28	19
43	37	23
53	44	39
58	47	45
58	47	45
53	44	39
53	44	39
58	47	45
82	39	46
53	44	39
53	44	39
43	37	23
50	42	31
82	39	46
53	44	39
50	42	31
66	35	33
58	47	45
66	35	33
88	50	31
66	35	33
53	44	39
66	35	33
50	42	31
43	37	23
66	35	33
26	26	26
48	28	19
48	28	19
43	37	23
34	31	24
34	31	24
34	31	24
55	47	34
66	35	33
88	50	31
43	37	23
34	31	24
34	31	24
53	44	39
53	44	39
34	31	24
34	31	24
26	26	26
35	29	33
41	39	27
34	31	24
43	37	23
53	44	39
82	39	46
43	37	23
50	42	31
43	37	23
48	28	19
48	28	19
51	34	14
43	37	23
48	28	19
26	26	26
58	47	45
43	37	23
34	31	24
35	29	33
48	28	19
48	28	19
41	39	27
66	35	33
50	42	31
48	28	19
41	39	27
50	42	31
53	44	39
53	44	39
58	47	45
76	48	36
53	44	39
53	44	39
53	44	39
66	35	33
53	44	39
43	37	23
58	47	45
43	37	23
50	42	31
66	35	33
50	42	31
43	37	23
66	35	33
43	37	23
34	31	24
26	26	26
48	28	19
35	29	33
43	37	23
50	42	31
34	31	24
34	31	24
43	37	23
48	28	19
50	42	31
50	42	31
34	31	24
34	31	24
55	47	34
53	44	39
35	29	33
26	26	26
35	29	33
34	31	24
53	44	39
43	37	23
34	31	24
53	44	39
53	44	39
43	37	23
58	47	45
53	44	39
43	37	23
43	37	23
50	42	31
48	28	19
34	31	24
35	29	33
58	47	45
43	37	23
50	42	31
41	39	27
43	37	23
34	31	24
43	37	23
43	37	23
58	47	45
43	37	23
43	37	23
48	28	19
82	39	46
58	47	45
53	44	39
43	37	23
66	35	33
43	37	23
53	44	39
43	37	23
43	37	23
53	44	39
58	47	45
43	37	23
50	42	31
66	35	33
48	28	19
41	39	27
58	47	45
43	37	23
50	42	31
34	31	24
66	35	33
48	28	19
35	29	33
35	29	33
35	29	33
32	35	16
51	34	14
48	28	19
35	29	33
53	44	39
35	29	33
34	31	24
53	44	39
43	37	23
48	28	19
26	26	26
26	26	26
34	31	24
41	39	27
34	31	24
34	31	24
53	44	39
57	59	48
34	31	24
66	35	33
58	47	45
35	29	33
43	37	23
58	47	45
43	37	23
43	37	23
26	26	26
66	35	33
43	37	23
43	37	23
43	37	23
48	28	19
34	31	24
32	35	16
43	37	23
66	35	33
48	28	19
43	37	23
34	31	24
66	35	33
53	44	39
43	37	23
48	28	19
43	37	23
41	39	27
43	37	23
43	37	23
43	37	23
43	37	23
43	37	23
43	37	23
66	35	33
48	28	19
41	39	27
50	42	31
66	35	33
43	37	23
58	47	45
26	26	26
43	37	23
48	28	19
35	29	33
35	29	33
34	31	24
34	31	24
35	29	33
43	37	23
53	44	39
35	29	33
34	31	24
34	31	24
43	37	23
51	34	14
34	31	24
43	37	23
34	31	24
34	31	24
43	37	23
34	31	24
35	29	33
43	37	23
43	37	23
34	31	24
43	37	23
35	29	33
34	31	24
48	28	19
58	47	45
48	28	19
66	35	33
13	20	13
50	42	31
48	28	19
34	31	24
35	29	33
43	37	23
34	31	24
34	31	24
43	37	23
66	35	33
50	42	31
34	31	24
35	29	33
43	37	23
43	37	23
43	37	23
58	47	45
48	28	19
43	37	23
43	37	23
34	31	24
35	29	33
50	42	31
43	37	23
35	29	33
43	37	23
34	31	24
34	31	24
66	35	33
66	35	33
34	31	24
43	37	23
26	26	26
43	37	23
26	26	26
43	37	23
48	28	19
26	26	26
34	31	24
50	42	31
34	31	24
53	44	39
43	37	23
34	31	24
35	29	33
43	37	23
35	29	33
34	31	24
53	44	39
34	31	24
26	26	26
43	37	23
26	26	26
34	31	24
35	29	33
43	37	23
34	31	24
43	37	23
43	37	23
35	29	33
58	47	45
43	37	23
35	29	33
48	28	19
34	31	24
82	39	46
66	35	33
34	31	24
66	35	33
43	37	23
34	31	24
34	31	24
43	37	23
66	35	33
34	31	24
48	28	19
34	31	24
48	28	19
66	35	33
43	37	23
66	35	33
35	29	33
43	37	23
48	28	19
32	35	16
32	35	16
34	31	24
43	37	23
34	31	24
34	31	24
34	31	24
32	35	16
34	31	24
43	37	23
34	31	24
48	28	19
35	29	33
43	37	23
26	26	26
34	31	24
34	31	24
34	31	24
34	31	24
50	42	31
35	29	33
41	39	27
50	42	31
35	29	33
34	31	24
43	37	23
32	35	16
34	31	24
35	29	33
26	26	26
43	37	23
35	29	33
34	31	24
34	31	24
41	39	27
32	35	16
35	29	33
43	37	23
43	37	23
34	31	24
43	37	23
43	37	23
35	29	33
48	28	19
35	29	33
50	42	31
43	37	23
26	26	26
43	37	23
43	37	23
32	35	16
32	35	16
26	26	26
43	37	23
48	28	19
32	35	16
35	29	33
48	28	19
43	37	23
48	28	19
50	42	31
32	35	16
43	37	23
43	37	23
43	37	23
34	31	24
48	28	19
48	28	19
34	31	24
43	37	23
35	29	33
43	37	23
27	28	10
26	26	26
34	31	24
34	31	24
35	29	33
34	31	24
35	29	33
13	20	13
24	15	8
13	20	13
34	31	24
50	42	31
43	37	23
43	37	23
43	37	23
50	42	31
35	29	33
41	39	27
32	35	16
26	26	26
35	29	33
27	17	5
26	26	26
53	44	39
35	29	33
34	31	24
48	28	19
48	28	19
43	37	23
66	35	33
43	37	23
43	37	23
34	31	24
34	31	24
35	29	33
50	42	31
43	37	23
58	47	45
34	31	24
32	35	16
13	20	13
13	20	13
26	26	26
32	35	16
32	35	16
66	35	33
34	31	24
34	31	24
34	31	24
48	28	19
48	28	19
34	31	24
32	35	16
34	31	24
48	28	19
48	28	19
48	28	19
34	31	24
48	28	19
48	28	19
27	17	5
34	31	24
48	28	19
48	28	19
66	35	33
66	35	33
43	37	23
48	28	19
13	20	13
34	31	24
27	17	5
26	26	26
35	29	33
26	26	26
26	26	26
26	26	26
51	34	14
27	17	5
35	29	33
26	26	26
27	17	5
51	34	14
26	26	26
32	35	16
35	29	33
24	15	8
26	26	26
26	26	26
35	29	33
26	26	26
32	35	16
32	35	16
48	28	19
43	37	23
43	37	23
34	31	24
48	28	19
41	39	27
43	37	23
51	34	14
27	17	5
66	35	33
26	26	26
26	26	26
32	35	16
32	35	16
34	31	24
34	31	24
48	28	19
41	39	27
26	26	26
26	26	26
26	26	26
43	37	23
34	31	24
48	28	19
