solid ArchiCAD_STL_Unit=M_Scale=1
 facet normal 0.000000 -1.000000 0.000000
   outer loop
     vertex 0.000000 0.000000 25.000000
     vertex 0.000000 0.000000 0.000000
     vertex 25.000000 0.000000 0.000000
   endloop
 endfacet
 facet normal 0.000000 -1.000000 0.000000
   outer loop
     vertex 0.000000 0.000000 25.000000
     vertex 25.000000 0.000000 0.000000
     vertex 25.000000 0.000000 25.000000
   endloop
 endfacet
 facet normal -1.000000 0.000000 0.000000
   outer loop
     vertex 0.000000 25.000000 25.000000
     vertex 0.000000 25.000000 0.000000
     vertex 0.000000 0.000000 0.000000
   endloop
 endfacet
 facet normal -1.000000 0.000000 0.000000
   outer loop
     vertex 0.000000 25.000000 25.000000
     vertex 0.000000 0.000000 0.000000
     vertex 0.000000 0.000000 25.000000
   endloop
 endfacet
 facet normal 0.000000 0.000000 -1.000000
   outer loop
     vertex 25.000000 0.000000 0.000000
     vertex 0.000000 0.000000 0.000000
     vertex 0.000000 25.000000 0.000000
   endloop
 endfacet
 facet normal 0.000000 0.000000 -1.000000
   outer loop
     vertex 25.000000 0.000000 0.000000
     vertex 0.000000 25.000000 0.000000
     vertex 25.000000 25.000000 0.000000
   endloop
 endfacet
 facet normal 1.000000 0.000000 0.000000
   outer loop
     vertex 25.000000 0.000000 25.000000
     vertex 25.000000 0.000000 0.000000
     vertex 25.000000 25.000000 0.000000
   endloop
 endfacet
 facet normal 1.000000 0.000000 -0.000000
   outer loop
     vertex 25.000000 0.000000 25.000000
     vertex 25.000000 25.000000 0.000000
     vertex 25.000000 25.000000 25.000000
   endloop
 endfacet
 facet normal 0.000000 0.000000 1.000000
   outer loop
     vertex 0.000000 25.000000 25.000000
     vertex 0.000000 0.000000 25.000000
     vertex 25.000000 0.000000 25.000000
   endloop
 endfacet
 facet normal 0.000000 -0.000000 1.000000
   outer loop
     vertex 0.000000 25.000000 25.000000
     vertex 25.000000 0.000000 25.000000
     vertex 25.000000 25.000000 25.000000
   endloop
 endfacet
 facet normal 0.000000 1.000000 -0.000000
   outer loop
     vertex 25.000000 25.000000 25.000000
     vertex 25.000000 25.000000 0.000000
     vertex 0.000000 25.000000 0.000000
   endloop
 endfacet
 facet normal 0.000000 1.000000 0.000000
   outer loop
     vertex 25.000000 25.000000 25.000000
     vertex 0.000000 25.000000 0.000000
     vertex 0.000000 25.000000 25.000000
   endloop
 endfacet
endsolid ArchiCAD_STL_Unit=M_Scale=1