solid ArchiCAD_STL_Unit=M_Scale=1
 facet normal 0.000000 -1.000000 0.000000
   outer loop
     vertex 0.000000 0.000000 5.000000
     vertex 0.000000 0.000000 0.000000
     vertex 130.000000 0.000000 0.000000
   endloop
 endfacet
 facet normal 0.000000 -1.000000 0.000000
   outer loop
     vertex 0.000000 0.000000 5.000000
     vertex 130.000000 0.000000 0.000000
     vertex 130.000000 0.000000 5.000000
   endloop
 endfacet
 facet normal -1.000000 0.000000 0.000000
   outer loop
     vertex 0.000000 100.000000 5.000000
     vertex 0.000000 100.000000 0.000000
     vertex 0.000000 0.000000 0.000000
   endloop
 endfacet
 facet normal -1.000000 0.000000 0.000000
   outer loop
     vertex 0.000000 100.000000 5.000000
     vertex 0.000000 0.000000 0.000000
     vertex 0.000000 0.000000 5.000000
   endloop
 endfacet
 facet normal 0.000000 0.000000 -1.000000
   outer loop
     vertex 130.000000 0.000000 0.000000
     vertex 0.000000 0.000000 0.000000
     vertex 0.000000 100.000000 0.000000
   endloop
 endfacet
 facet normal 0.000000 0.000000 -1.000000
   outer loop
     vertex 130.000000 0.000000 0.000000
     vertex 0.000000 100.000000 0.000000
     vertex 130.000000 100.000000 0.000000
   endloop
 endfacet
 facet normal 1.000000 0.000000 0.000000
   outer loop
     vertex 130.000000 0.000000 5.000000
     vertex 130.000000 0.000000 0.000000
     vertex 130.000000 100.000000 0.000000
   endloop
 endfacet
 facet normal 1.000000 0.000000 -0.000000
   outer loop
     vertex 130.000000 0.000000 5.000000
     vertex 130.000000 100.000000 0.000000
     vertex 130.000000 100.000000 5.000000
   endloop
 endfacet
 facet normal 0.000000 0.000000 1.000000
   outer loop
     vertex 0.000000 100.000000 5.000000
     vertex 0.000000 0.000000 5.000000
     vertex 130.000000 0.000000 5.000000
   endloop
 endfacet
 facet normal 0.000000 -0.000000 1.000000
   outer loop
     vertex 0.000000 100.000000 5.000000
     vertex 130.000000 0.000000 5.000000
     vertex 130.000000 100.000000 5.000000
   endloop
 endfacet
 facet normal 0.000000 1.000000 -0.000000
   outer loop
     vertex 130.000000 100.000000 5.000000
     vertex 130.000000 100.000000 0.000000
     vertex 0.000000 100.000000 0.000000
   endloop
 endfacet
 facet normal 0.000000 1.000000 0.000000
   outer loop
     vertex 130.000000 100.000000 5.000000
     vertex 0.000000 100.000000 0.000000
     vertex 0.000000 100.000000 5.000000
   endloop
 endfacet
 facet normal 0.000000 -1.000000 0.000000
   outer loop
     vertex 30.000000 0.000000 25.000000
     vertex 30.000000 0.000000 5.000000
     vertex 40.000000 0.000000 5.000000
   endloop
 endfacet
 facet normal 0.000000 -1.000000 0.000000
   outer loop
     vertex 30.000000 0.000000 25.000000
     vertex 40.000000 0.000000 5.000000
     vertex 40.000000 0.000000 25.000000
   endloop
 endfacet
 facet normal -1.000000 0.000000 0.000000
   outer loop
     vertex 30.000000 50.000000 25.000000
     vertex 30.000000 50.000000 5.000000
     vertex 30.000000 0.000000 5.000000
   endloop
 endfacet
 facet normal -1.000000 0.000000 0.000000
   outer loop
     vertex 30.000000 50.000000 25.000000
     vertex 30.000000 0.000000 5.000000
     vertex 30.000000 0.000000 25.000000
   endloop
 endfacet
 facet normal 0.000000 0.000000 -1.000000
   outer loop
     vertex 40.000000 0.000000 5.000000
     vertex 30.000000 0.000000 5.000000
     vertex 30.000000 50.000000 5.000000
   endloop
 endfacet
 facet normal 0.000000 0.000000 -1.000000
   outer loop
     vertex 40.000000 0.000000 5.000000
     vertex 30.000000 50.000000 5.000000
     vertex 40.000000 50.000000 5.000000
   endloop
 endfacet
 facet normal 1.000000 0.000000 0.000000
   outer loop
     vertex 40.000000 0.000000 25.000000
     vertex 40.000000 0.000000 5.000000
     vertex 40.000000 50.000000 5.000000
   endloop
 endfacet
 facet normal 1.000000 0.000000 -0.000000
   outer loop
     vertex 40.000000 0.000000 25.000000
     vertex 40.000000 50.000000 5.000000
     vertex 40.000000 50.000000 25.000000
   endloop
 endfacet
 facet normal 0.000000 0.000000 1.000000
   outer loop
     vertex 30.000000 50.000000 25.000000
     vertex 30.000000 0.000000 25.000000
     vertex 40.000000 0.000000 25.000000
   endloop
 endfacet
 facet normal 0.000000 -0.000000 1.000000
   outer loop
     vertex 30.000000 50.000000 25.000000
     vertex 40.000000 0.000000 25.000000
     vertex 40.000000 50.000000 25.000000
   endloop
 endfacet
 facet normal 0.000000 1.000000 -0.000000
   outer loop
     vertex 40.000000 50.000000 25.000000
     vertex 40.000000 50.000000 5.000000
     vertex 30.000000 50.000000 5.000000
   endloop
 endfacet
 facet normal 0.000000 1.000000 0.000000
   outer loop
     vertex 40.000000 50.000000 25.000000
     vertex 30.000000 50.000000 5.000000
     vertex 30.000000 50.000000 25.000000
   endloop
 endfacet
 facet normal 0.000000 -1.000000 0.000000
   outer loop
     vertex 50.000000 80.000000 25.000000
     vertex 50.000000 80.000000 5.000000
     vertex 110.000000 80.000000 5.000000
   endloop
 endfacet
 facet normal 0.000000 -1.000000 0.000000
   outer loop
     vertex 50.000000 80.000000 25.000000
     vertex 110.000000 80.000000 5.000000
     vertex 110.000000 80.000000 25.000000
   endloop
 endfacet
 facet normal -1.000000 0.000000 0.000000
   outer loop
     vertex 50.000000 100.000000 25.000000
     vertex 50.000000 100.000000 5.000000
     vertex 50.000000 80.000000 5.000000
   endloop
 endfacet
 facet normal -1.000000 0.000000 0.000000
   outer loop
     vertex 50.000000 100.000000 25.000000
     vertex 50.000000 80.000000 5.000000
     vertex 50.000000 80.000000 25.000000
   endloop
 endfacet
 facet normal 0.000000 0.000000 -1.000000
   outer loop
     vertex 110.000000 80.000000 5.000000
     vertex 50.000000 80.000000 5.000000
     vertex 50.000000 100.000000 5.000000
   endloop
 endfacet
 facet normal 0.000000 0.000000 -1.000000
   outer loop
     vertex 110.000000 80.000000 5.000000
     vertex 50.000000 100.000000 5.000000
     vertex 110.000000 100.000000 5.000000
   endloop
 endfacet
 facet normal 1.000000 0.000000 0.000000
   outer loop
     vertex 110.000000 80.000000 25.000000
     vertex 110.000000 80.000000 5.000000
     vertex 110.000000 100.000000 5.000000
   endloop
 endfacet
 facet normal 1.000000 0.000000 -0.000000
   outer loop
     vertex 110.000000 80.000000 25.000000
     vertex 110.000000 100.000000 5.000000
     vertex 110.000000 100.000000 25.000000
   endloop
 endfacet
 facet normal 0.000000 0.000000 1.000000
   outer loop
     vertex 50.000000 100.000000 25.000000
     vertex 50.000000 80.000000 25.000000
     vertex 110.000000 80.000000 25.000000
   endloop
 endfacet
 facet normal 0.000000 -0.000000 1.000000
   outer loop
     vertex 50.000000 100.000000 25.000000
     vertex 110.000000 80.000000 25.000000
     vertex 110.000000 100.000000 25.000000
   endloop
 endfacet
 facet normal 0.000000 1.000000 -0.000000
   outer loop
     vertex 110.000000 100.000000 25.000000
     vertex 110.000000 100.000000 5.000000
     vertex 50.000000 100.000000 5.000000
   endloop
 endfacet
 facet normal 0.000000 1.000000 0.000000
   outer loop
     vertex 110.000000 100.000000 25.000000
     vertex 50.000000 100.000000 5.000000
     vertex 50.000000 100.000000 25.000000
   endloop
 endfacet
 facet normal 0.000000 -1.000000 0.000000
   outer loop
     vertex 110.000000 38.000000 25.000000
     vertex 110.000000 38.000000 5.000000
     vertex 120.000000 38.000000 5.000000
   endloop
 endfacet
 facet normal 0.000000 -1.000000 0.000000
   outer loop
     vertex 110.000000 38.000000 25.000000
     vertex 120.000000 38.000000 5.000000
     vertex 120.000000 38.000000 25.000000
   endloop
 endfacet
 facet normal -1.000000 0.000000 0.000000
   outer loop
     vertex 110.000000 58.000000 25.000000
     vertex 110.000000 58.000000 5.000000
     vertex 110.000000 38.000000 5.000000
   endloop
 endfacet
 facet normal -1.000000 0.000000 0.000000
   outer loop
     vertex 110.000000 58.000000 25.000000
     vertex 110.000000 38.000000 5.000000
     vertex 110.000000 38.000000 25.000000
   endloop
 endfacet
 facet normal 0.000000 0.000000 -1.000000
   outer loop
     vertex 120.000000 48.000000 5.000000
     vertex 120.000000 38.000000 5.000000
     vertex 110.000000 38.000000 5.000000
   endloop
 endfacet
 facet normal 0.000000 0.000000 -1.000000
   outer loop
     vertex 120.000000 48.000000 5.000000
     vertex 110.000000 38.000000 5.000000
     vertex 110.000000 58.000000 5.000000
   endloop
 endfacet
 facet normal 0.000000 0.000000 -1.000000
   outer loop
     vertex 130.000000 48.000000 5.000000
     vertex 120.000000 48.000000 5.000000
     vertex 130.000000 58.000000 5.000000
   endloop
 endfacet
 facet normal 0.000000 0.000000 -1.000000
   outer loop
     vertex 130.000000 58.000000 5.000000
     vertex 120.000000 48.000000 5.000000
     vertex 110.000000 58.000000 5.000000
   endloop
 endfacet
 facet normal 1.000000 0.000000 0.000000
   outer loop
     vertex 120.000000 38.000000 25.000000
     vertex 120.000000 38.000000 5.000000
     vertex 120.000000 48.000000 5.000000
   endloop
 endfacet
 facet normal 1.000000 0.000000 -0.000000
   outer loop
     vertex 120.000000 38.000000 25.000000
     vertex 120.000000 48.000000 5.000000
     vertex 120.000000 48.000000 25.000000
   endloop
 endfacet
 facet normal 0.000000 0.000000 1.000000
   outer loop
     vertex 110.000000 58.000000 25.000000
     vertex 110.000000 38.000000 25.000000
     vertex 120.000000 38.000000 25.000000
   endloop
 endfacet
 facet normal 0.000000 -0.000000 1.000000
   outer loop
     vertex 110.000000 58.000000 25.000000
     vertex 120.000000 38.000000 25.000000
     vertex 120.000000 48.000000 25.000000
   endloop
 endfacet
 facet normal -0.000000 0.000000 1.000000
   outer loop
     vertex 130.000000 58.000000 25.000000
     vertex 110.000000 58.000000 25.000000
     vertex 120.000000 48.000000 25.000000
   endloop
 endfacet
 facet normal 0.000000 0.000000 1.000000
   outer loop
     vertex 130.000000 58.000000 25.000000
     vertex 120.000000 48.000000 25.000000
     vertex 130.000000 48.000000 25.000000
   endloop
 endfacet
 facet normal 0.000000 1.000000 -0.000000
   outer loop
     vertex 130.000000 58.000000 25.000000
     vertex 130.000000 58.000000 5.000000
     vertex 110.000000 58.000000 5.000000
   endloop
 endfacet
 facet normal 0.000000 1.000000 0.000000
   outer loop
     vertex 130.000000 58.000000 25.000000
     vertex 110.000000 58.000000 5.000000
     vertex 110.000000 58.000000 25.000000
   endloop
 endfacet
 facet normal 1.000000 0.000000 0.000000
   outer loop
     vertex 130.000000 48.000000 25.000000
     vertex 130.000000 48.000000 5.000000
     vertex 130.000000 58.000000 5.000000
   endloop
 endfacet
 facet normal 1.000000 0.000000 -0.000000
   outer loop
     vertex 130.000000 48.000000 25.000000
     vertex 130.000000 58.000000 5.000000
     vertex 130.000000 58.000000 25.000000
   endloop
 endfacet
 facet normal 0.000000 -1.000000 0.000000
   outer loop
     vertex 120.000000 48.000000 25.000000
     vertex 120.000000 48.000000 5.000000
     vertex 130.000000 48.000000 5.000000
   endloop
 endfacet
 facet normal 0.000000 -1.000000 0.000000
   outer loop
     vertex 120.000000 48.000000 25.000000
     vertex 130.000000 48.000000 5.000000
     vertex 130.000000 48.000000 25.000000
   endloop
 endfacet
 facet normal 0.000000 -1.000000 0.000000
   outer loop
     vertex 76.000000 14.000000 15.000000
     vertex 76.000000 14.000000 5.000000
     vertex 86.000000 14.000000 5.000000
   endloop
 endfacet
 facet normal 0.000000 -1.000000 0.000000
   outer loop
     vertex 76.000000 14.000000 15.000000
     vertex 86.000000 14.000000 5.000000
     vertex 86.000000 14.000000 15.000000
   endloop
 endfacet
 facet normal -1.000000 0.000000 0.000000
   outer loop
     vertex 76.000000 34.000000 15.000000
     vertex 76.000000 34.000000 5.000000
     vertex 76.000000 14.000000 5.000000
   endloop
 endfacet
 facet normal -1.000000 0.000000 0.000000
   outer loop
     vertex 76.000000 34.000000 15.000000
     vertex 76.000000 14.000000 5.000000
     vertex 76.000000 14.000000 15.000000
   endloop
 endfacet
 facet normal 0.000000 0.000000 -1.000000
   outer loop
     vertex 86.000000 14.000000 5.000000
     vertex 76.000000 14.000000 5.000000
     vertex 76.000000 34.000000 5.000000
   endloop
 endfacet
 facet normal 0.000000 0.000000 -1.000000
   outer loop
     vertex 86.000000 14.000000 5.000000
     vertex 76.000000 34.000000 5.000000
     vertex 86.000000 34.000000 5.000000
   endloop
 endfacet
 facet normal 0.000000 0.000000 -1.000000
   outer loop
     vertex 96.000000 4.000000 5.000000
     vertex 86.000000 4.000000 5.000000
     vertex 86.000000 24.000000 5.000000
   endloop
 endfacet
 facet normal 0.000000 0.000000 -1.000000
   outer loop
     vertex 96.000000 14.000000 5.000000
     vertex 96.000000 4.000000 5.000000
     vertex 86.000000 24.000000 5.000000
   endloop
 endfacet
 facet normal 0.000000 0.000000 -1.000000
   outer loop
     vertex 106.000000 14.000000 5.000000
     vertex 96.000000 14.000000 5.000000
     vertex 106.000000 24.000000 5.000000
   endloop
 endfacet
 facet normal 0.000000 0.000000 -1.000000
   outer loop
     vertex 106.000000 24.000000 5.000000
     vertex 96.000000 14.000000 5.000000
     vertex 86.000000 24.000000 5.000000
   endloop
 endfacet
 facet normal -1.000000 0.000000 0.000000
   outer loop
     vertex 86.000000 14.000000 15.000000
     vertex 86.000000 14.000000 5.000000
     vertex 86.000000 4.000000 5.000000
   endloop
 endfacet
 facet normal -1.000000 0.000000 0.000000
   outer loop
     vertex 86.000000 14.000000 15.000000
     vertex 86.000000 4.000000 5.000000
     vertex 86.000000 4.000000 15.000000
   endloop
 endfacet
 facet normal 0.000000 0.000000 1.000000
   outer loop
     vertex 76.000000 34.000000 15.000000
     vertex 76.000000 14.000000 15.000000
     vertex 86.000000 14.000000 15.000000
   endloop
 endfacet
 facet normal -0.000000 0.000000 1.000000
   outer loop
     vertex 86.000000 34.000000 15.000000
     vertex 76.000000 34.000000 15.000000
     vertex 86.000000 14.000000 15.000000
   endloop
 endfacet
 facet normal 0.000000 0.000000 1.000000
   outer loop
     vertex 86.000000 24.000000 15.000000
     vertex 86.000000 4.000000 15.000000
     vertex 96.000000 4.000000 15.000000
   endloop
 endfacet
 facet normal 0.000000 -0.000000 1.000000
   outer loop
     vertex 86.000000 24.000000 15.000000
     vertex 96.000000 4.000000 15.000000
     vertex 96.000000 14.000000 15.000000
   endloop
 endfacet
 facet normal -0.000000 0.000000 1.000000
   outer loop
     vertex 106.000000 24.000000 15.000000
     vertex 86.000000 24.000000 15.000000
     vertex 96.000000 14.000000 15.000000
   endloop
 endfacet
 facet normal 0.000000 0.000000 1.000000
   outer loop
     vertex 106.000000 24.000000 15.000000
     vertex 96.000000 14.000000 15.000000
     vertex 106.000000 14.000000 15.000000
   endloop
 endfacet
 facet normal 0.000000 1.000000 -0.000000
   outer loop
     vertex 86.000000 34.000000 15.000000
     vertex 86.000000 34.000000 5.000000
     vertex 76.000000 34.000000 5.000000
   endloop
 endfacet
 facet normal 0.000000 1.000000 0.000000
   outer loop
     vertex 86.000000 34.000000 15.000000
     vertex 76.000000 34.000000 5.000000
     vertex 76.000000 34.000000 15.000000
   endloop
 endfacet
 facet normal 1.000000 0.000000 0.000000
   outer loop
     vertex 86.000000 24.000000 15.000000
     vertex 86.000000 24.000000 5.000000
     vertex 86.000000 34.000000 5.000000
   endloop
 endfacet
 facet normal 1.000000 0.000000 -0.000000
   outer loop
     vertex 86.000000 24.000000 15.000000
     vertex 86.000000 34.000000 5.000000
     vertex 86.000000 34.000000 15.000000
   endloop
 endfacet
 facet normal 0.000000 1.000000 -0.000000
   outer loop
     vertex 106.000000 24.000000 15.000000
     vertex 106.000000 24.000000 5.000000
     vertex 86.000000 24.000000 5.000000
   endloop
 endfacet
 facet normal 0.000000 1.000000 0.000000
   outer loop
     vertex 106.000000 24.000000 15.000000
     vertex 86.000000 24.000000 5.000000
     vertex 86.000000 24.000000 15.000000
   endloop
 endfacet
 facet normal 1.000000 0.000000 0.000000
   outer loop
     vertex 106.000000 14.000000 15.000000
     vertex 106.000000 14.000000 5.000000
     vertex 106.000000 24.000000 5.000000
   endloop
 endfacet
 facet normal 1.000000 0.000000 -0.000000
   outer loop
     vertex 106.000000 14.000000 15.000000
     vertex 106.000000 24.000000 5.000000
     vertex 106.000000 24.000000 15.000000
   endloop
 endfacet
 facet normal 0.000000 -1.000000 0.000000
   outer loop
     vertex 96.000000 14.000000 15.000000
     vertex 96.000000 14.000000 5.000000
     vertex 106.000000 14.000000 5.000000
   endloop
 endfacet
 facet normal 0.000000 -1.000000 0.000000
   outer loop
     vertex 96.000000 14.000000 15.000000
     vertex 106.000000 14.000000 5.000000
     vertex 106.000000 14.000000 15.000000
   endloop
 endfacet
 facet normal 1.000000 0.000000 0.000000
   outer loop
     vertex 96.000000 4.000000 15.000000
     vertex 96.000000 4.000000 5.000000
     vertex 96.000000 14.000000 5.000000
   endloop
 endfacet
 facet normal 1.000000 0.000000 -0.000000
   outer loop
     vertex 96.000000 4.000000 15.000000
     vertex 96.000000 14.000000 5.000000
     vertex 96.000000 14.000000 15.000000
   endloop
 endfacet
 facet normal 0.000000 -1.000000 0.000000
   outer loop
     vertex 86.000000 4.000000 15.000000
     vertex 86.000000 4.000000 5.000000
     vertex 96.000000 4.000000 5.000000
   endloop
 endfacet
 facet normal 0.000000 -1.000000 0.000000
   outer loop
     vertex 86.000000 4.000000 15.000000
     vertex 96.000000 4.000000 5.000000
     vertex 96.000000 4.000000 15.000000
   endloop
 endfacet
 facet normal 0.000000 -1.000000 0.000000
   outer loop
     vertex 46.000000 60.000000 45.000000
     vertex 46.000000 60.000000 5.000000
     vertex 56.000000 60.000000 5.000000
   endloop
 endfacet
 facet normal 0.000000 -1.000000 0.000000
   outer loop
     vertex 46.000000 60.000000 45.000000
     vertex 56.000000 60.000000 5.000000
     vertex 56.000000 60.000000 45.000000
   endloop
 endfacet
 facet normal -1.000000 0.000000 0.000000
   outer loop
     vertex 46.000000 70.000000 45.000000
     vertex 46.000000 70.000000 5.000000
     vertex 46.000000 60.000000 5.000000
   endloop
 endfacet
 facet normal -1.000000 0.000000 0.000000
   outer loop
     vertex 46.000000 70.000000 45.000000
     vertex 46.000000 60.000000 5.000000
     vertex 46.000000 60.000000 45.000000
   endloop
 endfacet
 facet normal 0.000000 0.000000 -1.000000
   outer loop
     vertex 56.000000 60.000000 5.000000
     vertex 46.000000 60.000000 5.000000
     vertex 46.000000 70.000000 5.000000
   endloop
 endfacet
 facet normal 0.000000 0.000000 -1.000000
   outer loop
     vertex 56.000000 60.000000 5.000000
     vertex 46.000000 70.000000 5.000000
     vertex 56.000000 70.000000 5.000000
   endloop
 endfacet
 facet normal 1.000000 0.000000 0.000000
   outer loop
     vertex 56.000000 60.000000 45.000000
     vertex 56.000000 60.000000 5.000000
     vertex 56.000000 70.000000 5.000000
   endloop
 endfacet
 facet normal 1.000000 0.000000 -0.000000
   outer loop
     vertex 56.000000 60.000000 45.000000
     vertex 56.000000 70.000000 5.000000
     vertex 56.000000 70.000000 45.000000
   endloop
 endfacet
 facet normal 0.000000 0.000000 1.000000
   outer loop
     vertex 46.000000 70.000000 45.000000
     vertex 46.000000 60.000000 45.000000
     vertex 56.000000 60.000000 45.000000
   endloop
 endfacet
 facet normal 0.000000 -0.000000 1.000000
   outer loop
     vertex 46.000000 70.000000 45.000000
     vertex 56.000000 60.000000 45.000000
     vertex 56.000000 70.000000 45.000000
   endloop
 endfacet
 facet normal 0.000000 1.000000 -0.000000
   outer loop
     vertex 56.000000 70.000000 45.000000
     vertex 56.000000 70.000000 5.000000
     vertex 46.000000 70.000000 5.000000
   endloop
 endfacet
 facet normal 0.000000 1.000000 0.000000
   outer loop
     vertex 56.000000 70.000000 45.000000
     vertex 46.000000 70.000000 5.000000
     vertex 46.000000 70.000000 45.000000
   endloop
 endfacet
 facet normal 0.000000 -1.000000 0.000000
   outer loop
     vertex 80.000000 54.000000 35.000000
     vertex 80.000000 54.000000 5.000000
     vertex 90.000000 54.000000 5.000000
   endloop
 endfacet
 facet normal 0.000000 -1.000000 0.000000
   outer loop
     vertex 80.000000 54.000000 35.000000
     vertex 90.000000 54.000000 5.000000
     vertex 90.000000 54.000000 35.000000
   endloop
 endfacet
 facet normal -1.000000 0.000000 0.000000
   outer loop
     vertex 80.000000 64.000000 35.000000
     vertex 80.000000 64.000000 5.000000
     vertex 80.000000 54.000000 5.000000
   endloop
 endfacet
 facet normal -1.000000 0.000000 0.000000
   outer loop
     vertex 80.000000 64.000000 35.000000
     vertex 80.000000 54.000000 5.000000
     vertex 80.000000 54.000000 35.000000
   endloop
 endfacet
 facet normal 0.000000 0.000000 -1.000000
   outer loop
     vertex 90.000000 54.000000 5.000000
     vertex 80.000000 54.000000 5.000000
     vertex 80.000000 64.000000 5.000000
   endloop
 endfacet
 facet normal 0.000000 0.000000 -1.000000
   outer loop
     vertex 90.000000 54.000000 5.000000
     vertex 80.000000 64.000000 5.000000
     vertex 90.000000 64.000000 5.000000
   endloop
 endfacet
 facet normal 1.000000 0.000000 0.000000
   outer loop
     vertex 90.000000 54.000000 35.000000
     vertex 90.000000 54.000000 5.000000
     vertex 90.000000 64.000000 5.000000
   endloop
 endfacet
 facet normal 1.000000 0.000000 -0.000000
   outer loop
     vertex 90.000000 54.000000 35.000000
     vertex 90.000000 64.000000 5.000000
     vertex 90.000000 64.000000 35.000000
   endloop
 endfacet
 facet normal 0.000000 0.000000 1.000000
   outer loop
     vertex 80.000000 64.000000 35.000000
     vertex 80.000000 54.000000 35.000000
     vertex 90.000000 54.000000 35.000000
   endloop
 endfacet
 facet normal 0.000000 -0.000000 1.000000
   outer loop
     vertex 80.000000 64.000000 35.000000
     vertex 90.000000 54.000000 35.000000
     vertex 90.000000 64.000000 35.000000
   endloop
 endfacet
 facet normal 0.000000 1.000000 -0.000000
   outer loop
     vertex 90.000000 64.000000 35.000000
     vertex 90.000000 64.000000 5.000000
     vertex 80.000000 64.000000 5.000000
   endloop
 endfacet
 facet normal 0.000000 1.000000 0.000000
   outer loop
     vertex 90.000000 64.000000 35.000000
     vertex 80.000000 64.000000 5.000000
     vertex 80.000000 64.000000 35.000000
   endloop
 endfacet
 facet normal 0.000000 -1.000000 0.000000
   outer loop
     vertex 0.000000 40.000000 35.000000
     vertex 0.000000 40.000000 5.000000
     vertex 10.000000 40.000000 5.000000
   endloop
 endfacet
 facet normal 0.000000 -1.000000 0.000000
   outer loop
     vertex 0.000000 40.000000 35.000000
     vertex 10.000000 40.000000 5.000000
     vertex 10.000000 40.000000 35.000000
   endloop
 endfacet
 facet normal -1.000000 0.000000 0.000000
   outer loop
     vertex 0.000000 60.000000 35.000000
     vertex 0.000000 60.000000 5.000000
     vertex 0.000000 40.000000 5.000000
   endloop
 endfacet
 facet normal -1.000000 0.000000 0.000000
   outer loop
     vertex 0.000000 60.000000 35.000000
     vertex 0.000000 40.000000 5.000000
     vertex 0.000000 40.000000 35.000000
   endloop
 endfacet
 facet normal 0.000000 0.000000 -1.000000
   outer loop
     vertex 10.000000 40.000000 5.000000
     vertex 0.000000 40.000000 5.000000
     vertex 0.000000 60.000000 5.000000
   endloop
 endfacet
 facet normal 0.000000 0.000000 -1.000000
   outer loop
     vertex 10.000000 40.000000 5.000000
     vertex 0.000000 60.000000 5.000000
     vertex 10.000000 60.000000 5.000000
   endloop
 endfacet
 facet normal 1.000000 0.000000 0.000000
   outer loop
     vertex 10.000000 40.000000 35.000000
     vertex 10.000000 40.000000 5.000000
     vertex 10.000000 60.000000 5.000000
   endloop
 endfacet
 facet normal 1.000000 0.000000 -0.000000
   outer loop
     vertex 10.000000 40.000000 35.000000
     vertex 10.000000 60.000000 5.000000
     vertex 10.000000 60.000000 35.000000
   endloop
 endfacet
 facet normal 0.000000 0.000000 1.000000
   outer loop
     vertex 0.000000 60.000000 35.000000
     vertex 0.000000 40.000000 35.000000
     vertex 10.000000 40.000000 35.000000
   endloop
 endfacet
 facet normal 0.000000 -0.000000 1.000000
   outer loop
     vertex 0.000000 60.000000 35.000000
     vertex 10.000000 40.000000 35.000000
     vertex 10.000000 60.000000 35.000000
   endloop
 endfacet
 facet normal 0.000000 1.000000 -0.000000
   outer loop
     vertex 10.000000 60.000000 35.000000
     vertex 10.000000 60.000000 5.000000
     vertex 0.000000 60.000000 5.000000
   endloop
 endfacet
 facet normal 0.000000 1.000000 0.000000
   outer loop
     vertex 10.000000 60.000000 35.000000
     vertex 0.000000 60.000000 5.000000
     vertex 0.000000 60.000000 35.000000
   endloop
 endfacet
endsolid ArchiCAD_STL_Unit=M_Scale=1